<svg xmlns="http://www.w3.org/2000/svg" width="22" height="22" viewBox="0 0 22 22">
    <path fill="#4A90E2" fill-rule="nonzero" d="M6.536 21.301c-1.81.995-3.45-.248-3.104-2.357l.596-3.632c.112-.681-.228-1.775-.701-2.257L.803 10.482C-.662 8.99-.037 6.976 1.988 6.668l3.488-.53c.654-.1 1.544-.775 1.837-1.395l1.56-3.305c.905-1.917 2.93-1.918 3.836 0l1.56 3.305c.293.62 1.183 1.296 1.837 1.395l3.488.53c2.024.308 2.651 2.321 1.186 3.814l-2.524 2.573c-.474.482-.814 1.576-.702 2.257l.596 3.632c.346 2.108-1.292 3.353-3.104 2.357l-3.12-1.714c-.585-.322-1.685-.322-2.27 0L6.536 21.3zm2.007-3.927c1.282-.705 3.214-.705 4.496 0l2.667 1.466-.509-3.105c-.245-1.493.353-3.414 1.39-4.47l2.157-2.2-2.982-.453c-1.433-.217-2.996-1.405-3.637-2.763L10.79 3.024 9.457 5.85c-.64 1.358-2.204 2.546-3.637 2.763l-2.982.453 2.158 2.2c1.037 1.056 1.634 2.978 1.39 4.47l-.51 3.105 2.667-1.466z"/>
</svg>
