<svg xmlns="http://www.w3.org/2000/svg" width="17" height="17" viewBox="0 0 17 17">
    <path fill="#FFDD6E" fill-rule="nonzero" d="M5.148 16.726c-1.426.782-2.717-.195-2.444-1.85l.469-2.853c.088-.535-.18-1.393-.553-1.772L.632 8.23c-1.153-1.172-.661-2.753.934-2.995l2.747-.416C4.83 4.742 5.53 4.21 5.76 3.724L6.99 1.13c.712-1.505 2.307-1.506 3.02 0l1.23 2.595c.23.487.93 1.018 1.446 1.096l2.748.416c1.594.241 2.088 1.822.934 2.995l-1.988 2.02c-.373.378-.641 1.237-.553 1.772l.47 2.852c.272 1.655-1.018 2.633-2.445 1.851L9.394 15.38c-.46-.253-1.327-.253-1.788 0l-2.458 1.346zm1.581-3.084c1.01-.553 2.532-.553 3.542 0l2.1 1.151-.4-2.438c-.193-1.172.277-2.68 1.094-3.51l1.7-1.727-2.35-.355c-1.129-.171-2.36-1.104-2.865-2.17L8.5 2.375 7.45 4.593c-.506 1.066-1.737 1.999-2.866 2.17l-2.349.355 1.7 1.727c.817.83 1.287 2.339 1.094 3.51l-.4 2.438 2.1-1.15z"/>
</svg>
