<svg xmlns="http://www.w3.org/2000/svg" width="98" height="26" viewBox="0 0 98 26">
  <defs>
    <filter id="anep-a">
      <feColorMatrix in="SourceGraphic" values="0 0 0 0 0.745098 0 0 0 0 0.843137 0 0 0 0 0.956863 0 0 0 1.000000 0"/>
    </filter>
  </defs>
  <g fill="none" fill-rule="evenodd" filter="url(#anep-a)">
    <g transform="translate(4.619)">
      <path fill="#00A3DA" d="M58.9004371,5.11233694 L56.0993993,5.11233694 C55.7944237,5.11233694 55.5468901,5.35585646 55.5468901,5.65646907 L55.5468901,14.5991117 L49.1376654,5.32497958 C49.0369939,5.19564625 48.877696,5.11233694 48.6994481,5.11233694 L48.6988559,5.11233694 L46.1672625,5.11233694 C45.8622869,5.11233694 45.6147534,5.35585646 45.6147534,5.65646907 L45.6147534,20.6882649 C45.6147534,20.9888775 45.8622869,21.232397 46.1672625,21.232397 L48.9712613,21.232397 C49.2762369,21.232397 49.5237705,20.9888775 49.5237705,20.6882649 L49.5219939,20.6882649 L49.5261392,11.292373 C49.5261392,11.292373 55.9560904,20.5938865 56.1266398,20.816433 C56.2971893,21.038397 56.6134164,21.232397 56.8970733,21.232397 L57.0409744,21.232397 L58.9004371,21.232397 C59.2060049,21.232397 59.4535385,20.9888775 59.4535385,20.6882649 L59.4535385,5.65646907 C59.4535385,5.35585646 59.2060049,5.11233694 58.9004371,5.11233694 L58.9004371,5.11233694 Z M35.4694298,4.92066727 C31.6356203,4.92066727 28.5183553,7.98796456 28.5183553,11.761352 L28.5130256,11.4409315 L28.5130256,20.354445 C28.5130256,20.9754781 28.7605592,21.2189976 29.066127,21.2189976 L31.8345946,21.2189976 C32.1401624,21.2189976 32.387696,20.9754781 32.387696,20.6748655 L32.387696,17.9180847 C32.387696,17.6174721 32.6352295,17.3739526 32.9407973,17.3739526 L37.9980623,17.3739526 C38.30363,17.3739526 38.5511636,17.6174721 38.5511636,17.9180847 L38.5511636,20.6748655 L38.5511636,20.6748655 C38.5511636,20.9754781 38.7986972,21.2189976 39.1036728,21.2189976 L41.8733248,21.2189976 C42.1783004,21.2189976 42.4258339,20.9754781 42.4258339,20.354445 L42.4258339,11.4409315 L42.4210965,11.761352 C42.4210965,7.98796456 39.3008706,4.92066727 35.4694298,4.92066727 L35.4694298,4.92066727 Z M38.5529402,14.1988775 C38.5529402,14.4989075 38.3054066,14.742427 37.9998388,14.742427 L32.9407973,14.742427 C32.6352295,14.742427 32.387696,14.4989075 32.387696,14.1988775 L32.387696,11.1449796 L32.3829585,11.1449796 C32.3829585,9.47121982 33.7674884,8.10914174 35.4694298,8.10914174 C37.1725556,8.10914174 38.5564933,9.47121982 38.5564933,11.1449796 L38.5511636,11.1449796 L38.5511636,14.1988775 L38.5529402,14.1988775 Z M74.8207546,5.11233694 L63.3667009,5.11233694 C63.0611331,5.11233694 62.8135995,5.35585646 62.8135995,5.65646907 L62.8135995,20.6882649 C62.8135995,20.9888775 63.0611331,21.232397 63.3667009,21.232397 L74.8207546,21.232397 C75.1263223,21.232397 75.3738559,20.9888775 75.3738559,20.6882649 L75.3738559,18.798367 C75.3738559,18.4977544 75.1263223,18.2542348 74.8207546,18.2542348 L74.8207546,18.2513219 L67.2715726,18.2513219 C66.9665971,18.2513219 66.7190635,18.0078024 66.7190635,17.7071898 L66.7190635,15.0232318 C66.7190635,14.7232018 66.9665971,14.4796823 67.2715726,14.4796823 L72.3548938,14.4796823 C72.6604615,14.4796823 72.9079951,14.2355802 72.9079951,13.9355502 L72.9079951,12.407436 C72.9079951,12.107406 72.6604615,11.8633039 72.3548938,11.8633039 L67.2715726,11.8633039 C66.9665971,11.8633039 66.7190635,11.6197844 66.7190635,11.3191718 L66.7190635,8.63346607 C66.7190635,8.33285345 66.9665971,8.08933393 67.2715726,8.08933393 L67.2715726,8.08816877 L74.8207546,8.08816877 L74.8207546,8.08933393 C75.1263223,8.08933393 75.3738559,7.84523183 75.3738559,7.5452018 L75.3738559,5.65646907 C75.3738559,5.35585646 75.1263223,5.11233694 74.8207546,5.11233694 L74.8207546,5.11233694 Z M85.9573968,5.11233694 L79.0004005,5.11408468 L78.9998083,5.11408468 C78.6942405,5.11408468 78.446707,5.3576042 78.446707,5.65821682 L78.446707,20.6882649 C78.446707,20.9888775 78.6942405,21.232397 78.9998083,21.232397 L78.9998083,21.2353099 L81.733337,21.2353099 L81.733337,21.232397 C82.0389048,21.232397 82.2864383,20.9888775 82.2864383,20.6882649 L82.2864383,18.2466613 C82.2864383,17.9460486 82.5333797,17.7025291 82.8389475,17.7025291 L82.8389475,17.7025291 L85.9573968,17.7025291 C89.4785324,17.7025291 92.3476716,15.1001327 92.3476716,11.4135502 C92.3476716,7.94718378 89.4785324,5.11233694 85.9573968,5.11233694 L85.9573968,5.11233694 Z M85.3320488,14.7872859 L82.8833614,14.7960246 C82.5529219,14.7960246 82.2846618,14.5321147 82.2846618,14.2070336 L82.2846618,8.70745405 C82.2846618,8.38237297 82.5529219,8.11846306 82.8833614,8.11846306 L82.8833614,8.11613273 L85.3320488,8.11613273 L85.3320488,8.10914174 C87.1790757,8.10914174 88.6814505,9.59006667 88.6814505,11.4083069 C88.6814505,13.2277123 87.1790757,14.7872859 85.3320488,14.7872859 L85.3320488,14.7872859 Z"/>
      <path fill="#F9C623" d="M10.7494713,3.61550751 C9.62787179,3.05622823 9.66932479,4.04079279 8.148,4.0640961 L9.62727961,1.96272072 L7.35565568,3.50889489 C8.07871429,1.80600601 7.08976435,1.7593994 7.9466569,0.857561562 C6.82150427,1.21934535 7.40776801,1.83222222 6.59765812,2.79872673 C6.5573895,2.84708108 6.51356777,2.89543544 6.46737729,2.94437237 C6.45375702,2.95835435 6.44191331,2.97117117 6.42829304,2.98457057 L5.96342735,0.469561562 L5.46954457,3.14303303 C4.75655311,1.43548348 4.02401954,2.09088889 3.98078999,0.857561562 C3.41169963,1.96155556 4.41308547,1.92077477 4.43736508,3.41742943 L2.30075946,1.96272072 L3.87242002,4.19634234 C2.14146154,3.48559159 2.09349451,4.45908709 1.17738339,3.61550751 C1.52321978,4.65774775 2.09527106,4.20857658 2.98058852,4.81504505 C3.01375092,4.83776577 3.04632112,4.86165165 3.08066789,4.88786787 C3.16416606,4.95078679 3.25003297,5.02360961 3.33945299,5.10924925 L0.783579976,5.56657658 L3.50052747,6.05186787 C1.76423932,6.75387988 2.43044811,7.47453453 1.17738339,7.5158979 C2.17817705,8.01517117 2.26049084,7.29043844 3.34419048,7.11042042 C4.13890354,6.43753754 5.05442247,6.07109309 6.01376313,6.07109309 C6.99086935,6.07109309 7.92296947,6.45035435 8.72834188,7.14770571 C9.81085714,7.38423423 9.973116,6.80281682 10.7494713,7.5158979 C10.3888303,6.4287988 9.78184005,6.96593994 8.82842125,6.2313033 C8.78696825,6.19926126 8.74492308,6.16488889 8.70169353,6.12643844 C8.69281074,6.11944745 8.68333578,6.11245646 8.67445299,6.10371772 C8.64602808,6.07808408 8.61701099,6.0507027 8.58799389,6.02332132 L11.1444591,5.56657658 L8.42632723,5.08012012 C10.1620232,4.37810811 9.49640659,3.65687087 10.7494713,3.61550751"/>
      <path fill="#00A3DA" d="M11.0272656 13.0130306L11.0059469 13.0130306 5.9581569 13.0130306 5.9581569 17.971391 5.9581569 19.8548805 5.9581569 19.9119736C5.99428022 19.9131387 6.00553175 19.9131387 6.0155989 19.9131387 8.78525092 19.9131387 11.0136453 16.8662318 11.0136453 13.0637153 11.0136453 13.0450727 11.0272656 13.0130306 11.0272656 13.0130306M10.0104829 14.8149586C10.0395 15.2052889 9.96073932 15.6037754 9.96843773 15.9865321 10.0181813 16.1921838 9.98916422 16.3354991 9.90981136 16.5260036L9.85177717 16.4269646 9.85177717 16.3558895C9.90981136 16.2207303 9.89500672 16.1857754 9.81624603 16.0581898L9.88138645 15.9306042C9.94593468 15.5816372 10.0252875 15.1557694 9.96843773 14.8079676 9.924616 14.7293189 9.90981136 14.7223279 9.82335226 14.7368925L9.76591026 14.77243 9.8091398 14.8289405 9.87368803 14.9565261 9.88790049 15.0270186 9.88790049 15.1697514 9.85177717 15.2827724 9.83045849 15.4965802 9.82335226 15.6742679 9.80084921 15.858364 9.79433516 15.9725502 9.7724243 16.0645982C9.84526313 16.2061658 9.84526313 16.2283039 9.80084921 16.3704541 9.8091398 16.4764841 9.83045849 16.5621237 9.86006777 16.6681538 9.88138645 16.8033129 9.8091398 16.8738054 9.6859652 16.9308985L9.57759524 16.9239075 9.5053486 16.881379C9.52785165 16.8458414 9.57759524 16.7963219 9.6285232 16.7392288 9.76591026 16.5830967 9.7149823 16.4124 9.64984188 16.2562679 9.62260134 16.2242258 9.59595299 16.1945141 9.56812027 16.1659676L9.52785165 16.2061658 9.45501282 16.30637 9.38276618 16.4345381C9.38276618 16.6040697 9.39046459 16.6401898 9.28920085 16.7747664L9.25307753 16.8318595C9.18083089 16.881379 9.13760134 16.881379 9.05824847 16.8889526L9.01501893 16.8242859 9.05824847 16.7671928 9.0653547 16.7112649 9.14411538 16.6833009C9.20984799 16.5685321 9.26788217 16.4840577 9.31821795 16.3622979L9.31051954 16.2912228 9.25959158 16.2347123C9.18734493 16.0645982 9.10147802 15.9515772 9.05824847 15.7587423L9.05055006 15.7587423C8.47553785 15.8082619 8.55607509 16.038382 8.32808364 16.0791628 8.18062943 16.1135351 7.99705189 16.1502378 7.79452442 16.1712108L7.77320574 16.3127784 7.729384 16.4694931C7.74418864 16.5900877 7.78031197 16.7036913 7.73649023 16.8172949L7.68615446 16.9169165C7.58548291 16.9169165 7.51975031 16.9239075 7.49902381 16.9099255 7.47711294 16.881379 7.54225336 16.8242859 7.60680159 16.6833009L7.62871245 16.5551327 7.62871245 16.4694931 7.59199695 16.4409465 7.55587363 16.4840577 7.54935958 16.6040697 7.55587363 16.7112649C7.51975031 16.7747664 7.49902381 16.8318595 7.43329121 16.8738054L7.37525702 16.867397C7.3184072 16.867397 7.29649634 16.8609886 7.29649634 16.8458414 7.28939011 16.8172949 7.3184072 16.7462198 7.35453053 16.7036913L7.42618498 16.6122258 7.44098962 16.5260036C7.44098962 16.3990006 7.41434127 16.3162739 7.34268681 16.2428685 7.34150244 16.2422859 7.34091026 16.2422859 7.34031807 16.2422859L7.34150244 16.2422859C7.31248535 16.2125742 7.27695421 16.1857754 7.23194811 16.1572288 7.15200305 15.9440036 7.07975641 15.823409 6.89973199 15.6806763 6.83518376 15.4756072 6.63917033 15.4464781 6.44493346 15.4464781 6.32945726 15.389385 6.3075464 15.361421 6.3075464 15.2332529L6.33597131 15.1837333 6.34366972 15.0211928C6.22819353 15.0060456 6.17726557 14.9990547 6.0979127 14.9349706L6.2210873 14.8860336 6.27912149 14.8569045 6.13403602 14.7368925C6.07659402 14.5801778 6.07659402 14.5021117 6.15594689 14.3529706 6.15594689 14.4811387 6.13403602 14.6658174 6.32175885 14.6658174 6.34366972 14.6302799 6.37979304 14.6011508 6.41591636 14.5883339 6.46625214 14.5731868 6.54560501 14.5801778 6.5953486 14.5801778L6.67588584 14.6302799C6.72562943 14.6582438 6.95065995 14.6722258 7.02172222 14.5586222 7.06554396 14.4939556 6.94236935 14.4735652 6.85650244 14.4450186 6.93585531 14.4234631 7.02942063 14.4100637 7.1087735 14.4671568 7.15200305 14.4939556 7.14430464 14.5731868 7.1377906 14.6372709L7.17391392 14.6372709C7.3184072 14.6162979 7.4048663 14.5586222 7.55587363 14.5661958 7.71457937 14.5731868 7.67134982 14.7159195 8.4447442 14.7939856 8.77577595 14.786412 8.94987851 14.6448444 9.25959158 14.6227063 9.42599573 14.6087243 9.51304701 14.6658174 9.6859652 14.6658174 9.89500672 14.6227063 9.96073932 14.5883339 10.0104829 14.8149586M5.96490781 6.13407027C3.21835104 6.16028649 1.01068315 9.23748769 1.00002381 13.0132054L5.95780159 13.0132054 5.95780159 6.14047868 5.96490781 6.13407027zM1.77401038 11.7326889L2.34546947 9.78977598 2.42778327 9.78977598 1.86046947 11.7484186 2.44021917 11.7484186 2.46449878 9.78977598 2.51424237 9.78977598 2.53911416 11.7484186 3.06201404 11.7484186 2.55451099 9.78977598 2.60425458 9.78977598 3.15557937 11.7315237C3.15557937 11.7315237 3.15913248 11.7490012 3.16150122 11.807842 3.14077473 11.8713435 2.47752686 12.5698601 1.78644628 11.8066769 1.77223382 11.7507489 1.77401038 11.7326889 1.77401038 11.7326889L1.77401038 11.7326889zM5.25191636 9.78977598L3.91298474 9.78977598 3.91298474 10.1434036 3.77145238 10.6986048 3.6228138 10.1434036 3.6228138 9.79035856 3.6228138 9.79035856 3.6228138 9.78977598 2.32000549 9.78977598 2.32000549 9.51654474C2.32000549 9.51654474 2.53674542 9.52237057 2.60484676 9.51654474 2.87902869 9.64820841 2.97081746 9.70588408 3.64117155 9.52178799 3.66663553 9.36332553 3.67788706 8.61528949 3.67788706 8.61528949L3.72466972 8.61528949C3.60978571 8.60130751 3.52095788 8.50634655 3.52095788 8.38983003 3.52095788 8.26340961 3.62459035 8.16087508 3.75368681 8.16087508 3.88278327 8.16087508 3.98582357 8.26340961 3.98582357 8.38983003 3.98582357 8.50634655 3.89758791 8.60130751 3.78270391 8.61528949L3.82000549 8.61528949C3.82000549 8.61528949 3.88633639 9.45187808 3.89048168 9.54101321L3.91298474 9.54101321 3.91298474 9.55091712C4.08886386 9.58237658 4.52352808 9.77928949 4.89364408 9.54101321L4.89660501 9.54101321 5.25191636 9.54101321 5.25191636 9.78977598zM5.7108602 11.807842C5.69131807 11.8713435 5.02688584 12.5698601 4.33639744 11.8066769 4.32218498 11.7507489 4.32336935 11.7326889 4.32336935 11.7326889L4.89601282 9.78977598 4.97773443 9.78977598 4.40982845 11.7484186 4.99017033 11.7484186 5.01504212 9.78977598 5.06360134 9.78977598 5.08847314 11.7484186 5.61137302 11.7484186 5.10446215 9.78977598 5.15361355 9.78977598 5.70493834 11.7315237C5.70493834 11.7315237 5.70967582 11.7490012 5.7108602 11.807842L5.7108602 11.807842zM3.75783211 8.49061682C3.82356471 8.49061682 3.87686142 8.4376018 3.87686142 8.37176997 3.87686142 8.3071033 3.82356471 8.25408829 3.75783211 8.25408829 3.69150733 8.25408829 3.63761844 8.3071033 3.63761844 8.37176997 3.63761844 8.4376018 3.69150733 8.49061682 3.75783211 8.49061682L3.75783211 8.49061682z"/>
      <path fill="#174489" d="M.498383394 13.0559087C.500159951 13.054161.501344322 13.0518306.503120879 13.0495003.49897558 13.051248.498383394 13.0559087.498383394 13.0559087M.531249695 13.0059814C.523551282 13.017633.512299756 13.0304498.5063779 13.0421015L.5063779 13.0461796C.514668498 13.0339453.522959096 13.0240414.531249695 13.0059814"/>
    </g>
    <polygon fill="#174489" points="4.99 11.961 5.016 11.913 5.018 11.904"/>
    <g fill="#00A3DA" transform="translate(0 5.389)">
      <path d="M9.66026787 10.394184C9.64395556 10.4736588 9.62939099 10.5572545 9.5856973 10.6108264 9.59327087 10.6620435 9.62531291 10.5778591 9.65094655 10.5778591 9.61191351 10.6802932 9.59967928 10.8156947 9.61832192 10.9457979 9.63521682 10.9352013 9.63055616 10.9004678 9.63929489 10.8810407 9.6759976 11.0747237 9.78377538 11.196585 9.88456216 11.3243334 9.9032048 11.3096158 9.85951111 11.2648745 9.8531027 11.2377942 9.90553514 11.3107932 9.98476637 11.3584781 10.0674931 11.3996873 10.0552589 11.350825 9.95855015 11.2943096 9.93874234 11.2160122 9.96670631 11.1930528 9.99583544 11.2595761 10.0570066 11.2377942 9.85718078 11.0811994 10.0337033 10.7356312 10.0138955 10.4695379 10.0237994 10.4448124 10.0465201 10.4942634 10.0465201 10.5142792 10.0645802 10.4406915 10.0109826 10.3470878 9.98243604 10.2870402 9.98593153 10.2493633 10.0237994 10.3152979 10.0138955 10.2652582 9.89446607 10.1304454 9.84611171 9.87141648 9.65094655 9.84257007 9.5822018 9.83256214 9.51928288 9.89202106 9.44704264 9.88554533 9.38703664 9.88142442 9.33169129 9.80430444 9.25420781 9.75661956 9.13536096 9.68244309 8.96524685 9.61003273 8.76192553 9.658895 8.61336697 9.69421713 8.47704264 9.75426475 8.28071231 9.7672162 8.04301862 9.78311116 7.82979339 9.73248277 7.72318078 9.61533105 7.6590967 9.54468679 7.6288024 9.44519613 7.57345706 9.36689874 7.40101261 9.12082124 7.02291652 8.74817278 6.62093453 8.95598464 6.56733694 8.91948511 6.51606967 8.84766345 6.46946306 8.862381 6.45548108 8.90359015 6.48577538 8.9447993 6.48577538 8.9447993 6.48577538 8.9447993 6.43043003 8.91477549 6.39081441 8.93832358 6.39489249 8.99601639 6.4950967 9.0272176 6.50325285 9.09609575 6.50907868 9.15261116 6.46072432 9.20147344 6.45023784 9.27035159 6.44615976 9.29272227 6.46130691 9.31921387 6.46072432 9.34570546 6.45431592 9.57765411 6.33605165 9.7683936 6.43975135 9.90791601 6.67861021 10.0103502 6.67161922 9.6847979 6.80328288 9.59413777 6.83241201 9.5747106 6.8662018 9.59943609 6.89940901 9.55057381 7.06194955 9.78782077 6.86794955 10.3152979 7.07068829 10.5242872 7.03456817 10.5961088 6.96873634 10.6379067 6.9098955 10.6979543 6.87144505 10.7373973 6.76191952 10.8133399 6.7491027 10.8592587 6.73162523 10.9287255 6.78988348 11.0352806 6.81318679 11.119465 6.83998559 11.2095365 6.85804565 11.285479 6.87843604 11.378494 6.9932048 11.4126387 7.00310871 11.5545159 7.16681441 11.5403871 7.19769129 11.4544366 7.13885045 11.3690747 7.12312072 11.2919548 7.08933093 11.2996079 7.05728889 11.3113819 7.02699459 11.3243334 6.99553514 11.1948189 6.85979339 11.1006266 6.89940901 10.9569832 6.93494655 10.8274688 7.17147508 10.8657344 7.28507868 10.7945014 7.29381742 10.9104758 7.41208168 10.9981924 7.42373333 11.1406583 7.42606366 11.1683273 7.40858619 11.2083591 7.41324685 11.2377942 7.43363724 11.3714296 7.53617177 11.4815169 7.51985946 11.6163296 7.51228589 11.6793208 7.44994955 11.7246508 7.48781742 11.7899968 7.39635195 11.8200206 7.36955315 11.9153903 7.33809369 12.0060505 7.40276036 12.054324 7.52102462 12.0578563 7.59501261 12.0166471 7.63113273 11.9165677 7.6020036 11.8158997 7.68006967 11.7570295 7.5787003 11.467388 7.6188985 11.1418357 7.62763724 10.7945014 7.95504865 10.8121625 8.21837598 10.7644776 8.40888048 10.643205 8.44907868 10.8221704 8.72755315 10.8557265 8.70774535 11.0435225 8.70191952 11.1094571 8.50267628 11.3031401 8.45140901 11.3573007 8.41237598 11.3973324 8.35295255 11.427945 8.32265826 11.4756298 8.30518078 11.617507 8.26847808 11.6857965 8.28071231 11.8435687 8.4048024 11.8871326 8.48345105 11.799416 8.52597958 11.7246508 8.52306667 11.6693128 8.48461622 11.6510631 8.4618955 11.6163296 8.47121682 11.578064 8.52423183 11.5868945 8.53704865 11.5509837 8.53821381 11.3249221 8.87203363 11.2937209 8.93262222 11.1300617 8.98097658 11.0017246 8.87378138 10.9540397 8.86912072 10.8056868 9.03632192 10.8339445 9.12603964 11.0352806 9.29615375 11.0982718 9.40334895 11.2425038 9.55423784 11.5138955 9.51054414 11.7676261 9.495397 11.8594636 9.37014174 11.9348175 9.361403 12.0496144 9.39402763 12.1290892 9.53676036 12.1226135 9.60725285 12.081993 9.66667628 11.9636639 9.60200961 11.8512218 9.68182342 11.7570295 9.58453213 11.538621 9.62065225 11.2913661 9.5856973 11.0435225 9.57870631 10.9940715 9.49248408 10.9540397 9.45752913 10.9134193 9.22624384 10.6437937 9.51287447 10.3641602 9.44704264 10.0056406 9.51986547 10.0286 9.56064625 10.0845267 9.5856973 10.156937 9.6090006 10.1587031 9.59094054 10.1180827 9.59618378 10.1021877 9.66434595 10.1692998 9.6457033 10.3653376 9.59618378 10.4383366 9.61366126 10.461296 9.63463423 10.3971275 9.66026787 10.394184M15.5808216 7.69686849C15.580239 7.6456514 15.5796565 7.59443431 15.5779087 7.54203982 15.4048817 7.54086242 15.2487495 7.44490397 15.0757225 7.44490397 14.9009477 7.44490397 14.744233 7.54203982 14.5700408 7.54203982 14.3946835 7.54203982 14.2385514 7.44490397 14.0637766 7.44490397 13.8890018 7.44490397 13.7322871 7.54203982 13.5575123 7.54203982 13.3833201 7.54203982 13.2266054 7.44490397 13.051248 7.44490397 12.8764733 7.44490397 12.7209237 7.54203982 12.5461489 7.54203982 12.370209 7.54203982 12.2146595 7.44490397 12.0398847 7.44490397 11.8651099 7.44490397 11.7083952 7.54203982 11.534203 7.54203982 11.3600108 7.54203982 11.2027135 7.44490397 11.0285213 7.44490397 10.8537465 7.44490397 10.6970318 7.54203982 10.5222571 7.54203982L10.5222571 7.69686849C10.6970318 7.69686849 10.8537465 7.59914393 11.0285213 7.59914393 11.2027135 7.59914393 11.3600108 7.69686849 11.534203 7.69686849 11.7083952 7.69686849 11.8651099 7.59914393 12.0398847 7.59914393 12.2146595 7.59914393 12.370209 7.69686849 12.5461489 7.69686849 12.7209237 7.69686849 12.8764733 7.59914393 13.051248 7.59914393 13.2266054 7.59914393 13.3833201 7.69686849 13.5575123 7.69686849 13.7322871 7.69686849 13.8890018 7.59914393 14.0637766 7.59914393 14.2385514 7.59914393 14.3946835 7.69686849 14.5700408 7.69686849 14.744233 7.69686849 14.9009477 7.59914393 15.0757225 7.59914393 15.2499147 7.59914393 15.4060468 7.69686849 15.5808216 7.69686849L15.5808216 7.69686849zM15.0757225 7.2900753C15.2464192 7.2900753 15.3996384 7.38485635 15.5715003 7.38779986 15.5680048 7.33599407 15.5639267 7.28477698 15.5604312 7.2335599 15.3943952 7.22708417 15.2435063 7.13583534 15.0757225 7.13583534 14.9009477 7.13583534 14.744233 7.2341486 14.5700408 7.2341486 14.3946835 7.2341486 14.2385514 7.13583534 14.0637766 7.13583534 13.8890018 7.13583534 13.7322871 7.2341486 13.5575123 7.2341486 13.3833201 7.2341486 13.2266054 7.13583534 13.051248 7.13583534 12.8764733 7.13583534 12.7209237 7.2341486 12.5461489 7.2341486 12.370209 7.2341486 12.2146595 7.13583534 12.0398847 7.13583534 11.8651099 7.13583534 11.7083952 7.2341486 11.534203 7.2341486 11.3600108 7.2341486 11.2027135 7.13583534 11.0285213 7.13583534 10.8537465 7.13583534 10.6970318 7.2341486 10.5222571 7.2341486L10.5222571 7.38897726C10.6970318 7.38897726 10.8537465 7.2900753 11.0285213 7.2900753 11.2027135 7.2900753 11.3600108 7.38897726 11.534203 7.38897726 11.7083952 7.38897726 11.8651099 7.2900753 12.0398847 7.2900753 12.2146595 7.2900753 12.370209 7.38897726 12.5461489 7.38897726 12.7209237 7.38897726 12.8764733 7.2900753 13.051248 7.2900753 13.2266054 7.2900753 13.3833201 7.38897726 13.5575123 7.38897726 13.7322871 7.38897726 13.8890018 7.2900753 14.0637766 7.2900753 14.2385514 7.2900753 14.3946835 7.38897726 14.5700408 7.38897726 14.744233 7.38897726 14.9009477 7.2900753 15.0757225 7.2900753L15.0757225 7.2900753zM15.0757225 6.98100668C15.2382631 6.98100668 15.386239 7.06813459 15.5470318 7.07873123 15.5417886 7.02692544 15.5359628 6.97453095 15.5295544 6.92272516 15.37517 6.90683021 15.2324372 6.82735542 15.0757225 6.82735542 14.9009477 6.82735542 14.744233 6.92566867 14.5700408 6.92566867 14.3946835 6.92566867 14.2385514 6.82735542 14.0637766 6.82735542 13.8890018 6.82735542 13.7322871 6.92566867 13.5575123 6.92566867 13.3833201 6.92566867 13.2266054 6.82735542 13.051248 6.82735542 12.8764733 6.82735542 12.7209237 6.92566867 12.5461489 6.92566867 12.370209 6.92566867 12.2146595 6.82735542 12.0398847 6.82735542 11.8651099 6.82735542 11.7083952 6.92566867 11.534203 6.92566867 11.3600108 6.92566867 11.2027135 6.82735542 11.0285213 6.82735542 10.8537465 6.82735542 10.6970318 6.92566867 10.5222571 6.92566867L10.5222571 7.08049734C10.6970318 7.08049734 10.8537465 6.98100668 11.0285213 6.98100668 11.2027135 6.98100668 11.3600108 7.08049734 11.534203 7.08049734 11.7083952 7.08049734 11.8651099 6.98100668 12.0398847 6.98100668 12.2146595 6.98100668 12.370209 7.08049734 12.5461489 7.08049734 12.7209237 7.08049734 12.8764733 6.98100668 13.051248 6.98100668 13.2266054 6.98100668 13.3833201 7.08049734 13.5575123 7.08049734 13.7322871 7.08049734 13.8890018 6.98100668 14.0637766 6.98100668 14.2385514 6.98100668 14.3946835 7.08049734 14.5700408 7.08049734 14.744233 7.08049734 14.9009477 6.98100668 15.0757225 6.98100668L15.0757225 6.98100668zM15.0757225 6.67311545C15.2254462 6.67311545 15.3617706 6.74552582 15.5079988 6.76613039 15.4998426 6.7131472 15.4916865 6.66075271 15.4823652 6.60776951 15.3466234 6.58304402 15.2167075 6.51946419 15.0757225 6.51946419 14.9009477 6.51946419 14.744233 6.61777745 14.5700408 6.61777745 14.3946835 6.61777745 14.2385514 6.51946419 14.0637766 6.51946419 13.8890018 6.51946419 13.7322871 6.61777745 13.5575123 6.61777745 13.3833201 6.61777745 13.2266054 6.51946419 13.051248 6.51946419 12.8764733 6.51946419 12.7209237 6.61777745 12.5461489 6.61777745 12.370209 6.61777745 12.2146595 6.51946419 12.0398847 6.51946419 11.8651099 6.51946419 11.7083952 6.61777745 11.534203 6.61777745 11.3600108 6.61777745 11.2027135 6.51946419 11.0285213 6.51946419 10.8537465 6.51946419 10.6970318 6.61777745 10.5222571 6.61777745L10.5222571 6.77201741C10.6970318 6.77201741 10.8537465 6.67311545 11.0285213 6.67311545 11.2027135 6.67311545 11.3600108 6.77201741 11.534203 6.77201741 11.7083952 6.77201741 11.8651099 6.67311545 12.0398847 6.67311545 12.2146595 6.67311545 12.370209 6.77201741 12.5461489 6.77201741 12.7209237 6.77201741 12.8764733 6.67311545 13.051248 6.67311545 13.2266054 6.67311545 13.3833201 6.77201741 13.5575123 6.77201741 13.7322871 6.77201741 13.8890018 6.67311545 14.0637766 6.67311545 14.2385514 6.67311545 14.3946835 6.77201741 14.5700408 6.77201741 14.744233 6.77201741 14.9009477 6.67311545 15.0757225 6.67311545L15.0757225 6.67311545zM15.0757225 6.36463553C15.2068036 6.36463553 15.3268156 6.41938483 15.453236 6.44764253 15.4415844 6.39230453 15.4305153 6.33873263 15.4176985 6.28457204 15.3046775 6.25513693 15.1939868 6.21039556 15.0757225 6.21039556 14.9638667 6.21039556 14.8590018 6.24924991 14.7529718 6.27868501 14.4564372 5.98256783 13.6769417 5.20253749 13.5668336 5.07007951 13.4514823 4.9317345 13.3384613 4.93997633 13.3384613 4.93997633 13.3384613 4.93997633 13.3297225 4.93997633 13.315158 4.93997633L13.315158 4.64739136 13.3926414 4.64739136 13.3926414 4.50080453 13.2394222 4.50080453 13.2394222 4.54966681 12.7762691 4.54966681 12.7762691 4.50080453 12.6224673 4.50080453 12.6224673 4.64739136 12.6993682 4.64739136 12.6993682 4.93997633 12.7209237 4.93997633C12.719176 4.93997633 12.7168456 4.93997633 12.7156805 4.93997633 12.6160589 4.94350854 12.4838126 5.06242638 12.4838126 5.06242638L11.305248 6.26573357C11.2143652 6.23924197 11.1240649 6.21039556 11.0285213 6.21039556 10.8537465 6.21039556 10.6970318 6.30870882 10.5222571 6.30870882L10.5222571 6.46353749C10.6970318 6.46353749 10.8537465 6.36463553 11.0285213 6.36463553 11.2027135 6.36463553 11.3600108 6.46353749 11.534203 6.46353749 11.7083952 6.46353749 11.8651099 6.36463553 12.0398847 6.36463553 12.2146595 6.36463553 12.370209 6.46353749 12.5461489 6.46353749 12.7209237 6.46353749 12.8764733 6.36463553 13.051248 6.36463553 13.2266054 6.36463553 13.3833201 6.46353749 13.5575123 6.46353749 13.7322871 6.46353749 13.8890018 6.36463553 14.0637766 6.36463553 14.2385514 6.36463553 14.3946835 6.46353749 14.5700408 6.46353749 14.744233 6.46353749 14.9009477 6.36463553 15.0757225 6.36463553L15.0757225 6.36463553zM13.0850378 4.93644412L12.9300709 4.93644412 12.9300709 4.7933895C12.9300709 4.7398176 12.9650258 4.69625364 13.0075544 4.69625364 13.0500829 4.69625364 13.0850378 4.7398176 13.0850378 4.7933895L13.0850378 4.93644412zM13.1695123 4.49668361C13.1695123 4.47019202 13.1537826 4.44782134 13.1339748 4.44782134L13.079212 4.44782134 12.966191 4.44782134 12.8962811 4.44782134C12.8770559 4.44782134 12.8613261 4.47019202 12.8613261 4.49668361 12.8613261 4.52317521 12.8770559 4.58793245 12.8962811 4.58793245L13.1339748 4.59617428C13.1537826 4.59617428 13.1695123 4.52317521 13.1695123 4.49668361L13.1695123 4.49668361zM13.0797946 4.44782134C13.0961069 4.41367661 13.1060108 4.40543478 13.1060108 4.3842415 13.1060108 4.34185495 13.0646474 4.3018232 13.0157105 4.3018232 12.9656084 4.3018232 12.9259928 4.34303235 12.9259928 4.38659631 12.9259928 4.40778959 12.9358967 4.41367661 12.9516264 4.44782134L13.0797946 4.44782134z"/>
      <path d="M18.5385351,6.25996429 C18.604367,6.08335364 18.5670817,5.89908987 18.4505652,5.85729202 C18.3346312,5.80666363 18.1825772,5.91263002 18.1085892,6.08982937 C18.0503309,6.25289986 18.0794601,6.42244608 18.1738384,6.47896148 L18.1965592,6.43716363 L18.2472438,6.3724064 L18.2915201,6.39418838 L18.2332619,6.50721919 C18.3422048,6.52134804 18.4732859,6.41597035 18.5385351,6.25996429 L18.5385351,6.25996429 Z M18.2548174,8.74428735 L18.2332619,8.63066783 L18.2332619,8.56002358 L18.2548174,8.46053291 L18.3200667,8.32630882 L18.3853159,8.17736718 L18.4587213,7.99369211 L18.5239706,7.77410621 L18.5967934,7.56806046 L18.6614601,7.31491853 L18.742439,7.0034951 L18.8006973,6.70561181 L18.8298264,6.45070378 L18.8298264,6.27409314 L18.8659465,5.98445168 L18.8805111,5.77899463 L18.6766072,6.10513562 L18.5606733,6.35239052 L18.4505652,6.5643233 L18.3491958,6.79803805 L18.2979285,6.94639099 L18.2548174,7.08767951 L18.2606432,7.19835551 L18.2472438,6.99643067 L18.1464571,6.79450584 L18.1825772,6.85455345 L18.16743,6.71326494 L18.2251057,6.51546102 L18.2909375,6.39359967 L18.2472438,6.3729951 L18.1965592,6.43716363 L18.1447093,6.55725887 L18.1021808,6.67735411 L18.1429616,6.78626401 L18.0439225,6.55725887 L17.9419706,6.38005952 L17.9233279,6.35121312 L17.9338144,6.36651937 L17.9338144,6.30941527 L18.0287754,6.09689379 C18.5461087,5.24092087 18.9177964,4.60394514 18.8012799,3.59196615 C18.6317483,4.03113796 18.3730817,4.43910854 18.1808294,4.87415943 C18.082373,4.85237745 17.9606132,4.88122386 17.8609916,4.96364216 C17.8021508,5.01485924 17.765448,5.07608427 17.7421447,5.13730929 C17.8009856,4.78585411 17.8807994,4.44146335 17.9198324,4.08765336 C17.9833339,3.45950817 17.8860426,2.96499837 17.6792258,2.3709979 L17.6786432,2.35333683 L17.6786432,2.36923179 C17.6734,2.35392554 17.6704871,2.34038539 17.6646613,2.32566783 C17.5481447,2.9196683 17.3296763,3.89632516 17.3879345,4.04526681 L17.4164811,4.14416877 L17.4164811,4.16477334 L17.359388,4.09471779 C17.1205291,3.53957166 16.8111778,3.02033637 16.5781447,2.45930322 C16.5874661,2.43752124 16.5962048,2.41515056 16.6066913,2.39336858 C16.8851658,1.80702124 16.9661447,1.47558193 16.8921568,0.824477358 L16.858367,0.319370915 C16.7039826,0.812114613 16.4517243,1.25893954 16.4453159,1.78877148 C16.4418204,2.06192927 16.4715321,2.33214356 16.4604631,2.59764823 C16.4260907,2.32036951 16.4115261,2.0136557 16.3398685,1.74815103 C16.2041267,1.26659267 15.8586553,1.0004993 15.5353219,0.645511905 C15.6046492,0.952225724 15.6821327,1.1924162 15.8108835,1.47852544 C15.9600246,1.79112628 16.1627634,2.05545355 16.2973399,2.3709979 C16.3515201,2.48814963 16.3765712,2.60471265 16.4150216,2.73128361 C16.2117003,2.35745775 15.9378865,1.90945542 15.5318264,1.72695775 C15.2789856,1.61510434 15.0209015,1.49677521 14.7698084,1.37844608 C14.925358,1.58272572 15.0803249,1.78641667 15.2446132,1.98009967 C15.5120186,2.28681349 15.8137964,2.27916036 15.8982709,2.32743394 C16.0532378,2.42044888 16.1825712,2.5358345 16.3241387,2.65357493 C16.368415,2.781912 16.3590937,2.90377334 16.435412,3.01150584 L16.5029916,3.08156139 L16.4994961,3.1669232 L16.4925051,3.31056653 C16.4575502,3.2770105 16.4225952,3.24404318 16.3876402,3.21048716 C16.4418204,3.09745635 16.3981267,2.94498249 16.2711237,2.83312908 C16.1254781,2.71244514 15.9285652,2.69831629 15.8336042,2.80487138 L15.7974841,2.85373366 C15.7532078,2.96735317 15.7974841,3.11629482 15.9215742,3.2216725 C16.0666372,3.34942087 16.2711237,3.36354972 16.3655021,3.25758333 C16.3666673,3.25581723 16.3666673,3.25405112 16.3678324,3.25228501 L16.5128955,3.40652498 L16.5426072,3.53486204 L16.6591237,3.87513189 L16.6800967,3.99581583 L16.477358,3.80389893 L16.2006312,3.58490173 L15.9821628,3.45008894 L15.6098925,3.18811648 L15.9093399,3.67673926 L16.1720847,4.07941153 L16.2006312,4.12297549 L16.0841147,4.10119351 L15.5522168,3.92399416 L14.9981808,3.76210107 C15.6256222,4.4273345 16.2082048,4.79468464 17.1181988,5.07785037 C17.1764571,5.1131725 17.2352979,5.14849463 17.2859826,5.19205859 L17.4823129,5.37455626 L17.5481447,5.39692694 L17.5335802,5.33982283 L17.5260066,5.32510528 L17.4898865,5.31921825 L17.4310456,5.22679202 L17.3739526,5.12730135 L17.3221027,5.03546382 L17.271418,4.97894841 L17.3704571,5.04017344 L17.3768655,5.04723786 L17.4677483,5.16968791 L17.5335802,5.33982283 L17.5551357,5.42459594 L17.6279586,5.64418184 L17.5120246,5.59473086 L17.3442408,5.54527988 L17.37337,5.5511669 C17.3512318,5.43166036 17.2055862,5.34041153 17.0378024,5.34041153 C16.8560366,5.34041153 16.7028174,5.45285364 16.7028174,5.59473086 C16.7028174,5.73543067 16.8560366,5.85729202 17.0378024,5.85729202 C17.2189856,5.85729202 17.3623009,5.74543861 17.3797784,5.61239192 L17.4310456,5.62946429 L17.5702829,5.6871571 L17.6867994,5.79312348 L17.7951598,6.01859641 L17.8172979,6.1534092 L17.8172979,6.1828443 L17.7811778,6.12515149 L17.6722348,5.9338233 L17.5918384,5.75073693 L17.5557183,5.9061543 L17.5691177,6.03390266 L17.5918384,6.23170658 L17.620385,6.40890593 L17.6792258,6.61377428 L17.7450577,6.83336018 L17.8009856,7.09356653 L17.7526312,6.88281116 L17.6425231,6.71326494 C17.4531838,6.4295105 17.2055862,6.21051331 16.9946913,5.94147642 C17.1257724,6.39418838 17.2207333,6.8115782 17.3949255,7.25075 L17.4426973,7.38379669 L17.4316282,7.37143394 C17.1257724,7.0311641 16.8851658,6.72032937 16.5501808,6.43716363 C16.7034,6.93932656 16.9137123,7.39203852 17.1764571,7.77410621 L17.3151117,7.97191013 L17.3372498,7.99369211 L17.3372498,7.99369211 L17.1549015,7.92245915 L16.805352,7.73230836 L16.3899706,7.51978688 L16.0905231,7.42736064 L16.2151958,7.63988212 L16.3532679,7.83062162 L16.4843489,7.97956326 L16.6521327,8.1279162 L16.7907874,8.24153571 L16.9719706,8.31159127 L17.1764571,8.43227521 L17.4164811,8.5105726 L17.4858084,8.56296709 L17.9140066,8.91089006 L17.9268234,8.92796242 L17.9699345,9.14754832 L17.9891598,9.13165336 L17.9705171,9.14754832 L17.9262408,9.24645028 L17.9198324,9.33181209 L17.9198324,9.45838305 L17.9198324,9.55787372 L17.8831297,9.71152498 L17.8831297,9.70622666 L17.8679826,9.70622666 L17.8540006,9.62910668 L17.8242889,9.52961601 L17.7811778,9.39539192 L17.708355,9.27470798 L17.6425231,9.14695962 L17.5481447,8.99801797 L17.4310456,8.85731816 L17.3652138,8.77902077 L17.2492799,8.64479669 L17.1181988,8.53235458 L16.9719706,8.45346849 L16.8560366,8.36928408 L16.6952438,8.24860014 L16.5863009,8.16323833 L16.4627934,8.06433637 L16.3456943,7.96602311 L16.2006312,7.80236391 L16.2227694,7.88772572 L16.2950096,8.00840966 L16.3392859,8.11378735 L16.4179345,8.25566457 L16.5577544,8.52411275 L16.6445592,8.67364309 L16.7546673,8.82199603 L16.8560366,8.9491557 L16.9579886,9.08396849 L17.0814961,9.23938585 L17.1840306,9.3877388 L17.2929736,9.50842274 L17.4100727,9.62910668 L17.5265892,9.77804832 L17.6570877,9.89755486 L17.7736042,10.0323676 L17.7666132,10.1730675 L17.7450577,10.3502668 L17.7304931,10.4632976 L17.7304931,10.4638863 L17.7304931,10.4491688 L17.701364,10.3426137 L17.6722348,10.2231071 L17.5988294,10.0747542 L17.4823129,9.89755486 L17.37337,9.74154879 L17.2352979,9.58613142 L17.1257724,9.48016503 L17.038385,9.40186765 L16.9061387,9.31061881 L16.7546673,9.1964106 L16.6445592,9.13400817 L16.4697844,9.04158193 L16.3602589,8.98506653 L16.2297604,8.89970472 L16.0986793,8.77902077 L16.0252739,8.73663422 L16.0911057,8.83671359 L16.1569375,8.96976027 L16.2658805,9.1693303 L16.3678324,9.35182796 L16.4994961,9.50842274 L16.6160126,9.65618697 L16.7971958,9.8263219 L16.9218685,9.92581256 L17.1106252,10.0671011 L17.2999646,10.1730675 L17.3588054,10.2160427 L17.5399886,10.3296622 L17.613394,10.3997178 L17.6867994,10.5975217 L17.7281628,10.470362 L17.6792258,10.6263681 L17.6495141,10.7252701 L17.5772739,10.8883406 L17.5405712,10.7970917 L17.4974601,10.7117299 L17.4461928,10.6340212 L17.4392018,10.5698527 L17.4392018,10.5698527 L17.4456102,10.6122393 C17.4823129,10.513926 17.4456102,10.3714601 17.3512318,10.2654937 C17.2271417,10.1236165 17.052367,10.0882944 16.9509976,10.187785 C16.8560366,10.2872757 16.8775922,10.4774265 16.9941087,10.6122393 C17.1181988,10.7535278 17.2999646,10.7888499 17.3949255,10.6905366 C17.4019165,10.6822948 17.4019165,10.6822948 17.4094901,10.6758191 L17.4094901,10.6693434 L17.4100727,10.6693434 L17.4607574,10.7405763 L17.5038685,10.8453653 L17.5405712,10.9660493 L17.518433,11.1573775 L17.4607574,11.2133042 L17.4164811,11.2845371 L17.4019165,11.4334788 L17.3512318,11.5465096 L17.2207333,11.8220222 L17.0238204,12.2188074 L16.9946913,12.2470651 L17.052367,12.0351324 L17.0884871,11.8155465 L17.0884871,11.5959606 L17.0884871,11.3693102 L17.0745051,11.1573775 L17.0459586,10.9454447 L16.9655622,10.6905366 L16.8781748,10.470362 L16.805352,10.2513648 L16.805352,10.4780152 L16.7907874,10.6693434 L16.7470937,10.9595735 L16.6888354,11.2562794 L16.6521327,11.4970586 L16.6305772,11.6342262 L16.6008655,11.504123 L16.5641628,11.3557701 L16.4627934,11.0514111 L16.3602589,10.7187944 L16.2513159,10.3714601 L16.1720847,10.0953588 L16.1569375,10.6822948 L16.1347994,11.1497243 L16.1347994,11.5606384 L16.142373,11.9326982 L16.1347994,11.7937645 L16.0911057,11.7443135 C15.8580727,11.4187612 15.6605772,10.9807668 15.5376523,10.612828 L15.5155141,10.7758985 C15.5236703,11.2209573 15.5376523,11.6389358 15.6465952,12.0769302 C15.7415562,12.4660623 15.9017664,12.7633569 16.1924751,13.0465226 L16.280445,13.2166576 L16.280445,13.3508817 L16.2588895,13.5068877 L16.1645111,13.5704676 L16.1202348,13.626983 L16.0911057,13.7476669 L16.0765411,13.5781207 L16.040421,13.4921702 L16.0037183,13.4144615 L15.9973099,13.4050423 C16.0619766,13.3055516 16.0468294,13.1377715 15.9378865,13.0047248 C15.814379,12.8416543 15.6180486,12.7704213 15.4939586,12.8557831 C15.377442,12.941145 15.377442,13.1460133 15.5015321,13.3155595 C15.6256222,13.47863 15.8289435,13.5422099 15.9460426,13.456848 L15.9530336,13.456848 L15.9157483,13.4073971 L15.9017664,13.3585348 L15.9017664,13.3585348 L15.9157483,13.4073971 L15.9815802,13.4921702 L16.0112919,13.5987253 L16.0252739,13.7400138 L15.9891538,13.8606977 L15.9378865,14.0155264 L15.8650637,14.0520259 L15.8528294,14.0950012 L15.8877844,13.9666641 L15.9163309,13.782989 L15.9303129,13.5916608 C15.7409736,13.9178018 15.5230877,14.158581 15.2824811,14.4552869 L15.1735381,14.6248331 L15.130427,14.5759708 C15.2906372,14.0237682 15.253352,13.4851057 15.2970456,12.9270161 C15.1001327,13.3079064 14.9038024,13.6834984 14.7511658,14.0808723 L14.6847514,14.235701 L14.6783429,14.2421767 L14.6777604,14.2421767 L14.7004811,14.0590903 C14.7226192,13.7400138 14.7004811,13.4285903 14.7004811,13.1183443 L14.7068895,12.8487187 L14.6346492,13.0618289 C14.4453099,13.4709769 14.2332498,13.8330287 14.1394541,14.2774988 L14.1318805,14.4052472 L14.015364,14.5471244 L13.8190336,14.7802505 L13.6291117,15.0069008 L13.6151297,15.0345698 L13.6151297,14.8868056 C13.694361,14.4552869 13.7386372,14.0308326 13.7316462,13.5916608 C13.5056042,14.1014769 13.1921748,14.5612533 13.0756583,15.099327 L13.0541027,15.2688732 L13.024391,15.5732323 L13.0028354,15.7710362 L12.9999225,15.7898746 L13.0028354,15.7710362 L13.0098264,15.6721342 L13.0098264,15.5802967 L13.0028354,15.4819834 C12.9305952,15.0004251 12.7115441,14.6890016 12.6899886,14.0308326 C12.5658985,14.468827 12.5291958,14.8656123 12.5513339,15.3118485 C12.5798805,15.7934069 12.7552378,16.0542019 12.7261087,16.23199 L12.6870757,16.5098574 L12.675424,16.514567 L12.4790937,16.6493798 L12.1872198,16.7765394 L12.0491477,16.8412967 L11.8836943,16.8819171 L11.9541868,16.8613126 L12.0637123,16.769475 C12.2303309,16.641138 12.34743,16.5428247 12.4790937,16.3732785 C12.5804631,16.2384657 12.5583249,15.7074563 12.4056883,15.60149 C12.2821808,15.5096524 12.107406,15.3459932 12.019436,15.2052934 C11.9827333,15.1493667 11.9541868,15.1493667 11.881364,15.1629069 C11.786403,15.1841001 11.2906252,15.3189129 11.0506012,15.3824928 C10.9847694,15.4042747 10.9416583,15.4395969 10.9346673,15.4890479 C10.8542709,15.8775913 10.7674661,16.259659 10.6655141,16.6064045 L10.6136643,16.7906683 L10.6136643,16.641138 C10.5996823,16.2525945 10.5332679,15.9417598 10.2355682,15.6374008 C10.0829315,15.502588 9.98797057,15.2906552 9.92272132,15.198229 C9.80562222,15.0286828 9.73221682,14.9291921 9.5288955,14.9009344 C9.37567628,14.9150633 9.39082342,14.9227164 9.28828889,15.0422229 C9.13506967,15.1564311 8.9969976,15.2123578 8.80765826,15.24768 C8.7494,15.2553331 8.74182643,15.2906552 8.7494,15.3330418 C8.77153814,15.6091431 8.73541802,16.0977659 8.77153814,16.2243368 C8.7861027,16.2955698 9.03311772,16.5298732 9.17876336,16.6352509 L9.26615075,16.747693 L9.26615075,16.7482817 L9.25915976,16.7406286 L9.21604865,16.7406286 C9.02670931,16.6069932 8.79309369,16.5080913 8.58860721,16.3868186 L8.58860721,16.287328 L8.62530991,16.1395637 L8.65443904,15.9629531 L8.63929189,15.8434465 L8.6625952,15.7357141 L8.65443904,15.6226832 L8.65443904,15.4890479 L8.65443904,15.3330418 L8.63929189,15.1841001 L8.62530991,15.0851982 L8.61132793,14.9568611 L8.56705165,14.9568611 L8.56064324,14.8868056 L8.5018024,14.7378639 L8.43597057,14.6395507 L8.38528589,14.6036398 L8.32644505,14.4546982 L8.2175021,14.4340936 L8.13768829,14.285152 L8.09341201,14.2145077 L7.98446907,14.1438634 L7.96233093,14.0443728 L7.82425886,13.9378177 L7.74444505,13.7682715 L7.63491952,13.6122654 L7.50383844,13.4356548 L7.53995856,13.6699582 L7.53296757,13.8606977 L7.51199459,14.0308326 L7.49626486,14.1373877 C7.50383844,14.1438634 7.51199459,14.1503392 7.51199459,14.1503392 L7.51199459,14.2286366 L7.51199459,14.4764802 L7.4950997,14.4758915 L7.4950997,14.3981828 L7.4950997,14.2286366 L7.4950997,14.1509279 L7.4950997,14.1373877 L7.4950997,14.1156057 L7.48869129,14.10913 L7.46014474,14.0726305 L7.41645105,13.9666641 L7.37974835,13.8883667 L7.32906366,13.8253756 L7.24924985,13.7329493 L7.24866727,13.7400138 L7.21953814,13.7052803 L7.15487147,13.6275717 L7.12457718,13.5351454 L7.01621682,13.5068877 L6.93582042,13.3862038 L6.88047508,13.3655992 L6.85425886,13.528081 L6.85425886,13.6770226 L6.84435495,13.8253756 L6.85367628,13.9378177 L6.88397057,14.0655661 L6.79658318,14.0808723 L6.81872132,14.18625 L6.81872132,14.3699251 L6.8193039,14.490609 L6.89853514,14.6748728 L6.93232492,14.8302901 L6.94747207,14.9291921 L7.03660721,15.0781338 L7.07330991,15.1564311 L7.1974,15.4819834 L7.1974,15.4890479 L7.10302162,15.4460726 L6.98650511,15.3618882 L6.84085946,15.2765264 L6.75347207,15.24768 L6.67132793,15.2247206 L6.63054715,15.1841001 L6.52043904,15.0139652 L6.45518979,14.9509741 L6.38353213,14.9162407 L6.40392252,14.7961454 L6.49072733,14.6572117 L6.60316577,14.4505773 L6.64045105,14.2928051 L6.64045105,14.285152 L6.67598859,14.2704344 L6.67598859,14.1721211 L6.67598859,13.9813817 L6.67598859,13.7682715 L6.72201261,13.5999027 L6.7458985,13.5010007 L6.73890751,13.5010007 L6.71152613,13.4433079 L6.71152613,13.3161482 L6.65676336,13.174271 L6.64336396,13.0535871 L6.58918378,12.9052341 L6.5618024,12.7144946 L6.49771832,12.7704213 L6.47674535,12.869912 L6.4248955,12.947032 L6.35090751,12.9905959 L6.32003063,13.0606515 L6.32003063,13.1883999 L6.30022282,13.251391 L6.26468529,13.3079064 L6.23963423,13.3797281 L6.19011471,13.4856944 L6.160403,13.5634031 L6.07126787,13.6770226 L6.07126787,13.7535539 C6.0433039,13.6575955 5.96057718,13.5840077 5.86503363,13.5840077 C5.74094354,13.5840077 5.64656517,13.6911515 5.64656517,13.8183112 C5.64656517,13.881891 5.67569429,13.9437047 5.71822282,13.9860913 L5.68967628,14.0726305 L5.67569429,14.1721211 L5.67569429,14.2592491 L5.63899159,14.2651361 L5.63840901,14.257483 L5.63899159,14.257483 L5.60986246,14.2003789 L5.5516042,13.8748266 L5.56675135,13.7400138 L5.61801862,13.7052803 L5.65413874,13.6405231 L5.72637898,13.5492743 L5.82891351,13.5139521 L5.82891351,13.4156389 L5.88658919,13.2949549 L5.93785646,13.2519797 L5.98155015,13.1460133 L6.02582643,13.0747803 L6.01067928,13.0117892 L6.06194655,12.9829428 L6.11263123,12.8416543 L6.16331592,12.7144946 L6.14176036,12.6356085 L6.1202048,12.5443597 L6.11263123,12.5019732 L6.13418679,12.3812892 L6.13418679,12.1976141 L6.13418679,12.0492612 L6.14176036,11.857933 L6.1271958,11.7666842 L6.10505766,11.6601291 L6.0467994,11.553574 L6.01067928,11.4470189 L6.01067928,11.3687215 L5.95183844,11.2992547 L5.92329189,11.100862 L5.82891351,11.2498037 L5.76308168,11.3622458 L5.61801862,11.4540833 L5.5516042,11.5253163 L5.54403063,11.5365016 L5.53004865,11.4617365 L5.50033694,11.3616571 L5.41353213,11.0649512 L5.37741201,10.7817855 L5.37741201,10.5274662 L5.20904565,10.7470521 L5.08495556,10.9307271 L4.97717778,11.073193 L4.91134595,11.2627551 L4.82978438,11.4470189 L4.83735796,11.4617365 L4.88163423,11.5959606 L4.88163423,11.7802243 L4.88163423,12.0210035 L4.83735796,12.261194 L4.81638498,12.4731268 L4.82745405,12.261194 L4.86066126,12.0210035 L4.86066126,11.7796356 L4.86066126,11.5959606 L4.82745405,11.4623252 L4.76744805,11.3275124 L4.7622048,11.3057304 C4.7622048,11.2992547 4.77094354,11.2356748 4.77094354,11.2356748 L4.73598859,11.100862 L4.70569429,11.0019601 L4.6486012,10.8742117 L4.60432492,10.7900273 L4.50994655,10.6051748 L4.44411471,10.4986197 L4.33575435,10.3508555 L4.34973634,10.3649844 L4.20409069,10.0535609 L4.13651111,10.2513648 L4.04096757,10.3938308 L4.04096757,10.5204017 L4.00543003,10.6622789 L4.00543003,10.8029788 L3.98154414,10.9595735 L4.00543003,11.100862 L4.02115976,11.3345768 L4.01824685,11.5182519 L4.02756817,11.7384265 L4.03572432,11.857933 L4.05203664,11.9603672 C4.03222883,11.9115049 4.01242102,11.8655861 3.9931958,11.8149577 L3.75317177,11.1361842 L3.80327387,10.8883406 L3.68034895,10.7323345 L3.65063724,10.6263681 L3.64947207,10.624602 L3.65762823,10.591046 L3.68034895,10.4562332 L3.72346006,10.2931627 L3.74676336,10.1972042 L3.77530991,10.2089783 C3.79744805,10.2160427 3.81842102,10.2160427 3.84114174,10.2160427 C3.9862048,10.2160427 4.11029489,10.110665 4.11029489,9.97585224 C4.11029489,9.84751517 3.9862048,9.73448436 3.84114174,9.73448436 C3.69491351,9.73448436 3.57198859,9.84751517 3.57198859,9.97585224 C3.57198859,10.0559157 3.62675135,10.1259713 3.69782643,10.1671804 L3.68792252,10.2160427 L3.64364625,10.3367267 L3.61451712,10.4491688 L3.60694354,10.5345306 L3.6051958,10.547482 L3.57315375,10.492144 L3.53936396,10.3161221 L3.48926186,10.1030119 L3.47178438,9.883426 L3.4712018,9.8816599 L3.52246907,9.81219304 L3.61917778,9.72800864 L3.83881141,9.6915091 L4.01416877,9.61438912 L4.28448709,9.46603618 L4.50412072,9.30237698 L4.50412072,9.29766737 L4.62005465,9.23232143 L4.78317778,9.06925093 L4.88396456,8.90676914 L5.01737598,8.65951424 L5.09194655,8.46877474 L5.10709369,8.22034244 C5.11932793,8.11143254 5.1437964,7.9913373 5.16418679,7.87536298 C5.16243904,7.87830649 5.16069129,7.8818387 5.15836096,7.88478221 L5.15836096,7.8806613 C5.16010871,7.87771779 5.16302162,7.87477428 5.16476937,7.87124206 C5.16826486,7.853581 5.1705952,7.83533123 5.17350811,7.81767017 C5.1705952,7.82355719 5.14437898,7.83003291 5.14437898,7.83591993 L5.14437898,7.81767017 L5.10126787,7.87241947 L4.98067327,7.91716083 L4.86182643,8.00075654 L4.71152012,8.07846522 L4.60432492,8.1555852 L4.69229489,8.02901424 L4.87522583,7.70405065 L4.96902162,7.35730509 L5.04184444,7.08767951 L5.14088348,6.83277148 L5.1437964,6.83041667 L5.17350811,6.77213515 L5.16768228,6.77213515 L5.17350811,6.7574176 L5.16593453,6.77213515 L5.1636042,6.77272386 L5.16593453,6.76389332 L5.1437964,6.77036905 L4.92532793,6.87633543 L4.70685946,7.00114029 L4.62646306,7.13065476 L4.50994655,7.13065476 L4.41556817,7.20600864 L4.34216276,7.20365383 L4.24778438,7.27547549 L4.20467327,7.34788585 L4.13884144,7.34788585 L3.97105766,7.42677194 L3.89124384,7.4691585 L3.88425285,7.52979482 L3.79453514,7.54922199 L3.72112973,7.60455999 L3.72112973,7.62280976 L3.71472132,7.38556279 L3.64248108,7.13713049 L3.6284991,6.95286671 L3.58422282,6.78744141 L3.61451712,6.75506279 L3.6652018,6.70502311 L3.76482342,6.70502311 C3.80385646,6.79980415 3.89532192,6.86868231 4.00076937,6.86868231 C4.13884144,6.86868231 4.25535796,6.74858707 4.25535796,6.60670985 C4.25535796,6.45835691 4.13884144,6.34473739 4.00076937,6.34473739 C3.86153213,6.34473739 3.74501562,6.45835691 3.74501562,6.60670985 C3.74501562,6.60670985 3.74501562,6.60670985 3.74501562,6.60670985 L3.74501562,6.592581 L3.7019045,6.60670985 L3.62966426,6.66263655 L3.56674535,6.72386158 L3.4712018,6.38771265 L3.4712018,6.44363936 L3.46304565,6.41597035 L3.35992853,6.63555626 L3.2940967,6.70502311 L3.24224685,6.88281116 C3.18457117,6.89752871 3.16243303,7.04588165 3.16243303,7.04588165 L3.09019279,7.0588331 L3.07504565,7.21542787 L3.02494354,7.2224923 L2.93697357,7.48505345 L2.88628889,7.67461555 L2.90842703,7.73113095 L2.85075135,7.84533917 L2.83036096,8.02253852 L2.78142402,7.89655626 L2.80064925,7.94424113 L2.83036096,8.00840966 L2.83036096,7.98015196 L2.80414474,7.93011228 L2.77385045,7.88360481 L2.75229489,7.83886345 L2.61538799,7.62575327 L2.52159219,7.4414895 L2.33982643,7.2790077 L2.1935982,7.13713049 L2.06251712,7.0034951 L1.95240901,6.90635924 L1.88949009,6.79980415 L1.88890751,6.79803805 L1.90288949,6.8115782 L1.89531592,6.79803805 L1.77821682,6.73386951 L1.72054114,6.67676541 L1.61800661,6.65616083 L1.39254715,6.46601004 L1.3774,6.57727474 L1.40012072,6.76212722 L1.43682342,7.01644655 L1.53877538,7.16538819 L1.5312018,7.2224923 L1.56732192,7.30020098 L1.55974835,7.4414895 L1.58946006,7.54745588 L1.59703363,7.60455999 L1.68442102,7.69639753 L1.72054114,7.78117063 L1.698403,7.87241947 L1.76423483,7.96602311 L1.80734595,8.07846522 L1.83064925,8.10377941 L1.60460721,8.01547409 L1.48051712,7.98015196 L1.32788048,7.92245915 L1.12397658,7.89479015 L1.03717177,7.88772572 L0.913081682,7.88772572 L0.803556156,7.88772572 L0.701021622,7.86712115 L0.578096697,7.82355719 L0.473231832,7.80883964 L0.468571171,7.80471872 L0.307778378,7.76821919 L0.329916517,7.83886345 L0.426625225,7.98662768 L0.51576036,8.14204505 L0.51576036,8.18502031 L0.652084685,8.34102638 L0.818703303,8.48879062 L0.982991592,8.63714356 L1.13679339,8.7584162 L1.22534595,8.87851144 L1.29816877,8.89970472 L1.3640006,8.9768247 L1.45138799,9.02627568 L1.52421081,9.04805766 L1.60460721,9.09044421 L1.70655916,9.16108847 L1.79394655,9.21819258 L1.8958985,9.27470798 L2.05610871,9.31061881 L2.12194054,9.36006979 L2.15106967,9.3877388 L2.23845706,9.42364963 L2.30370631,9.4725119 L2.42022282,9.54315616 L2.50819279,9.54315616 L2.668403,9.59260714 L2.82162222,9.61497782 L2.97425886,9.73801657 L3.1199045,9.84986998 L3.36866727,10.1194956 L3.37449309,10.2443004 L3.43974234,10.5274662 L3.43974234,10.5339419 L3.38905766,10.492144 L3.32264324,10.4144353 L3.3139045,10.4073709 L3.32380841,10.3938308 C3.35293754,10.3579199 3.3675021,10.3155334 3.3675021,10.2654937 C3.3675021,10.1389227 3.25098559,10.0323676 3.10475736,10.0323676 C2.95969429,10.0323676 2.8356042,10.1389227 2.8356042,10.2654937 C2.8356042,10.3997178 2.95969429,10.5062729 3.10475736,10.5062729 C3.17233694,10.5062729 3.2305952,10.486257 3.27428889,10.4509349 L3.3307994,10.4992085 L3.40303964,10.5698527 L3.44673333,10.6293116 L3.44731592,10.6340212 L3.45372432,10.8253494 L3.54169429,10.9948957 L3.56674535,11.1320633 L3.52654715,11.100862 L3.43275135,10.9948957 L3.33779039,10.9095338 L3.19913574,10.8029788 L3.09485345,10.7700114 L3.09834895,10.7605922 C3.09834895,10.7476408 3.10475736,10.7252701 3.10475736,10.7111412 C3.10475736,10.5769171 2.98183243,10.470362 2.8356042,10.470362 C2.69694955,10.470362 2.57402462,10.5769171 2.57402462,10.7111412 C2.57402462,10.845954 2.69694955,10.9519204 2.8356042,10.9519204 C2.94046907,10.9519204 3.02203063,10.8989372 3.06805465,10.8259381 L3.10417477,10.8388896 L3.22826486,10.9236627 L3.3809015,11.0302178 L3.51955616,11.1573775 L3.59237898,11.2421506 L3.5982048,11.2480376 L3.60461321,11.270997 L3.75958018,11.7584423 L4.05145405,12.3606846 L3.85512372,12.1487519 L3.73103363,12.0210035 L3.65063724,11.907384 L3.56324985,11.8655861 L3.43275135,11.6948625 L3.32322583,11.5818317 L3.22069129,11.5606384 L3.10417477,11.4688009 L2.98765826,11.4470189 L2.89327988,11.3557701 L2.79831892,11.3487056 L2.57985045,11.2068284 L2.48488949,11.2068284 L2.3106973,11.2068284 L2.12077538,11.1497243 L1.90988048,11.0514111 L1.67626486,11.0302178 L1.52362823,11.0019601 L1.2836042,10.9866538 L1.37099159,11.0661286 L1.46536997,11.1926996 L1.53877538,11.3198592 L1.62558018,11.4046324 L1.698403,11.4688009 L1.79278138,11.5818317 L1.8656042,11.7231202 L1.90988048,11.8014176 L1.9827033,11.857933 L2.04154414,11.9427061 L2.12834895,12.0210035 L2.20175435,12.1487519 L2.29555015,12.1693564 L2.41264925,12.2759115 L2.47090751,12.3536202 L2.59558018,12.4030712 L2.71850511,12.5019732 L2.86356817,12.5443597 L2.94512973,12.5443597 L3.06164625,12.6579792 L3.27254114,12.6650437 L3.47586246,12.6650437 L3.59995255,12.7074302 L3.76715375,12.7074302 L3.95707568,12.6862369 L4.13884144,12.7356879 L4.23263724,12.7686552 L4.23321982,12.7704213 L4.29905165,12.84813 L4.47382643,13.0535871 L4.6486012,13.2378508 L4.74297958,13.4150502 L4.8594961,13.4856944 L4.96902162,13.6558294 L5.06398258,13.7965292 L5.1437964,13.8748266 L5.27487748,14.0096394 L5.29352012,14.0355423 L5.28186847,14.0520259 L5.16651712,13.9955105 L5.07039099,13.9378177 L4.98358619,13.8330287 L4.87464324,13.7329493 L4.82978438,13.6770226 L4.74297958,13.5840077 L4.69229489,13.528081 L4.61248108,13.450961 L4.52451111,13.4156389 L4.43712372,13.3361641 L4.37245706,13.3302771 L4.26992252,13.2808261 L4.14641502,13.1677953 L4.02174234,13.1677953 L3.9495021,13.103038 L3.83939399,13.0959736 L3.74501562,13.0606515 L3.60636096,13.0176762 L3.45372432,13.0047248 L3.40362222,13.0465226 L3.26438498,13.0400469 L3.09776637,12.9970717 L2.92240901,12.9682253 L2.82103964,12.9752897 L2.61655315,13.0047248 L2.42721381,13.0047248 L2.28098559,12.9552738 L2.15048709,12.9829428 L1.99726787,12.9682253 L2.08523784,13.0541758 L2.11378438,13.103038 L2.20816276,13.152489 L2.27399459,13.300842 L2.34681742,13.3797281 L2.39808468,13.4221146 L2.40565826,13.4709769 L2.50702763,13.5139521 L2.52916577,13.577532 L2.61655315,13.6623051 L2.70394054,13.6834984 L2.79074535,13.8183112 L2.90085345,13.8536333 L3.0097964,13.9454708 L3.19913574,14.0025749 L3.25797658,14.0378971 L3.42517778,14.0879367 L3.56383243,14.1509279 L3.73802462,14.1721211 L3.86153213,14.2003789 L3.96406667,14.2003789 L4.03630691,14.18625 L4.1970997,14.18625 L4.26234895,14.1650567 L4.43712372,14.18625 L4.49596456,14.1509279 L4.60432492,14.1373877 L4.75113574,14.0879367 L4.99115976,14.0879367 L5.19448108,14.115017 L5.37741201,14.2003789 L5.47120781,14.2651361 L5.5585952,14.2998695 L5.57665526,14.2904503 L5.5585952,14.2998695 L5.47120781,14.2651361 L5.40595856,14.3275385 L5.44207868,14.3699251 L5.51548408,14.4546982 L5.61801862,14.5259311 L5.78521982,14.6313088 L5.85396456,14.7066627 L5.8428955,14.7025418 L5.71938799,14.6530908 L5.56616877,14.6042285 L5.44266126,14.5753821 C5.44266126,14.5683177 5.44965225,14.5612533 5.44965225,14.5471244 C5.44965225,14.413489 5.34070931,14.3069339 5.20904565,14.3069339 C5.07854715,14.3069339 4.96902162,14.413489 4.96902162,14.5471244 C4.96902162,14.6813485 5.07854715,14.794968 5.20904565,14.794968 C5.3109976,14.794968 5.39838498,14.7249125 5.43392252,14.6330749 L5.60287147,14.6813485 L5.8359045,14.767299 L5.9331958,14.7837827 L6.11263123,14.9509741 L6.21516577,15.0704806 L6.23613874,15.0781338 L6.34508168,15.1128672 L6.22856517,15.1022705 L6.14875135,15.0840208 L6.0100967,15.0840208 L5.94543003,15.0333924 L5.82133994,14.9762883 L5.77065526,14.9762883 L5.6687033,14.9762883 L5.56616877,14.9762883 L5.51548408,14.9309582 L5.38382042,14.9509741 L5.2673039,14.9762883 L5.11466727,14.9762883 L5.01970631,14.9409662 L4.90377237,14.9409662 L4.81638498,14.9380226 L4.71443303,14.9203616 L4.88920781,15.0940287 L4.96144805,15.1499554 L5.00572432,15.2276641 L5.16593453,15.3189129 L5.27487748,15.3966216 L5.30458919,15.4460726 L5.35527387,15.5096524 L5.49334595,15.546152 L5.61801862,15.7321818 L5.71938799,15.7321818 L5.7624991,15.8216646 L5.88658919,15.9240987 L6.02582643,15.9653079 L6.09923183,16.0265329 L5.85804264,16.0695082 L5.77065526,16.0901127 L5.61801862,16.1472169 L5.53004865,16.1536926 L5.41353213,16.2031436 L5.3109976,16.2455301 L5.16593453,16.3026342 L4.9765952,16.3868186 L4.75754414,16.4645273 L4.6486012,16.50868 L4.51752012,16.5216314 L4.69986847,16.591687 L4.83794054,16.6629199 L4.99174234,16.6705731 L5.18807267,16.7341529 L5.28186847,16.7482817 L5.39896757,16.8124503 L5.59588048,16.8754414 L5.67627688,16.8754414 L5.8359045,16.9254811 L5.95183844,16.9325455 L6.1202048,16.9325455 L6.22215676,16.9466744 L6.39693153,16.9466744 L6.4983009,16.868377 L6.71036096,16.8471837 L6.80415676,16.818926 L6.89911772,16.7629993 L7.00864324,16.7264998 L7.08845706,16.7135483 L7.1606973,16.6770488 L7.24924985,16.5634293 L7.33721982,16.5216314 L7.41645105,16.4863093 L7.518403,16.4586403 L7.56908769,16.3950605 L7.7660006,16.3091099 L7.82425886,16.2955698 L8.02058919,16.3938831 L8.17322583,16.4721804 L8.20992853,16.4933737 L8.20293754,16.5004381 L8.10855916,16.5357603 L7.9699045,16.5716711 L7.79512973,16.5781468 L7.78755616,16.6211221 L7.67861321,16.6629199 L7.46771832,16.7629993 L7.36518378,16.8047972 L7.21254715,16.8895703 L7.08845706,16.9678676 L7.01563423,17.0108429 L6.95795856,17.1374139 L6.81173033,17.1874535 L6.74648108,17.2934199 L6.62996456,17.3917332 L6.58627087,17.4629662 L6.49130991,17.5624568 L6.42606066,17.6325124 L6.38178438,17.7325917 L6.30197057,17.8238406 L6.22914775,17.8874204 L6.19943604,17.9798466 L6.14176036,18.0999419 L6.29497958,18.0793373 L6.42606066,18.0428378 L6.59384444,18.0081043 L6.65909369,17.9727822 L6.73890751,17.9657178 L6.80415676,17.9515889 L6.92067327,17.9303957 L6.98650511,17.8874204 L7.14030691,17.8662271 L7.21254715,17.8450338 L7.29236096,17.781454 L7.39431291,17.7879297 L7.46771832,17.7384788 L7.57724384,17.6896165 L7.64249309,17.6542944 L7.71531592,17.6401655 L7.80969429,17.5336104 L7.8830997,17.4629662 L7.94776637,17.4341197 L8.07884745,17.3428709 L8.10855916,17.243969 L8.13710571,17.1156319 C8.26935195,16.9396099 8.28333393,16.8124503 8.27576036,16.5716711 L8.31188048,16.5216314 L8.2978985,16.5428247 L8.32644505,16.558131 L8.428397,16.6352509 L8.83795255,16.7953779 L8.8297964,16.8047972 L8.79309369,16.868377 L8.79309369,16.9113522 C8.64744805,16.9113522 8.53093153,17.0308588 8.53093153,17.1798004 C8.53093153,17.3281534 8.64744805,17.4488373 8.80066727,17.4488373 C8.94514775,17.4488373 9.06982042,17.3281534 9.06982042,17.1798004 C9.06982042,17.0532295 8.9835982,16.9413761 8.86067327,16.9184167 L8.85834294,16.8895703 L8.88688949,16.840708 L9.06982042,16.9537388 L9.31683544,17.0385119 L9.43393453,17.1374139 C9.6960967,17.1939293 9.93612072,17.2792911 10.1773099,17.3917332 L10.322373,17.399975 L10.322373,17.3917332 L10.322373,17.3917332 L10.3678144,17.5736422 L10.3369375,17.4559017 L10.2565411,17.4629662 L10.0532198,17.5194816 L9.78406667,17.5824727 L9.5288955,17.6260366 L9.20148408,17.6607701 L9.18633694,17.6607701 L9.20148408,17.6754876 L9.28828889,17.9221538 L9.3681027,17.9015493 L9.51433093,17.8868317 L9.70367027,17.8732915 L9.83475135,17.8668158 L9.89242703,17.7885184 L10.00137,17.7885184 L10.1400246,17.7243499 L10.3718925,17.6060208 L10.3445111,17.7172855 L10.2862529,17.8944848 L10.1406072,18.1423284 L9.97282342,18.4331473 L9.76192853,18.7222 L9.62327387,18.9058751 L9.6157003,18.9135282 L9.55802462,18.864666 L9.49918378,18.7015955 L9.41237898,18.4466874 L9.35412072,18.2418191 L9.31741802,18.0999419 L9.28828889,17.9374601 L9.19332793,17.6819634 C9.15720781,17.575997 9.09894955,17.5477393 9.02670931,17.5695212 C8.8362048,17.6325124 8.64744805,17.6542944 8.39926787,17.6542944 C8.3346012,17.6542944 8.32061922,17.7779218 8.31246306,17.81501 C8.28624685,17.8161874 8.26061321,17.819131 8.23206667,17.8167761 C7.99204264,17.7885184 7.9699045,17.803236 7.80328589,17.9657178 C7.67861321,18.0864017 7.61278138,18.1917794 7.51199459,18.3195278 L7.37275736,18.4967271 L7.2341027,18.6739265 L7.39547808,18.5532425 C7.56267928,18.4390343 7.72172432,18.3336566 7.93378438,18.3053989 C7.96233093,18.3053989 8.1306973,18.2271015 8.1306973,18.2271015 L8.2175021,18.1705861 L8.26177838,18.1423284 L8.26876937,18.1423284 L8.27576036,18.2700768 L8.2611958,18.4820096 C8.25362222,18.6380156 8.18138198,18.8146263 8.10855916,18.9282458 C8.02874535,19.0842519 7.90407267,19.1119209 7.86037898,19.3167892 C8.17322583,19.2108228 8.37013874,19.1613718 8.45752613,19.0124302 L8.45752613,19.1048564 C8.4650997,19.2390805 8.63288348,19.380369 8.63929189,19.5864148 C8.71327988,19.42982 8.69813273,19.1902183 8.81406667,18.9912369 L8.85834294,18.9135282 L8.95272132,19.0124302 L9.04069129,19.097792 L9.11351411,19.1260497 L9.19332793,19.1260497 L9.13798258,19.1125096 L9.23003063,19.1337028 L9.40480541,19.1401786 L9.54346006,19.147243 L9.75435495,19.1684363 L9.92213874,19.1684363 L10.0456462,19.1613718 L10.1254601,19.097792 L10.2716883,18.9565035 L10.4388895,18.7510465 L10.5635622,18.5885647 L10.6212378,18.4973158 L10.657358,18.362503 L10.6649315,18.2559479 L10.6719225,18.135264 L10.6719225,18.0292976 L10.6719225,17.8662271 L10.6719225,17.7702687 L10.7016342,17.7673252 L10.7295982,17.7749783 C10.7453279,18.0428378 10.788439,18.3053989 10.8105772,18.5738471 C10.8105772,18.6450801 11.0436102,18.9423746 11.1455622,19.0907276 C11.2475141,19.2744027 11.4001508,19.147243 11.5894901,19.1760894 C11.7572739,19.2037584 11.8231057,19.2455563 11.9833159,19.1684363 L12.0275922,19.1395899 L12.0188535,19.1384125 L12.0270096,19.1337028 L12.1656643,18.8993994 L12.2821808,18.5391137 L12.3328655,18.3972365 C12.4348174,18.5467668 12.4348174,18.8004974 12.4790937,18.9841725 C12.5152138,19.1260497 12.7482468,19.2384918 12.7995141,19.5722859 C12.8356342,19.4592551 13.0616763,19.2955959 13.0756583,19.1825651 C13.2801447,19.2043471 13.5050216,19.1755007 13.694361,19.2467337 C13.6011477,19.0406879 13.4252078,18.9694549 13.2580066,18.8499484 C13.2143129,18.8216907 13.1921748,18.4849531 13.1350817,18.3001006 L13.2941267,18.3554386 L13.3890877,18.3825189 L13.3890877,18.3825189 L13.4770577,18.3966478 L13.666397,18.4249055 L13.8190336,18.489074 L14.0590577,18.5673714 L13.9349676,18.4537519 L13.825442,18.3825189 L13.7019345,18.2842056 L13.6296943,18.2129727 L13.5557063,18.0922887 L13.4834661,18.0216445 L13.3669495,17.9303957 L13.3086913,17.9162668 L13.2003309,17.9097911 L13.0593459,17.874469 L13.0599285,17.874469 L13.0546853,17.8732915 L13.0546853,17.8732915 L13.0541027,17.8732915 L13.0546853,17.8750577 L12.9737063,17.8815334 L12.9370036,17.8815334 L12.9078745,17.7749783 C12.8857363,17.6819634 12.6748414,17.6542944 12.5734721,17.6542944 C12.3917063,17.6542944 12.2746072,17.6260366 12.0998324,17.5824727 C11.9984631,17.5624568 11.9611778,17.5277234 11.9169015,17.6260366 L11.8965111,17.6754876 L11.8959285,17.6754876 L11.8446613,17.6466412 C11.6844511,17.6048434 11.5242408,17.5624568 11.3710216,17.5277234 L11.2766432,17.4700306 L11.1601267,17.4211683 L11.1455622,17.4135152 L11.2475141,17.3776043 L11.4665652,17.3216776 L11.6483309,17.2651622 L11.7642649,17.2080581 L11.9326312,17.1874535 L12.019436,17.123285 L12.1732378,17.0449876 L12.1359526,17.0385119 L12.1359526,17.0385119 L12.2017844,17.0449876 L12.2600426,17.0602939 L12.3183009,17.0808985 C12.2746072,17.1939293 12.3183009,17.3428709 12.442391,17.4488373 C12.5874541,17.575997 12.7919405,17.5901258 12.8863189,17.4841594 C12.9812799,17.3711286 12.9370036,17.1874535 12.7919405,17.0602939 C12.6462949,16.9396099 12.449382,16.9254811 12.354421,17.0320362 L12.3689856,17.0449876 L12.2961628,17.0102542 L12.2303309,16.9819965 L12.1633339,16.9749321 L12.2303309,16.9819965 L12.2454781,16.9608032 L12.3328655,16.9254811 L12.4709375,16.8895703 L12.5589075,16.8677883 L12.6975622,16.8124503 L12.7028054,16.8059746 L12.7261087,16.8124503 L12.8723369,16.868377 C13.0756583,16.9466744 13.5702709,17.2651622 14.2629616,17.3499353 C14.664361,17.399975 15.0715862,17.405862 15.4578384,17.4982883 C15.137418,17.2863555 14.6707694,17.0673583 14.2926733,16.9537388 C14.2146072,16.9307794 14.1400366,16.9125296 14.0672138,16.896046 C14.0887694,16.8318775 14.0899345,16.7612332 14.0567273,16.6882341 C14.2355802,16.8271678 14.4225892,16.9549162 14.6346492,17.0385119 C15.0861508,17.2233644 15.5376523,17.3640642 16.0252739,17.3846688 C15.6098925,17.1586071 15.2609255,16.818926 14.8455441,16.591687 C14.4750216,16.3803429 14.2047033,16.3950605 13.7823309,16.3308919 L13.6827093,16.2643686 L13.7089255,16.2802635 L13.7968955,16.2314013 L13.9262288,16.1901921 L14.015364,16.210208 L14.0736222,16.1960791 L14.160427,16.1536926 L14.2629616,16.0542019 L14.3579225,16.0047509 L14.4855081,15.9505903 L14.4598745,15.9629531 L14.48143,15.9906221 L14.6562048,16.1177817 C14.9626432,16.2955698 15.246361,16.4863093 15.5819285,16.6069932 C15.9239045,16.7347416 16.2658805,16.7553462 16.6160126,16.8471837 C16.3241387,16.6205334 15.9961447,16.415665 15.6687333,16.23199 C15.4642468,16.1177817 15.2824811,16.0483149 15.056439,15.9764932 L14.8531177,15.905849 L14.6200847,15.8705268 L14.6049375,15.8775913 L14.5717303,15.8981958 L14.6049375,15.8775913 L14.728445,15.7828102 L14.6346492,15.856398 L14.7878685,15.8846557 L14.9836162,15.905849 L15.2026673,15.9135021 C15.6326132,15.9341067 16.0619766,15.8981958 16.4994961,15.8428578 C16.7907874,15.7992939 17.0820787,15.7498429 17.3657964,15.6721342 C17.0162468,15.6156188 16.6585411,15.5673452 16.3095742,15.5379101 C15.8947754,15.5096524 15.486385,15.5167169 15.0785772,15.5237813 L14.9474961,15.6374008 L14.9072979,15.6633037 L14.9474961,15.6374008 L15.0861508,15.5167169 C15.2242228,15.3748396 15.3477303,15.2688732 15.4578384,15.099327 L15.4788114,15.0675371 L15.4642468,15.0916739 L15.486385,15.0916739 L15.5522168,15.0999157 L15.5597904,15.0999157 C15.5522168,15.2412042 15.6838805,15.376017 15.8650637,15.4042747 C16.054403,15.4395969 16.2291778,15.3395175 16.2588895,15.1911646 C16.280445,15.0422229 16.142373,14.89387 15.9530336,14.8656123 C15.7852498,14.8373546 15.6326132,14.9009344 15.5813459,15.0139652 L15.574355,15.0139652 L15.5195922,15.0069008 L15.5376523,14.9792318 L15.6326132,14.767299 L15.712427,14.5824465 L15.7374781,14.5259311 L15.7345652,14.5329956 L15.8504991,14.6107042 L16.0322649,14.767299 C16.4115261,14.9509741 16.7546673,15.0987383 17.1613099,15.2123578 C17.4304631,15.2830021 17.7007814,15.3677752 17.9699345,15.4242906 C17.7590396,15.2406155 17.5405712,15.0422229 17.299382,14.9009344 L16.9440066,14.7025418 L16.8059345,14.6048172 L17.1694661,14.6177687 C17.6722348,14.5541888 18.2105411,14.4764802 18.6690336,14.2645474 C18.1307273,14.18625 17.708355,14.059679 17.0884871,14.059679 C16.6445592,14.0879367 16.2297604,14.2074433 15.814379,14.3563849 L15.8044751,14.3563849 L15.8207874,14.2663135 L16.0037183,14.1297346 L16.1278084,13.9813817 L16.2082048,13.8606977 L16.2950096,13.7117561 L16.4185171,13.6417005 C16.7249556,13.5563387 17.038385,13.5139521 17.3372498,13.3938569 L17.7887514,13.2166576 C18.3352138,12.9905959 18.8012799,12.6008751 19.179376,12.2046786 C18.604367,12.3312495 18.1231538,12.4095469 17.6646613,12.6579792 C17.3372498,12.8345899 17.0308114,13.0182649 16.7692318,13.273173 L16.6521327,13.3508817 L16.5787273,13.3938569 L16.6235862,13.2802374 L16.6445592,13.196053 L16.7756402,13.0747803 L16.9067213,12.968814 C17.0739225,12.8557831 17.2125772,12.7356879 17.3657964,12.6155927 C17.6786432,12.3807005 17.8976943,12.1487519 18.1231538,11.8290866 C18.4505652,11.3693102 18.5967934,10.9519204 18.7639946,10.4144353 C18.6707814,10.5092164 18.5810637,10.6057635 18.4890156,10.7011333 C18.5175622,10.6299003 18.5228054,10.5563126 18.4983369,10.4933214 L18.4622168,10.4444592 C18.3678384,10.3379041 18.1709255,10.3520329 18.0246973,10.4727169 C17.9279886,10.5580787 17.8807994,10.6675773 17.8860426,10.7653018 L17.8831297,10.7676566 L17.8312799,10.8388896 L17.7811778,10.8742117 L17.7957423,10.818285 L17.8312799,10.7405763 L17.8679826,10.6758191 L17.9046853,10.6263681 L17.9338144,10.5763284 L17.9419706,10.5062729 L17.9996462,10.4491688 L18.0648955,10.3714601 L18.1383009,10.3367267 L18.2396703,10.2654937 L18.3200667,10.2301716 C18.6620426,10.0747542 18.9539165,9.93287698 19.2597724,9.71387979 C19.6384511,9.45131863 19.8930396,9.07631536 20.1773399,8.71544094 L20.1115081,8.74428735 C19.4561027,9.04746895 18.6847634,9.4159965 18.2909375,9.93994141 L18.1528655,10.1236165 L18.0357664,10.2931627 L17.9419706,10.4079596 L17.8761387,10.4774265 L17.8901207,10.3861776 L17.9122589,10.2654937 L17.9419706,10.1948494 L17.9844991,10.1236165 L18.0066372,10.0606254 L18.0142108,9.92581256 L18.0142108,9.76980649 L18.0794601,9.69209781 L18.1452919,9.59319585 L18.2251057,9.50842274 C18.2251057,9.50842274 18.2594781,9.47368931 18.283364,9.44837512 L18.283364,9.45131863 C18.3783249,9.55080929 18.5746553,9.53668044 18.7208835,9.40952077 C18.8659465,9.28236111 18.9102228,9.09750864 18.8152619,8.99860668 C18.7208835,8.89264029 18.5239706,8.91383357 18.3783249,9.04158193 C18.2612258,9.1410726 18.2105411,9.28883683 18.2548174,9.39539192 L18.2827814,9.37478735 L18.2251057,9.42364963 L18.160439,9.49429388 L18.0794601,9.58613142 L18.0142108,9.69209781 L17.9926553,9.69975093 L17.9926553,9.74154879 L17.9920727,9.74154879 L17.9920727,9.61438912 L18.0287754,9.47957633 L18.0940246,9.30237698 L18.1738384,9.16108847 L18.3060847,8.9768247 L18.3276402,8.88557586 L18.3352138,8.80021405 C18.5321267,8.63714356 18.7063189,8.54589472 18.9684811,8.49644374 C19.1065532,8.47466176 20.08937,8.55354785 21.1176282,7.40675607 C20.2210336,7.59043114 19.179376,7.83062162 18.5967934,8.46053291 L18.3025892,8.76371452 L18.3491958,8.71544094 L18.3777423,8.63066783 L18.4587213,8.49585504 L18.5822288,8.36928408 L18.735448,8.20621359 C18.8956583,7.99369211 19.091406,7.77410621 19.2376342,7.54804458 C19.5289255,7.01055952 19.5580547,6.67087838 19.6827273,6.09689379 C19.317448,6.48602591 18.9900366,7.01055952 18.742439,7.49094048 L18.6189315,7.71111508 C18.5746553,7.83062162 18.5385351,7.9371767 18.502415,8.05668324 L18.4220186,8.22740686 L18.3637604,8.36104225 L18.3422048,8.43227521 L18.2979285,8.54589472 L18.276373,8.65244981 L18.2548174,8.74428735 Z M16.5501808,14.5883336 L16.7832138,14.6036398 L16.7884571,14.6042285 L16.7826312,14.6042285 L16.5501808,14.5883336 Z M11.0896342,17.6595927 L11.1170156,17.6684232 L11.5970637,17.830905 L11.793394,17.8868317 L11.7788294,17.9221538 C11.7205712,18.0793373 11.5830817,18.3260035 11.5749255,18.3471968 C11.5685171,18.3966478 11.5749255,18.4466874 11.5388054,18.4749451 L11.5050156,18.4955497 L11.4875381,18.4608163 C11.3791778,18.2288676 11.2137243,17.9545324 11.0896342,17.6595927 L11.0896342,17.6595927 Z M9.56035495,18.9706324 L9.47821081,19.0554055 L9.35528589,19.0842519 L9.47821081,19.0548168 L9.56035495,18.9706324 Z M3.09485345,8.9503331 L3.03950811,9.15284664 L3.03076937,9.11870191 L3.00804865,8.99213095 L3.00804865,8.75311788 L3.08727988,8.91383357 L3.09485345,8.9503331 Z M3.22127387,9.77745962 L3.24108168,9.84398296 L3.11291351,9.69975093 L3.01795255,9.56493814 L2.95969429,9.40952077 L2.87288949,9.24645028 L2.76336396,9.07631536 L2.67422883,8.95563142 L2.80589249,9.02627568 L2.81288348,9.03451751 L2.96435495,9.225257 L3.09834895,9.43012535 L3.14029489,9.50842274 L3.16301562,9.60026027 L3.19214474,9.69975093 L3.22127387,9.77745962 Z M3.35934595,8.90676914 L3.36633694,9.02627568 L3.35934595,9.15461275 L3.2940967,9.36713422 L3.29118378,9.37890826 L3.2305952,9.24232937 L3.28361021,9.06925093 L3.36458919,8.89322899 L3.35934595,8.90676914 Z M3.46828889,9.6073247 L3.41993453,9.73330696 L3.40245706,9.68326727 L3.40245706,9.68385598 L3.39546607,9.65677568 L3.35002462,9.52372899 L3.3575982,9.50076961 L3.41003063,9.34594094 L3.51955616,9.14695962 L3.59878739,9.02627568 L3.76773634,8.86320518 L3.67277538,8.95622012 L3.64364625,9.05512208 L3.60636096,9.09750864 L3.59237898,9.20406373 L3.52654715,9.28236111 L3.51955616,9.48016503 L3.46828889,9.6073247 Z M5.10942402,13.4562593 L5.10592853,13.450961 L4.95329189,13.2661085 L4.75754414,12.9752897 L4.66374835,12.842243 L4.67773033,12.7786632 L4.73598859,12.6356085 L4.80881141,12.488433 L4.81638498,12.5308196 L4.85308769,12.6509148 L4.8961988,12.7286235 L4.8961988,12.7992677 L4.94746607,12.869912 L5.03427087,13.0547645 L5.10068529,13.2378508 L5.10767628,13.4144615 L5.10942402,13.4562593 Z M5.25973033,12.9682253 L5.19448108,12.9058228 L5.19448108,12.9052341 L5.25973033,12.9682253 Z M5.44965225,13.810658 L5.42110571,13.8518672 L5.35527387,13.75532 L5.22419279,13.605201 L5.17292553,13.55575 L5.16651712,13.5457421 L5.16651712,13.528081 L5.20904565,13.4073971 L5.25273934,13.2519797 L5.28944204,13.1883999 L5.25273934,13.1530777 L5.25273934,13.152489 L5.34070931,13.2378508 L5.3477003,13.4156389 L5.41353213,13.5563387 L5.44207868,13.6834984 L5.44965225,13.810658 Z M6.27051111,14.8279353 L6.2006012,14.761412 L6.06893754,14.6548569 L5.98155015,14.5471244 L5.82133994,14.3775782 L5.73744805,14.2545394 L5.73453514,14.1721211 L5.75550811,14.0096394 L5.75550811,14.0096394 L5.75550811,14.0161151 C5.78521982,14.0378971 5.82133994,14.0443728 5.86503363,14.0443728 C5.93377838,14.0443728 5.99494955,14.0072845 6.03573033,13.9531239 L6.03573033,14.0096394 L6.06660721,14.2003789 L6.13010871,14.4199648 L6.12836096,14.46294 L6.16797658,14.6036398 L6.25711171,14.7378639 L6.27051111,14.8279353 Z M6.53092553,15.1970516 L6.44761622,15.1493667 L6.34857718,15.1140446 L6.44761622,15.148778 L6.53092553,15.1970516 Z M10.1307033,16.8124503 L10.0829315,16.7759507 C9.76134595,16.4933737 9.57258919,16.3320693 9.51433093,15.8981958 C9.76891952,16.1324993 9.9000006,16.4021249 10.0823489,16.6847019 L10.1307033,16.8124503 Z M11.9530216,15.7716249 L12.1359526,15.6797873 L12.2821808,15.6656585 L12.3695682,15.6939162 L12.4272438,15.7786893 L12.4709375,15.8981958 L12.4936583,16.0612663 L12.4639465,16.2178611 L12.4272438,16.3444321 L12.2885892,16.4933737 L12.1872198,16.591687 L12.0998324,16.6564442 L11.9757423,16.7553462 L11.955352,16.7688863 L11.9757423,16.7553462 L12.0998324,16.6564442 L12.1872198,16.591687 L12.2885892,16.4933737 L12.4272438,16.3444321 L12.4639465,16.2178611 L12.4930757,16.0612663 L12.4709375,15.8981958 L12.4272438,15.7786893 L12.3695682,15.6939162 L12.2821808,15.6656585 L12.1359526,15.6803761 L11.9530216,15.7716249 Z M11.8446613,16.23199 C11.6553219,16.4021249 11.4735562,16.5858 11.2620787,16.7264998 L11.1822649,16.7841926 L11.116433,16.818926 L11.0861387,16.8719092 L11.1822649,16.6770488 L11.3500486,16.3732785 L11.4811297,16.1260236 L11.6046372,15.9558887 L11.7718384,15.856398 L11.9378745,15.779278 L11.7788294,15.856398 L11.7869856,15.856398 C11.9104931,15.927631 11.9396222,16.1395637 11.8446613,16.23199 L11.8446613,16.23199 Z M13.5085171,16.5139783 L13.4986132,16.514567 L13.3017003,16.4863093 L13.3966613,16.4233182 L13.4910396,16.3738672 L13.6075562,16.3308919 L13.5836703,16.3014568 L13.6075562,16.3308919 L13.694361,16.3950605 C13.7176643,16.4138989 13.7409676,16.4333261 13.7636883,16.4527533 C13.6646492,16.4309713 13.5685231,16.4456888 13.5108474,16.5110348 L13.5085171,16.5139783 Z M12.8501988,16.7341529 L12.8601027,16.7053065 L12.9812799,16.6911776 L13.0319646,16.6911776 L13.1484811,16.6281865 L13.1921748,16.5781468 L13.3156823,16.5716711 L13.472397,16.5716711 C13.4485111,16.6429041 13.4613279,16.7259111 13.5021087,16.8042085 C13.2247994,16.7759507 13.0179826,16.7759507 12.9084571,16.7482817 L12.8501988,16.7341529 Z M12.9591417,16.2537719 L12.9515682,16.4150763 L12.9282649,16.5016155 L12.9515682,16.4150763 L12.9515682,16.4021249 L12.9305952,16.4086006 L12.7919405,16.4721804 L12.7849495,16.5004381 L12.7785411,16.5128009 L12.784367,16.5004381 L12.8065051,16.3809316 L12.858355,16.2743765 L12.9230216,16.160757 L12.9591417,16.0983546 L12.9591417,16.2537719 Z M14.1033339,15.0704806 L14.1033339,15.1770357 L14.0881868,15.403686 L14.0881868,15.552039 L14.0450757,15.7504316 L13.9751658,15.9005507 L13.9495321,15.9135021 L13.7170817,16.0542019 L13.4030697,16.2314013 L13.3966613,16.2390544 L13.3815141,16.2537719 L13.0028354,16.5004381 L13.0028354,16.5004381 L13.0098264,16.4933737 L12.915448,16.5498891 L12.915448,16.5498891 L13.0541027,16.465116 L13.0546853,16.4645273 L13.0098264,16.4933737 L13.0028354,16.5004381 L13.3820967,16.2531832 L13.4537544,16.160757 L13.4986132,16.0901127 L13.6291117,15.9064377 L13.8120426,15.6091431 L13.9640967,15.3889685 L14.0590577,15.1770357 L14.1033339,15.0704806 Z M14.4598745,15.3395175 L14.3946252,15.5167169 L14.2926733,15.6868518 L14.1680006,15.806947 L14.0957604,15.8428578 L14.0590577,15.9099699 L14.0957604,15.8428578 L14.1755742,15.7003919 L14.248397,15.5808854 L14.3503489,15.4395969 L14.4598745,15.3395175 Z M16.4476462,13.0400469 L16.3969616,13.2737617 L16.3456943,13.3585348 L16.3602589,13.0889092 L16.3392859,12.8557831 L16.3241387,12.6297215 L16.3095742,12.4949087 L16.2151958,12.2823873 L16.2151958,12.2817986 L16.3392859,12.5514241 L16.3969616,12.7209704 L16.4260907,12.8557831 L16.4476462,13.0400469 Z M16.6008655,12.9546851 L16.4919225,13.2661085 L16.4919225,13.2519797 L16.5059045,13.0900866 L16.5577544,12.9187743 L16.6008655,12.8434204 L16.6008655,12.9546851 Z M17.8097243,10.9377915 L17.8761387,10.895405 L17.9140066,10.861849 C17.920415,10.8730343 17.9221628,10.8865745 17.9309015,10.8965824 C18.0048895,10.9807668 18.1476222,10.9866538 18.2757904,10.9236627 C18.0386793,11.1750385 17.8056462,11.4293578 17.5842649,11.6942738 C17.3657964,11.9715525 17.1036342,12.3812892 17.1036342,12.3812892 L17.271418,12.0628014 L17.3075381,12.0056972 L17.3809435,11.8720619 L17.4310456,11.7513779 L17.4898865,11.652476 L17.5405712,11.5335581 L17.5912559,11.4476076 L17.6349495,11.3693102 L17.6722348,11.3063191 L17.6867994,11.2421506 L17.7007814,11.1715063 L17.7229195,11.0802575 L17.7229195,11.0443466 L17.7514661,11.0019601 L17.8097243,10.9377915 Z M16.5659105,2.48873833 L16.5134781,2.86256419 L16.5123129,2.88022526 C16.4977483,2.78485551 16.4948354,2.68713095 16.5268775,2.57998716 C16.5408595,2.54996335 16.5530937,2.51935084 16.5659105,2.48873833 L16.5659105,2.48873833 Z M17.7695261,5.38927381 L17.7159285,5.4952402 L17.7159285,5.28330742 C17.7176763,5.27271078 17.7200066,5.26211415 17.7217544,5.2509288 C17.7235021,5.30096849 17.7339886,5.34924206 17.7666132,5.3875077 C17.7671958,5.38868511 17.7689435,5.38868511 17.7695261,5.38927381 L17.7695261,5.38927381 Z M17.9122589,6.14634477 L17.9122589,6.16753805 L17.9122589,6.16753805 L17.8901207,6.28115756 L17.8901207,6.28115756 L17.8901207,6.28115756 L17.9122589,6.16753805 L17.9046853,6.05509594 L17.860409,5.92028315 L17.8033159,5.78547035 L17.7887514,5.6871571 L17.7951598,5.50936905 L17.8248715,5.42282983 C17.8726432,5.44755532 17.9279886,5.46050677 17.9903249,5.45226494 C17.9617784,5.64418184 17.9757604,5.83668744 17.9338144,6.03390266 L17.9122589,6.14634477 Z M6.75871532,3.28289753 L6.82454715,3.26170425 L6.70803063,3.19871312 L6.6421988,3.14867344 L6.62064324,3.10569818 L6.57753213,3.0845049 L6.58394054,3.09922246 L6.54782042,3.04977148 L6.51111772,3.0009092 L6.43887748,2.96440966 L6.34391652,2.93615196 L6.3077964,2.91495868 L6.21283544,2.90730556 L6.14758619,2.90082983 L6.11845706,2.84490313 L6.05262523,2.80840359 L5.96582042,2.78779902 L5.85629489,2.76660574 L5.68152012,2.75247689 L5.52072733,2.75954132 L5.30284144,2.77308147 L5.2072979,2.80133917 L5.04067928,2.85196755 L4.93057117,2.90730556 L4.84376637,2.98560294 L4.80822883,3.01327194 L4.74123183,3.09922246 L4.55247508,3.26170425 L4.45343604,3.38003338 L4.48897357,3.25817204 L4.61248108,3.1104078 L4.67073934,3.06036811 L4.89095556,2.81664542 L5.05640901,2.64356699 L5.3109976,2.53053618 L5.37682943,2.48814963 L5.51548408,2.42398109 L5.57374234,2.34568371 L5.66054715,2.33920798 L5.94543003,2.03426027 L6.14933393,1.75815896 L6.3678024,1.39080882 L6.50587447,1.10057866 L6.66666727,0.931032446 L6.51286547,0.966354575 L6.33867327,1.0016767 L6.28740601,1.03699883 L6.21516577,1.10823179 L6.14176036,1.12177194 L5.99611471,1.20654505 L5.8359045,1.23539146 L5.81376637,1.28484244 L5.73453514,1.29190686 L5.63840901,1.37609127 L5.54461321,1.4125908 L5.48635495,1.42554225 L5.48635495,1.46204178 L5.39139399,1.48971078 L5.36983844,1.56800817 L5.23875736,1.63865243 L5.23875736,1.74520752 L5.20263724,1.80172292 L5.12224084,1.87236718 L5.05640901,1.97833357 L5.02786246,2.02778455 L5.03427087,2.11962208 L4.9696042,2.18437932 L4.93989249,2.24678175 L4.92532793,2.2891683 L4.87464324,2.36098996 L4.87464324,2.48814963 L4.81638498,2.70655812 L4.71443303,2.89847502 L4.59791652,2.8914106 L4.55422282,2.92673273 L4.53091952,2.96440966 L4.54723183,2.90259594 L4.58335195,2.83960481 L4.63461922,2.73363842 L4.65675736,2.63414776 L4.67773033,2.58469678 L4.69986847,2.46460154 L4.69986847,2.32978875 L4.69986847,2.18084711 L4.74356216,2.03896989 L4.75812673,1.83410154 L4.72958018,1.76404599 L4.72958018,1.6863373 L4.6853039,1.63629762 L4.64976637,1.50854925 L4.63461922,1.45203385 L4.52567628,1.38197829 L4.43770631,1.30368091 L4.40857718,1.22538352 L4.37245706,1.34606746 L4.2774961,1.41730042 L4.25594054,1.45968697 L4.20525586,1.52974253 L4.17554414,1.61510434 L4.19010871,1.73578828 L4.14641502,1.8494078 L4.13942402,1.99717204 L4.16097958,2.05427614 L4.14641502,2.20969351 L4.16797057,2.40808613 L4.22622883,2.5075768 L4.22622883,2.63414776 L4.32876336,2.77543627 L4.42314174,3.13513329 L4.38702162,3.18811648 L4.3275982,3.30173599 L4.25535796,3.3865091 L4.21865526,3.45774206 L4.17437898,3.61963515 L4.14641502,3.66261041 L4.14641502,3.69734384 L4.18253514,3.78329435 L4.26234895,3.69027941 L4.35730991,3.55723273 L4.38003063,3.51543487 L4.46450511,3.48776587 L4.56004865,3.47363702 L4.69812072,3.48776587 L4.8292018,3.44596802 L4.93057117,3.48658847 L5.05466126,3.53368464 L5.20088949,3.53368464 L5.26613874,3.56311975 L5.36867327,3.54663609 L5.50674535,3.53898296 L5.6086973,3.56665196 L5.72521381,3.57136158 L5.83415676,3.56900677 L5.98038498,3.56900677 L6.0234961,3.49718511 L6.10330991,3.49718511 L6.22798258,3.49659641 L6.32236096,3.43596008 L6.44645105,3.4118233 L6.54082943,3.33411461 L6.64977237,3.30526821 L6.75871532,3.28289753 Z M4.14641502,3.69734384 L4.08640901,3.53486204 L4.00543003,3.47834664 L4.00543003,3.36531583 L4.00543003,3.22402731 L4.00543003,3.06743254 L3.98795255,2.96205486 L3.95765826,2.81311321 L3.87376637,3.01209454 L3.84521982,3.1386655 L3.77414474,3.31586485 L3.74501562,3.3859204 L3.68675736,3.45008894 L3.65063724,3.56370845 L3.61451712,3.61904645 L3.59237898,3.70440826 L3.54169429,3.76210107 L3.51955616,3.89632516 L3.47586246,3.9881627 L3.4612979,4.06646008 L3.41003063,4.18655532 L3.39604865,4.29958613 L3.37449309,4.47619678 L3.4176042,4.58275187 L3.38905766,4.65339613 L3.35468529,4.78114449 L3.40012673,4.92949743 L3.40012673,5.0572458 L3.44848108,5.23385644 L3.48984444,5.30273459 L3.44673333,5.36808053 L3.37449309,5.53115103 L3.35934595,5.69422152 L3.35118979,5.76780929 L3.33720781,5.89202544 L3.28244505,5.96443581 L3.25681141,5.99858053 L3.24632492,6.04273319 L3.23525586,6.08982937 L3.25681141,6.16753805 L3.27836697,6.22758567 L3.27953213,6.23052918 L3.27894955,6.23170658 L3.21428288,6.06922479 L3.25797658,5.89202544 L3.25797658,5.75721265 L3.28652312,5.60885971 L3.31506967,5.4952402 L3.33196456,5.51702218 L3.36458919,5.36160481 L3.36458919,5.19794561 L3.34012072,4.99248856 L3.29467928,4.8370712 L3.22185646,4.60394514 L3.15602462,4.46913235 L3.08961021,4.37788352 L3.04591652,4.2360063 L2.94454715,4.02289613 L2.8524991,3.86865616 L2.72374835,3.66261041 L2.72374835,3.65554599 L2.66549009,3.52014449 L2.65442102,3.47834664 L2.66199459,3.48305626 L2.64917778,3.45774206 L2.64335195,3.61904645 L2.62296156,3.83215663 L2.57985045,3.92340546 L2.55946006,3.99522712 L2.50935796,4.05939566 L2.50935796,4.12945121 L2.5448955,4.20068417 L2.53673934,4.25719958 L2.53091351,4.33431956 L2.50935796,4.38435924 L2.50935796,4.4550035 L2.50935796,4.53271218 L2.50935796,4.63220285 L2.5314961,4.68812955 L2.50935796,4.73816923 L2.50935796,4.77349136 L2.52974835,4.8370712 L2.54431291,4.87298203 L2.51984444,5.0572458 L2.5448955,5.09904365 L2.5448955,5.13495448 L2.5949976,5.21266317 L2.5949976,5.34747596 L2.60606667,5.42459594 L2.70277538,5.53115103 L2.7254961,5.61592414 L2.79773634,5.77899463 L2.89327988,5.88496102 L2.99523183,5.9909274 L3.11873934,6.05509594 L3.17000661,6.1816669 L3.22243904,6.30235084 L3.22243904,6.47189706 L3.22243904,6.57727474 L3.25098559,6.67735411 L3.28302763,6.71326494 L3.29176637,6.70561181 L3.3575982,6.63496755 L3.36458919,6.61377428 L3.36458919,6.52841246 L3.35818078,6.3729951 L3.38847508,6.23994841 L3.50499159,6.08335364 L3.58538799,6.01859641 L3.85512372,5.99858053 L4.05145405,5.92028315 L4.20467327,5.86376774 L4.34973634,5.80077661 L4.52451111,5.7436725 L4.6486012,5.69422152 L4.8594961,5.54527988 L5.12981441,5.38986251 L5.33313574,5.17734104 L5.44207868,4.99248856 L5.55218679,4.84472432 L5.74094354,4.618074 L5.82133994,4.49797876 L5.95242102,4.34844841 L5.76308168,4.43263282 L5.67569429,4.43263282 L5.51548408,4.4550035 L5.36983844,4.46206793 L5.27487748,4.47325327 L5.11466727,4.54213142 L4.99115976,4.54801844 L4.81638498,4.59688072 L4.62005465,4.6463317 L4.53208468,4.72462908 L4.47382643,4.73816923 L4.36488348,4.87298203 L4.26992252,4.8941753 C4.26992252,4.8941753 4.19010871,4.97953711 4.160397,4.99248856 C4.12369429,5.00779482 4.09456517,5.04252824 4.09456517,5.04252824 L4.02931592,5.12023693 L3.98562222,5.16968791 L3.97863123,5.21266317 L3.94251111,5.25504972 L3.89124384,5.26917857 L3.83298559,5.38220938 L3.78171832,5.41812021 L3.74501562,5.45991807 L3.65762823,5.59473086 L3.62966426,5.72247923 L3.57781441,5.84198576 L3.57024084,5.9061543 L3.43974234,6.05509594 L3.48343604,5.85729202 L3.51955616,5.75073693 L3.59237898,5.62298856 L3.63607267,5.45991807 L3.76016276,5.29684757 L3.86968829,5.18381676 L4.00076937,4.99248856 L4.05902763,4.85120005 L4.15282342,4.73816923 L4.16797057,4.55449416 L4.1970997,4.29958613 L4.16855315,4.15888632 L4.18253514,4.22187745 L4.23321982,4.17890219 L4.34973634,4.10119351 L4.36488348,4.09236298 L4.36488348,4.09471779 C4.4010036,4.20009547 4.49596456,4.27132843 4.61248108,4.27132843 C4.75754414,4.27132843 4.87464324,4.15829762 4.87464324,4.00935598 C4.87464324,3.86865616 4.75754414,3.74738352 4.61248108,3.74738352 C4.46625285,3.74738352 4.34973634,3.86865616 4.34973634,4.00935598 C4.34973634,4.02289613 4.34973634,4.03643627 4.35672733,4.05056513 L4.24079339,4.12945121 L4.16797057,4.15770892 L4.21108168,3.86041433 L4.14641502,3.69734384 Z M2.92182643,6.68500724 L2.91541802,6.67676541 L2.91541802,6.67676541 L2.99523183,6.72032937 L3.08203664,6.76978035 L3.11873934,6.83336018 L3.14786847,6.89752871 L3.14786847,6.96817297 L3.16301562,7.03881723 C3.17000661,7.01055952 3.17758018,6.94639099 3.20612673,6.91106886 L3.17758018,6.8115782 L3.12631291,6.73386951 L3.03193453,6.66381396 L2.95095556,6.6208387 L2.94396456,6.61495168 L2.94454715,6.61377428 L2.94454715,6.57079902 C2.94454715,6.42244608 2.83502162,6.29469771 2.69636697,6.29469771 C2.56586847,6.29469771 2.44876937,6.42244608 2.44876937,6.57079902 C2.44876937,6.72032937 2.56586847,6.84807773 2.69636697,6.84807773 C2.79831892,6.84807773 2.88628889,6.77625607 2.92182643,6.68500724 L2.92182643,6.68500724 Z"/>
    </g>
    <polygon fill="#00A3DA" points="26.971 21.556 27.687 21.556 27.687 5.389 26.971 5.389"/>
    <path fill="#00A3DA" d="M10.3925659,20.015873 C9.05207678,20.015873 7.79198209,19.2917716 6.84705671,17.9764367 C5.90737445,16.6692248 5.38888889,14.933238 5.38888889,13.0864313 C5.38888889,11.2402047 5.90737445,9.50305756 6.84705671,8.19642583 C7.79198209,6.88225137 9.05207678,6.15873016 10.3925659,6.15873016 C11.7336375,6.15873016 12.9925671,6.88225137 13.9386576,8.19642583 C14.8783398,9.50305756 15.3968254,11.2402047 15.3968254,13.0864313 C15.3968254,14.933238 14.8783398,16.6692248 13.9386576,17.9764367 C12.9925671,19.2917716 11.7336375,20.015873 10.3925659,20.015873 M10.3925659,6.30030127 C7.71275283,6.30030127 5.53103549,9.34466038 5.53103549,13.0864313 C5.53103549,16.8293626 7.71275283,19.8731415 10.3925659,19.8731415 C13.0741266,19.8731415 15.2535137,16.8293626 15.2535137,13.0864313 C15.2535137,9.34466038 13.0741266,6.30030127 10.3925659,6.30030127"/>
  </g>
</svg>
