<svg xmlns="http://www.w3.org/2000/svg" xmlns:xlink="http://www.w3.org/1999/xlink" width="99" height="36" viewBox="0 0 99 36">
    <defs>
        <path id="a" d="M.202.376h15.411v34.623H.202z"/>
    </defs>
    <g fill="none" fill-rule="evenodd" opacity=".644">
        <g transform="translate(8.5)">
            <mask id="b" fill="#fff">
                <use xlink:href="#a"/>
            </mask>
            <path fill="#FEFEFE" d="M6.573.437c-4.513 2.587 3.133 9.408 7.35 15.746 1.752 2.634 2.876 7.204-.431 10.468-1.25 1.161-3.283 4.12.693 8.348H8.987c-.767-.535-4.18-3.144-2.554-6.157.456-1.141 3.389-2.407 4.568-4.54C15.228 15.454-5.632 4.268 1.828.375l4.745.062z" mask="url(#b)"/>
        </g>
        <path fill="#FEFEFE" d="M8.433 8s-9.408 2.52 3.8 14.184C16.4 25.967 23.13 30.897 19.426 35h-4.559l.765-1.069c1.717-2.684-.895-5.637-8.165-11.789 0 0-12.805-10.617-3.692-14.122L8.433 8z"/>
        <path fill="#FEFEFE" d="M11.156 35C8.473 33.356 3.42 24.277 9.058 24.217c0 0 3.09.004 3.61-1.185.886-1.9.578-6.852-5.011-10.021L12.505 13c4.827 2.819 6.196 9.138 3.93 10.09-1.955 1.128-4.182.507-5.107 2.684-.557 1.937 1.855 6.763 5.337 9.226h-5.51zM44.17 35l-1.515-4.578H34.48L32.86 35H29.5l8.925-22h.795l8.28 22h-3.33zm-5.49-16.311l-3.405 9.556H41.8l-3.12-9.556zM62.666 36L52.142 20.133v15.57H49.5V14h1.112l10.247 15.007V14H63.5v22zM71.47 16.58v5.834h7.191v2.437h-7.19v7.568h9.865V35H68.5V14h13v2.58zM87.57 26.97V35H84.5V14.142c2.323-.094 3.725-.142 4.207-.142 6.528 0 9.793 2.027 9.793 6.08 0 4.688-2.886 7.032-8.658 7.032-.348 0-1.106-.047-2.272-.142m0-10.265v7.702c1.3.096 1.986.143 2.057.143 3.807 0 5.711-1.39 5.711-4.172 0-2.543-2.032-3.815-6.095-3.815-.41 0-.967.047-1.673.142"/>
    </g>
</svg>
