<?xml version="1.0" encoding="UTF-8"?>
<svg width="98px" height="25px" viewBox="0 0 98 25" version="1.1" xmlns="http://www.w3.org/2000/svg" xmlns:xlink="http://www.w3.org/1999/xlink">
    <!-- Generator: Sketch 52.2 (67145) - http://www.bohemiancoding.com/sketch -->
    <title>Group 18</title>
    <desc>Created with Sketch.</desc>
    <g id="Symbols" stroke="none" stroke-width="1" fill="none" fill-rule="evenodd">
        <g id="footer" transform="translate(-70.000000, -225.000000)" fill="#BED7F4">
            <g id="Group-4">
                <g id="Group-18" transform="translate(70.000000, 225.000000)">
                    <path d="M27,24.15615 L27,0.843849988 C27,0.377981626 27.375694,0 27.8390045,0 L31.680152,0 L31.6811747,0 C31.9518653,0 32.1928959,0.129083643 32.3463099,0.329231952 L42.0720803,14.7131322 L42.0720803,0.843849988 L42.0717393,0.843849988 C42.0717393,0.377981626 42.4474334,0 42.9107439,0 L47.1609955,0 C47.624306,0 48,0.377981626 48,0.843849988 L48,24.15615 C48,24.6220184 47.624306,25 47.1609955,25 L44.3391993,25 L44.1213513,25 C43.6904283,25 43.2104127,24.6992626 42.9516543,24.3545818 C42.6928959,24.009901 32.93542,9.58411722 32.93542,9.58411722 L32.9296243,24.15615 L32.9323517,24.15615 C32.9323517,24.6220184 32.5566577,25 32.0933472,25 L27.8390045,25 C27.375694,25 27,24.6220184 27,24.15615" id="Fill-2"></path>
                    <path d="M77,24.15217 C77,24.6179616 77.3740121,24.995881 77.8352485,24.995881 L77.8352485,25 L81.9649939,25 L81.9649939,24.995881 C82.4262303,24.995881 82.8002424,24.6179616 82.8002424,24.15217 L82.8002424,20.3661115 C82.8002424,19.9003199 83.1739152,19.5224006 83.6351515,19.5224006 L83.6351515,19.5220573 L88.3466182,19.5220573 C93.6659394,19.5220573 98,15.1449206 98,9.77098293 C98,4.39567229 93.6659394,0 88.3466182,0 L77.8362667,0.00274600799 L77.8352485,0.00274600799 C77.3740121,0.00274600799 77,0.380665358 77,0.846456963 L77,24.15217 Z M82.7982061,13.9737482 L82.7982061,5.56444194 C82.7982061,5.06020623 83.2027636,4.65139429 83.7020121,4.65139429 L87.4010667,4.64727527 C90.1915636,4.64727527 92.4617697,6.94293795 92.4617697,9.76274491 C92.4617697,12.5835816 90.1915636,14.873409 87.4010667,14.873409 L87.4010667,14.8867958 L83.7020121,14.8867958 C83.2027636,14.8867958 82.7982061,14.4779839 82.7982061,13.9737482 Z" id="Fill-4"></path>
                    <path d="M52,0.843849988 L52,24.15615 C52,24.6220184 52.3745282,25 52.836401,25 L70.163599,25 C70.6254718,25 71,24.6220184 71,24.15615 L71,21.22499 C71,20.7587784 70.6254718,20.3811401 70.163599,20.3811401 L70.163599,20.3766771 L58.7435471,20.3766771 C58.2816743,20.3766771 57.9074859,19.9990387 57.9074859,19.5331704 L57.9074859,15.3705662 C57.9074859,14.9046978 58.2816743,14.5270595 58.7435471,14.5270595 L66.4336106,14.5270595 C66.8954834,14.5270595 67.2696718,14.1490779 67.2696718,13.6832095 L67.2696718,11.3137007 C67.2696718,10.8478324 66.8954834,10.4698507 66.4336106,10.4698507 L58.7435471,10.4698507 C58.2816743,10.4698507 57.9074859,10.0922124 57.9074859,9.62634405 L57.9074859,5.46030678 C57.9074859,4.99443842 58.2816743,4.61645679 58.7435471,4.61645679 L58.7435471,4.61508356 L70.163599,4.61508356 L70.163599,4.61645679 C70.6254718,4.61645679 71,4.23881847 71,3.7726068 L71,0.843849988 C71,0.377981626 70.6254718,0 70.163599,0 L52.836401,0 C52.3745282,0 52,0.377981626 52,0.843849988" id="Fill-6"></path>
                    <path d="M5.84827297,14.7229202 L5.84827297,9.54736842 L5.84115168,9.54736842 C5.84115168,6.97996604 7.93108014,4.89066214 10.5001696,4.89066214 C13.0706154,4.89066214 15.1598656,6.97996604 15.1598656,9.54736842 L15.1605439,14.7229202 C15.1605439,15.1837012 14.7868458,15.5575552 14.3259967,15.5575552 L6.68282009,15.5575552 C6.22197103,15.5575552 5.84827297,15.1837012 5.84827297,14.7229202 M15.9859351,25 L20.1654529,25 C20.6263019,25 21,24.626146 21,24.165365 L21,10.493039 L20.9932178,10.493039 C20.9932178,4.70526316 16.2836727,0 10.5001696,0 C4.7129362,0 0.00813861482,4.70526316 0.00813861482,10.493039 L0,10.493039 L0,24.165365 C0,24.626146 0.373698064,25 0.834547128,25 L5.01372584,25 C5.4745749,25 5.84827297,24.626146 5.84827297,24.165365 L5.84827297,20.4281834 C5.84827297,19.9674024 6.22197103,19.5938879 6.68282009,19.5938879 L14.3168408,19.5938879 C14.7776899,19.5938879 15.1513879,19.9674024 15.1513879,20.4281834 L15.1513879,24.165365 C15.1513879,24.626146 15.525086,25 15.9859351,25" id="Fill-8"></path>
                </g>
            </g>
        </g>
    </g>
</svg>