<?xml version="1.0" encoding="UTF-8"?>
<svg width="126px" height="98px" viewBox="0 0 126 98" version="1.1" xmlns="http://www.w3.org/2000/svg" xmlns:xlink="http://www.w3.org/1999/xlink">
    <!-- Generator: Sketch 52.2 (67145) - http://www.bohemiancoding.com/sketch -->
    <title>Group 3</title>
    <desc>Created with Sketch.</desc>
    <g id="Page-1" stroke="none" stroke-width="1" fill="none" fill-rule="evenodd">
        <g id="iconos" transform="translate(-371.000000, -256.000000)">
            <g id="Group-3" transform="translate(371.000000, 256.883301)">
                <g id="Group-3-Copy" transform="translate(36.000000, 0.000000)">
                    <g id="Group-4-Copy-5" fill="#E3ECF6">
                        <g id="Group">
                            <path d="M60.5,4.15321248 L74.5,12.2361163 C84.0914334,17.7737329 90,28.0076705 90,39.0829038 L90,55.2487113 C90,66.3239446 84.0914334,76.5578822 74.5,82.0954988 L60.5,90.1784026 C50.9085666,95.7160192 39.0914334,95.7160192 29.5,90.1784026 L15.5,82.0954988 C5.90856662,76.5578822 2.72200282e-15,66.3239446 -3.55271368e-15,55.2487113 L-2.13162821e-14,39.0829038 C-3.25093902e-14,28.0076705 5.90856662,17.7737329 15.5,12.2361163 L29.5,4.15321248 C39.0914334,-1.38440416 50.9085666,-1.38440416 60.5,4.15321248 Z" id="Polygon"></path>
                        </g>
                    </g>
                    <g id="Group-10-Copy-4" transform="translate(48.000000, 25.000000)">
                        <path d="" id="Path-4" stroke="#979797"></path>
                        <g id="Group-7" fill="#FFFFFF">
                            <circle id="Oval-4" cx="10" cy="10" r="10"></circle>
                        </g>
                        <path d="" id="Path-5" stroke="#979797"></path>
                    </g>
                    <path d="M12,69.9077713 C15.3333333,75.2411047 20.3333333,79.2411047 27,81.9077713 C37,85.9077713 34.5,87.9077713 42.5,87.9077713 C50.5,87.9077713 56,88.9077713 69.5,78.9077713 C83,68.9077713 83.5,65.4077713 83.5,63.4077713 C83.5,61.4077713 71,52.9077713 52.5,59.4077713 C40.1666667,63.7411047 26.6666667,67.2411047 12,69.9077713 Z" id="Path-6-Copy-6" fill="#FFFFFF"></path>
                </g>
                <g id="Group-5-Copy" transform="translate(0.000000, 2.000000)">
                    <g id="Group-2">
                        <path d="M60.5,4.15321248 L74.5,12.2361163 C84.0914334,17.7737329 90,28.0076705 90,39.0829038 L90,55.2487113 C90,66.3239446 84.0914334,76.5578822 74.5,82.0954988 L60.5,90.1784026 C50.9085666,95.7160192 39.0914334,95.7160192 29.5,90.1784026 L15.5,82.0954988 C5.90856662,76.5578822 2.72200282e-15,66.3239446 -3.55271368e-15,55.2487113 L-2.13162821e-14,39.0829038 C-3.25093902e-14,28.0076705 5.90856662,17.7737329 15.5,12.2361163 L29.5,4.15321248 C39.0914334,-1.38440416 50.9085666,-1.38440416 60.5,4.15321248 Z" id="Polygon-Copy-10" fill="#E3ECF6"></path>
                        <g id="Group-7" transform="translate(29.000000, 49.000000)" fill="#FFFFFF">
                            <circle id="Oval-4" cx="10" cy="10" r="10"></circle>
                        </g>
                        <path d="M12,69.9077713 C15.3333333,75.2411047 20.3333333,79.2411047 27,81.9077713 C37,85.9077713 34.5,87.9077713 42.5,87.9077713 C50.5,87.9077713 56,88.9077713 69.5,78.9077713 C83,68.9077713 83.5,65.4077713 83.5,63.4077713 C83.5,61.4077713 71,52.9077713 52.5,59.4077713 C40.1666667,63.7411047 26.6666667,67.2411047 12,69.9077713 Z" id="Path-6-Copy-8" fill="#FFFFFF"></path>
                        <path d="M76.5,43.9997563 C76.9561144,43.3926715 77.6822005,43 78.5,43 C79.8807119,43 81,44.1192881 81,45.5 C81,46.8807119 79.8807119,48 78.5,48 C78.3314415,48 78.1667793,47.9833184 78.007574,47.9515161 L78.007574,48 L61.5,48 C59.5670034,48 58,46.4329966 58,44.5 C58,42.5670034 59.5670034,41 61.5,41 C62.1336747,41 62.7280176,41.1683994 63.2407179,41.4628872 C63.8891995,39.4535242 65.7748553,38 68,38 C70.7614237,38 73,40.2385763 73,43 C73,43.1756553 72.9909421,43.349195 72.9732679,43.5201775 C73.3955815,43.1940317 73.9251315,43 74.5,43 C75.3177995,43 76.0438856,43.3926715 76.5,43.9997563 Z" id="Combined-Shape-Copy-7" fill="#FFFFFF"></path>
                    </g>
                </g>
            </g>
        </g>
    </g>
</svg>