<svg xmlns="http://www.w3.org/2000/svg" xmlns:xlink="http://www.w3.org/1999/xlink" width="99" height="38" viewBox="0 0 99 38">
    <defs>
        <path id="a" d="M.144.054H15V36.9H.145z"/>
    </defs>
    <g fill="none" fill-rule="evenodd" opacity=".644">
        <path stroke="#FFF" stroke-width=".5" d="M14.5 38V15M38.5 38V15M59.5 38V15"/>
        <path fill="#FFF" d="M2.05 31.069c.985 0 1.808-.155 2.546-.931.663-.692 1.006-1.635 1.006-2.638 0-1.026-.353-2.017-1.049-2.698-.738-.727-1.55-.871-2.503-.871h-.652v7.138h.652zM.5 23h1.518c1.21 0 2.192.179 3.145 1.086.92.883 1.337 2.089 1.337 3.426 0 1.313-.428 2.47-1.316 3.354C4.222 31.82 3.26 32 1.997 32H.5v-9zM26.529 25.233l-1.502 3.44h2.97l-1.468-3.44zm-1.898 4.33L23.57 32H22.5l4.053-9 3.947 9h-1.083l-1.036-2.438h-3.75zM49.047 32h-1.12v-8.07H45.5V23h6v.93h-2.453zM70.53 25.233l-1.503 3.44h2.97l-1.467-3.44zm-1.899 4.33L67.571 32H66.5l4.053-9 3.947 9h-1.083l-1.036-2.438h-3.75zM86.824 15.995A62.776 62.776 0 0 0 79.5 11c3.645 6.593 6.355 14.373 7.65 23a81.27 81.27 0 0 0-.326-18.005"/>
        <g transform="translate(83.5)">
            <mask id="b" fill="#fff">
                <use xlink:href="#a"/>
            </mask>
            <path fill="#FFF" d="M.144.054C5.936 5.598 11.053 12.442 15 20.411 12.06 26.548 8.426 32.074 4.302 36.9 6.21 24.124 4.642 11.45.145.054" mask="url(#b)"/>
        </g>
    </g>
</svg>
