<?xml version="1.0" encoding="UTF-8"?>
<svg width="163px" height="102px" viewBox="0 0 163 102" version="1.1" xmlns="http://www.w3.org/2000/svg" xmlns:xlink="http://www.w3.org/1999/xlink">
    <!-- Generator: Sketch 52.2 (67145) - http://www.bohemiancoding.com/sketch -->
    <title>Group</title>
    <desc>Created with Sketch.</desc>
    <g id="Page-1" stroke="none" stroke-width="1" fill="none" fill-rule="evenodd">
        <g id="Intro-con-texto" transform="translate(-106.000000, -157.000000)">
            <g id="Group" transform="translate(106.000000, 157.000000)">
                <path d="M24.4758636,32.3917733 C24.0302417,32.3727041 23.5622829,32.3951385 23.0708704,32.4635634 C15.7209019,33.5033982 11.6622809,40.6913825 11.4523137,47.2568119 C11.4411452,47.6034235 11.4400284,48.0532334 11.4690664,48.5781985 C18.1701468,48.1373624 26.3957231,46.4738511 29.9517632,41.7861816 C31.2461885,40.0811666 31.300914,37.8332389 30.0991869,35.7715169 C29.1375819,34.1214662 27.2032033,32.5028237 24.4758636,32.3917733 M25.0666755,67.9794743 C23.6974214,67.9233883 22.3248167,67.7528868 20.9577963,67.4690916 C13.7697707,65.97496 8.52952575,61.3927322 6.28689748,55.0796899 C4.36927162,55.04716 3.11393588,54.94284 2.90508554,54.9248925 C1.152753,54.7712168 -0.141672377,53.2209992 0.0124524738,51.4643851 C0.163226784,49.707771 1.70559214,48.3863843 3.45680783,48.5591293 C3.93258455,48.5995112 4.48430684,48.6354063 5.09410516,48.6623275 C5.07623561,48.1317538 5.07511877,47.5955715 5.09410516,47.0504154 C5.3889527,37.8164131 11.3540312,27.6670871 22.184094,26.1370605 C27.6119692,25.3675603 32.8756679,27.8835791 35.5896055,32.5432056 C38.1025107,36.8550988 37.881375,41.8804061 35.0133126,45.6606038 C30.1282249,52.0970354 20.5657831,54.2238172 13.1398691,54.8508589 C14.605172,57.586735 17.3068243,60.1846394 22.2455206,61.2098918 C39.6392918,64.8296835 51.9011522,42.55456 52.0217717,42.3279725 C52.8605236,40.7777549 54.7926684,40.2045558 56.3350338,41.0447244 C57.8796328,41.8871364 58.4525752,43.826591 57.6138233,45.3768085 C57.4686332,45.6460214 53.9829545,52.034219 47.8849713,57.9468072 C40.7349185,64.8812826 32.9214586,68.2991646 25.0666755,67.9794743" id="Fill-73" fill="#00A3DA"></path>
                <path d="M81.8143811,2.52008343 L82.6921586,3.11581648 C84.0854743,4.06898936 84.4465781,5.95471359 83.50521,7.35926882 L83.07938,7.99395365 L77.1881642,3.97504684 L77.6139942,3.33921638 C78.5530912,1.93122423 80.4210654,1.56691056 81.8143811,2.52008343 Z M81.9756287,9.64940414 L79.8987139,12.7460704 L74.0018204,8.72601791 L76.0764641,5.62591477 L81.9756287,9.64940414 Z M67.0783927,31.8759751 C66.8592322,31.5322829 66.5708034,31.1954646 66.1722265,30.9193653 C65.4227658,30.4141378 64.6210699,30.3431081 64.0067391,30.3396712 C63.8931845,30.3373799 63.9045399,30.3522732 63.8023408,30.3557102 C63.7660033,30.2594764 63.7830365,30.2640589 63.7387501,30.1575144 C63.5070986,29.5824028 63.1448593,28.8572124 62.3988051,28.3474024 C61.9968216,28.0758856 61.5812116,27.9349718 61.1826347,27.8559226 L72.895798,10.3768858 L78.7892849,14.3969383 L67.0783927,31.8759751 Z M65.672586,33.4810174 C65.685077,33.5027846 65.6839415,33.5199692 65.6964325,33.5371538 L60.6852653,36.6922477 L59.1329731,35.6348215 L60.1685916,29.7679966 C60.1935736,29.7714335 60.2049291,29.7645597 60.22764,29.7679966 C60.6398434,29.7679966 61.0906554,29.8699586 61.2916472,30.0062898 C61.4915034,30.1380385 61.7492725,30.5287019 61.9071135,30.9159284 C62.0615478,31.2985723 62.1205962,31.602167 62.1205962,31.602167 L62.3079614,32.5828353 L63.2822604,32.3938046 C63.2822604,32.3938046 63.5809092,32.3342313 63.9931126,32.3376682 C64.405316,32.3411051 64.8618057,32.4384846 65.0571198,32.5759614 C65.256976,32.7122926 65.5192872,33.0972278 65.672586,33.4810174 Z M75.9697227,2.21992563 L75.5450282,2.85117353 L71.2515265,9.2633233 L58.3891901,28.4573839 L56,42 L67.5632711,34.7160178 L67.6859102,34.5407348 L80.4267431,15.5208116 L80.4301498,15.5208116 L84.724787,9.11324439 L85.1449393,8.48199649 C86.6881471,6.17696785 86.0851719,3.01958268 83.798181,1.46036599 L82.9272167,0.863487301 C80.6447681,-0.695729391 77.5129305,-0.0839573753 75.9697227,2.21992563 Z" id="Fill-75" fill="#194586"></path>
                <path d="M85.2899431,53.1258869 C85.2899431,51.2911904 83.7380502,49.7862633 81.4334495,49.7862633 C78.8443162,49.7862633 77.2448122,51.1971324 77.0566352,53.1258869 L85.2899431,53.1258869 Z M91.3116052,65.0247832 C89.4298358,66.1070162 86.2308278,67 83.0794309,67 C78.9860157,67 75.7870077,65.9653626 73.4812734,63.8960879 C71.1755391,61.7803508 70,59.0039417 70,55.5237978 C70,52.0901163 71.0349732,49.3159736 73.1525305,47.1991033 C75.2689543,45.082233 77.9975199,44 81.29175,44 C87.7362433,44 93.2897302,48.2813362 91.7367037,57.3573611 L77.0566352,57.3573611 C77.3853781,59.7575384 79.8804229,60.8862337 83.1270419,60.8862337 C85.902085,60.8862337 88.8188275,60.3218861 90.324243,59.6158849 L91.3116052,65.0247832 Z" id="Fill-77" fill="#00A3DA"></path>
                <polygon id="Fill-79" fill="#00A3DA" points="99 66 106 66 106 34 99 34"></polygon>
                <path d="M112.330767,66 L119.621329,66 L119.621329,43.7950429 L112.330767,43.7950429 L112.330767,66 Z M112,36.9767008 C112,34.6563883 113.561449,33 115.976048,33 C118.295979,33 120,34.6563883 120,36.9767008 C120,39.2970133 118.295979,40.9545423 115.976048,40.9545423 C113.561449,40.9545423 112,39.2970133 112,36.9767008 Z" id="Fill-81" fill="#00A3DA"></path>
                <path d="M126.952467,37.9110992 C126.952467,35.6290637 128.618423,34 130.952139,34 C133.381085,34 135,35.6290637 135,37.9110992 C135,40.1920128 133.381085,41.8221985 130.952139,41.8221985 C128.618423,41.8221985 126.952467,40.1920128 126.952467,37.9110992 Z M121.619571,69.3895018 C122.714145,69.7148658 123.666448,69.8539869 124.380102,69.8539869 C126.332896,69.8539869 127.333388,68.7836517 127.333388,66.686737 L127.333388,44.6629625 L134.66612,44.6629625 L134.66612,67.2454655 C134.66612,73.2063577 130.380757,76 126.000164,76 C123.856909,76 122.190952,75.674636 121,75.0227862 L121.619571,69.3895018 Z" id="Fill-82" fill="#00A3DA"></path>
                <path d="M151.5,50.4446689 C150.176164,50.4446689 149.081031,50.9149586 148.2146,51.855538 C147.39215,52.7961175 146.982025,54.0188707 146.982025,55.5237978 C146.982025,56.9822625 147.39215,58.206149 148.2146,59.1931908 C149.081031,60.1337702 150.176164,60.6040599 151.5,60.6040599 C152.822736,60.6040599 153.91787,60.1337702 154.7854,59.1931908 C155.651831,58.206149 156.063056,56.9822625 156.063056,55.5237978 C156.063056,54.0188707 155.651831,52.7961175 154.7854,51.855538 C153.91787,50.9149586 152.822736,50.4446689 151.5,50.4446689 M151.5,44 C154.830481,44 157.569414,45.0833662 159.7146,47.2942944 C161.904867,49.5040895 163,52.2317698 163,55.5237978 C163,58.816959 161.904867,61.5446393 159.7146,63.7544344 C157.569414,65.9189003 154.830481,67 151.5,67 C148.2146,67 145.475667,65.9189003 143.2854,63.7544344 C141.095133,61.5446393 140,58.816959 140,55.5237978 C140,52.2317698 141.095133,49.5040895 143.2854,47.2942944 C145.475667,45.0833662 148.2146,44 151.5,44" id="Fill-83" fill="#00A3DA"></path>
                <path d="M18.0833221,90.5764547 C17.8699795,86.0672801 14.9689722,82.8038972 10.3634819,82.8038972 C8.10250225,82.8038972 6.18354797,83.5336401 4.60661907,85.0363194 C3.07032685,86.4969418 2.21808539,88.3440325 2.09053137,90.5764547 L18.0833221,90.5764547 Z M18.7210922,100.110853 C16.5481587,101.355507 14.1156019,102 11.4290659,102 C8.06073678,102 5.28954104,101.011096 3.15611539,99.0787551 C1.06784162,97.1464141 0,94.6139107 0,91.5221651 C0,88.4713396 0.982053073,85.9820298 2.90100735,84.0064953 C4.81996164,81.9877673 7.29315506,81 10.2788222,81 C17.2299519,81 20.7269638,86.4116915 19.8735936,92.1223275 L2.0476371,92.1223275 C2.25985087,97.6624628 6.95225848,100.196103 11.3873005,100.196103 C14.0738365,100.196103 16.4183471,99.5516103 18.3384301,98.221705 L18.7210922,100.110853 Z" id="Fill-84" fill="#194586"></path>
                <path d="M36.2698885,90.834479 C40.1888476,91.5642219 42,93.3249256 42,96.2461705 C42,99.8096346 39.1762082,102 34.3315985,102 C31.6773234,102 29.2762082,101.485088 27.1684015,100.454127 L27.4639405,98.6081732 C29.4434944,99.6379973 31.6773234,100.154046 34.1620818,100.154046 C37.9973978,100.154046 40.0193309,98.9082544 40.0193309,96.3746143 C40.0193309,94.184249 38.6698885,93.1112314 34.6684015,92.4235453 L32.3933086,91.9938836 C28.8546468,91.3505277 27,89.4613802 27,86.8413532 C27,83.1903654 29.9074349,81 34.795539,81 C37.0282528,81 38.9665428,81.3444114 40.6516729,82.0309608 L40.398513,83.8348579 C38.7557621,83.1903654 36.9434944,82.8482273 34.8791822,82.8482273 C31.0438662,82.8482273 28.9806691,84.1349391 28.9806691,86.6685792 C28.9806691,88.6873072 30.0758364,89.6318809 33.4472119,90.2763735 L36.2698885,90.834479 Z" id="Fill-85" fill="#194586"></path>
                <path d="M58.2588439,83.0996597 L51.0620104,83.0996597 L51.0620104,95.4431326 C51.0620104,98.74312 52.7197988,100.284778 55.205327,100.284778 C56.6010555,100.284778 57.7785932,100.07151 58.7390946,99.6858115 L59,101.357926 C57.8224623,101.785597 56.5144718,102 55.0310052,102 C51.3667849,102 49.0555785,99.9852947 49.0555785,96.0852065 L49.0555785,83.0996597 L45,83.0996597 L45,81.4706525 L49.0117094,81.4706525 L49.0117094,75 L51.0620104,75 L51.0620104,81.4706525 L58.2588439,81.4706525 L58.2588439,83.0996597 Z" id="Fill-86" fill="#194586"></path>
                <path d="M78.119082,81 L80,81 L80,93.2760126 C80,95.8625739 79.1874253,97.9664033 77.5634077,99.5886611 C75.9812638,101.210919 73.7574348,102 70.9779315,102 C68.1995599,102 66.019868,101.210919 64.3947186,99.5886611 C62.8125747,97.9664033 62,95.9055092 62,93.4071393 L62,81 L63.880918,81 L63.880918,92.8373764 C63.880918,97.6159584 66.5744106,100.20252 70.9779315,100.20252 C75.4255894,100.20252 78.119082,97.6159584 78.119082,92.8373764 L78.119082,81 Z" id="Fill-87" fill="#194586"></path>
                <path d="M89.3191008,85.2142179 C87.7375061,86.8923404 86.9665211,88.9578096 86.9665211,91.4550564 C86.9665211,93.9944556 87.7375061,96.1032165 89.3191008,97.7824783 C90.9018276,99.4594615 92.912502,100.277447 95.3081029,100.277447 C97.8316351,100.277447 99.9691088,99.4161698 101.636746,97.7391866 C103.348536,96.0599248 104.203299,93.9500247 104.203299,91.4550564 C104.203299,89.0011013 103.348536,86.9344928 101.636746,85.2563703 C99.9691088,83.5782478 97.8316351,82.7169711 95.3081029,82.7169711 C92.912502,82.7169711 90.9018276,83.5349561 89.3191008,85.2142179 Z M106,72 L106,101.569362 L104.075368,101.569362 L104.075368,97.0920898 C102.36471,100.063267 98.8992399,102 95.1360181,102 C92.2694485,102 89.8330907,101.008848 87.9084587,98.9866707 C85.9826945,96.9644932 85,94.4239547 85,91.4550564 C85,88.4850188 85.9826945,86.0310637 87.9084587,84.0088862 C89.8330907,81.9855694 92.2694485,80.9522652 95.1360181,80.9522652 C98.8992399,80.9522652 102.321689,82.8468462 104.032347,85.7724528 L104.032347,72 L106,72 Z" id="Fill-88" fill="#194586"></path>
                <path d="M113.565621,101 L115.462483,101 L115.462483,81.1962428 L113.565621,81.1962428 L113.565621,101 Z M114.515143,73.0060553 C116.494952,73.0060553 116.494952,76.1299055 114.515143,76.1299055 C112.494952,76.2986716 112.494952,72.8361715 114.515143,73.0060553 Z" id="Fill-89" fill="#194586"></path>
                <path d="M126.320233,85.2522869 C124.737506,86.9266035 123.967653,88.9873884 123.967653,91.4789716 C123.967653,94.0126116 124.737506,96.11659 126.320233,97.7920433 C127.901828,99.4652233 129.912502,100.281353 132.308103,100.281353 C134.831635,100.281353 136.970241,99.4220298 138.637878,97.7488498 C140.349668,96.0733965 141.204432,93.9682815 141.204432,91.4789716 C141.204432,89.0305819 140.349668,86.9686604 138.637878,85.2943437 C136.970241,83.6200271 134.831635,82.7607037 132.308103,82.7607037 C129.912502,82.7607037 127.901828,83.5768336 126.320233,85.2522869 Z M143,81.4296617 L143,101.570338 L141.075368,101.570338 L141.075368,97.1032206 C139.36471,100.067659 135.900372,102 132.13715,102 C129.269448,102 126.833091,101.011096 124.908459,98.9935047 C122.982694,96.9759134 122,94.4411367 122,91.4789716 C122,88.5156698 122.982694,86.0672801 124.908459,84.0496888 C126.833091,82.0309608 129.269448,81 132.13715,81 C135.900372,81 139.322821,82.8902842 141.032347,85.8092558 L141.032347,81.4296617 L143,81.4296617 Z" id="Fill-90" fill="#194586"></path>
                <path d="M152.007982,80.4386362 L152.007982,83.815439 C152.487449,82.6318174 153.318139,81.7104492 154.495431,81.0524949 C155.717782,80.3516052 156.984035,80 158.250289,80 C159.428736,80 160.344922,80.1322871 161,80.4386362 L160.825544,82.2361165 C160.082659,81.9727027 159.209222,81.841576 158.206386,81.841576 C154.495431,81.841576 152.007982,84.5604244 152.007982,89.3378461 L152.007982,101 L150,101 L150,80.4386362 L152.007982,80.4386362 Z" id="Fill-91" fill="#194586"></path>
            </g>
        </g>
    </g>
</svg>