<svg xmlns="http://www.w3.org/2000/svg" width="32" height="32" viewBox="0 0 32 32">
    <path fill="#FFF" fill-rule="evenodd" d="M16 30C8.268 30 2 23.732 2 16S8.268 2 16 2s14 6.268 14 14-6.268 14-14 14zm9.059-18.844a7.72 7.72 0 0 1-2.134.557 3.588 3.588 0 0 0 1.633-1.955 7.73 7.73 0 0 1-2.361.859A3.797 3.797 0 0 0 19.484 9.5c-2.052 0-3.717 1.583-3.717 3.535 0 .277.033.547.097.805-3.089-.147-5.828-1.555-7.66-3.694a3.38 3.38 0 0 0-.503 1.777c0 1.227.656 2.31 1.653 2.943a3.863 3.863 0 0 1-1.684-.444v.044c0 1.712 1.282 3.142 2.981 3.467-.311.08-.64.124-.98.124-.24 0-.471-.023-.699-.066.473 1.406 1.846 2.428 3.471 2.456a7.703 7.703 0 0 1-4.615 1.51c-.3 0-.596-.017-.887-.048a10.9 10.9 0 0 0 5.697 1.591c6.837 0 10.574-5.387 10.574-10.06l-.012-.457a7.235 7.235 0 0 0 1.859-1.827z"/>
</svg>
