<?xml version="1.0" encoding="UTF-8"?>
<svg width="11px" height="8px" viewBox="0 0 11 8" version="1.1" xmlns="http://www.w3.org/2000/svg" xmlns:xlink="http://www.w3.org/1999/xlink">
    <!-- Generator: Sketch 52.2 (67145) - http://www.bohemiancoding.com/sketch -->
    <title>Listado</title>
    <desc>Created with Sketch.</desc>
    <g id="Page-1" stroke="none" stroke-width="1" fill="none" fill-rule="evenodd">
        <g id="Listado">
            <polygon id="Path" fill="#122254" points="3 8 11 8 11 6 3 6"></polygon>
            <polygon id="Path" fill="#122254" points="3 5 11 5 11 3 3 3"></polygon>
            <polygon id="Path" fill="#122254" points="3 0 3 2 11 2 11 0"></polygon>
            <path d="M1,3 C0.446666667,3 0,3.45333333 0,4 C0,4.54666667 0.453333333,5 1,5 C1.54666667,5 2,4.54666667 2,4 C2,3.45333333 1.55333333,3 1,3 Z" id="Path" fill="#3F5CB8"></path>
            <path d="M1,6 C0.446666667,6 0,6.45333333 0,7 C0,7.54666667 0.453333333,8 1,8 C1.54666667,8 2,7.54666667 2,7 C2,6.45333333 1.55333333,6 1,6 Z" id="Path-Copy-12" fill="#3F5CB8"></path>
            <path d="M1,0 C0.446666667,0 0,0.453333333 0,1 C0,1.54666667 0.453333333,2 1,2 C1.54666667,2 2,1.54666667 2,1 C2,0.453333333 1.55333333,0 1,0 Z" id="Path-Copy-13" fill="#3F5CB8"></path>
        </g>
    </g>
</svg>