<svg xmlns="http://www.w3.org/2000/svg" width="90" height="95" viewBox="0 0 90 95">
    <g fill="none" fill-rule="evenodd">
        <path fill="#E3ECF6" d="M60.5 4.153l14 8.083A31 31 0 0 1 90 39.083v16.166a31 31 0 0 1-15.5 26.846l-14 8.083a31 31 0 0 1-31 0l-14-8.083A31 31 0 0 1 0 55.25V39.083a31 31 0 0 1 15.5-26.847l14-8.083a31 31 0 0 1 31 0z"/>
        <path fill="#FFF" d="M37.31 25.268a6 6 0 1 0 7.677 9.216c.009.17.013.343.013.516 0 5.523-4.477 10-10 10s-10-4.477-10-10 4.477-10 10-10c.795 0 1.569.093 2.31.268zM11 69.908c3.333 5.333 8.333 9.333 15 12 10 4 7.5 6 15.5 6s13.5 1 27-9 14-13.5 14-15.5-12.5-10.5-31-4C39.167 63.74 25.667 67.24 11 69.908z"/>
    </g>
</svg>
