<svg xmlns="http://www.w3.org/2000/svg" width="21" height="18" viewBox="0 0 21 18">
    <g fill="#FFF" fill-rule="evenodd">
        <path fill-rule="nonzero" d="M1.904 17.994h17.174c.335.027.672-.038.97-.189.298-.15.546-.38.715-.662a1.666 1.666 0 0 0-.081-1.835L12.096.927a1.786 1.786 0 0 0-.67-.678 1.867 1.867 0 0 0-1.87.002 1.786 1.786 0 0 0-.668.68L.3 15.31a1.75 1.75 0 0 0-.079 1.829c.175.275.424.5.72.651.296.15.629.221.963.204zm-.287-1.951l8.588-14.377c.102-.171.22-.248.289-.248.067 0 .185.079.288.248l8.585 14.38a.43.43 0 0 1 .082.357.449.449 0 0 1-.371.121H1.904c-.204 0-.328-.057-.365-.12-.034-.057-.023-.19.078-.361z"/>
        <path d="M9.703 10.84c.015.278.077.55.183.808.05.11.132.202.237.265a.62.62 0 0 0 .35.086.632.632 0 0 0 .35-.09.606.606 0 0 0 .238-.265c.112-.251.175-.52.186-.794l.24-2.67a6.59 6.59 0 0 0 .04-.743 2.269 2.269 0 0 0-.18-1.008.805.805 0 0 0-.337-.334.836.836 0 0 0-.472-.09 1.045 1.045 0 0 0-.773.31 1.146 1.146 0 0 0-.293.823c0 .222.017.59.05 1.101l.181 2.602zM10.506 14.4c.262.002.515-.093.71-.265a.94.94 0 0 0 .312-.74.937.937 0 0 0-.305-.706 1.052 1.052 0 0 0-1.453.001.965.965 0 0 0-.298.706.924.924 0 0 0 .318.744c.198.17.453.263.716.26z"/>
    </g>
</svg>
