<svg xmlns="http://www.w3.org/2000/svg" width="26" height="26" viewBox="0 0 26 26">
    <path fill="#4A90E2" fill-rule="nonzero" stroke="#4A90E2" stroke-width=".5" d="M24.036 17.691l-4.97-2.56a1.78 1.78 0 0 0-2.467.918l-.574 1.426a.455.455 0 0 1-.284.267.476.476 0 0 1-.404-.05 21.774 21.774 0 0 1-3.912-3.119 21.806 21.806 0 0 1-3.118-3.909.474.474 0 0 1-.05-.403.456.456 0 0 1 .267-.285l1.428-.573a1.78 1.78 0 0 0 .918-2.467l-2.56-4.97a1.77 1.77 0 0 0-1.742-.958 7.139 7.139 0 0 0-1.936.472 5.733 5.733 0 0 0-1.887 1.247C-.695 6.167 1.11 13.571 6.77 19.231 10.486 22.946 14.952 25 18.556 25c1.887 0 3.537-.563 4.72-1.745.537-.54.96-1.181 1.244-1.888.241-.6.399-1.23.468-1.872a1.805 1.805 0 0 0-.952-1.804zm-.687 3.199c-.22.55-.55 1.05-.968 1.471-2.948 2.947-9.55 1.143-14.717-4.024S.691 6.569 3.639 3.62a4.472 4.472 0 0 1 1.471-.97 5.864 5.864 0 0 1 1.636-.388.504.504 0 0 1 .439.281l2.562 4.972a.515.515 0 0 1-.267.714l-1.427.573c-.474.19-.839.58-.997 1.064a1.74 1.74 0 0 0 .176 1.464 23.067 23.067 0 0 0 3.3 4.136 23.039 23.039 0 0 0 4.14 3.3c.437.273.973.337 1.463.176a1.722 1.722 0 0 0 1.063-.996l.574-1.427a.515.515 0 0 1 .714-.266l4.971 2.561a.527.527 0 0 1 .275.538 5.753 5.753 0 0 1-.383 1.537z"/>
</svg>
