<svg xmlns="http://www.w3.org/2000/svg" width="23" height="18" viewBox="0 0 23 18">
    <path fill="#FFF" fill-rule="evenodd" d="M20.647 4.484c.009.194.012.391.012.588C20.659 11.076 15.914 18 7.234 18A13.74 13.74 0 0 1 0 15.96c.37.041.744.063 1.126.063a9.703 9.703 0 0 0 5.861-1.945c-2.065-.037-3.806-1.351-4.407-3.156a4.944 4.944 0 0 0 2.131-.078C2.552 10.426.925 8.59.925 6.388V6.33c.637.34 1.366.544 2.138.567-1.265-.814-2.1-2.204-2.1-3.781 0-.833.234-1.614.64-2.284C3.93 3.58 7.406 5.39 11.327 5.58a4.435 4.435 0 0 1-.122-1.035c0-2.51 2.113-4.545 4.718-4.545 1.358 0 2.585.553 3.444 1.435A9.668 9.668 0 0 0 22.365.333a4.589 4.589 0 0 1-2.075 2.514A9.664 9.664 0 0 0 23 2.131a9.388 9.388 0 0 1-2.353 2.353"/>
</svg>
