<svg width="1043" height="351" viewBox="0 0 1043 351" fill="none" xmlns="http://www.w3.org/2000/svg">
<path fill-rule="evenodd" clip-rule="evenodd" d="M978.818 148.095V158.359C973.775 154.166 968.564 152.065 963.171 152.065C957.234 152.065 952.234 154.187 948.166 158.439C944.073 162.661 942.026 167.829 942.026 173.942C942.026 179.975 944.073 185.071 948.166 189.218C952.259 193.369 957.272 195.44 963.209 195.44C966.277 195.44 968.885 194.944 971.032 193.953C972.231 193.457 973.471 192.785 974.754 191.936C976.041 191.096 977.392 190.075 978.818 188.882V199.372C973.826 202.192 968.589 203.599 963.099 203.599C954.841 203.599 947.79 200.734 941.955 194.995C936.136 189.205 933.232 182.227 933.232 174.051C933.232 166.72 935.663 160.191 940.528 154.452C946.52 147.419 954.263 143.906 963.77 143.906C968.961 143.906 973.974 145.297 978.818 148.095" fill="white"/>
<path fill-rule="evenodd" clip-rule="evenodd" d="M1021.59 180.42L1013.02 160.855L1004.04 180.42H1021.59ZM1025.15 188.584H1000.41L993.976 202.558H984.579L1013.17 141.403L1040.76 202.558H1031.21L1025.15 188.584Z" fill="white"/>
<path fill-rule="evenodd" clip-rule="evenodd" d="M432.267 57.239V91.8749C432.267 96.8115 433.073 100.425 434.697 102.706C437.119 106.008 440.524 107.655 444.917 107.655C449.331 107.655 452.749 106.008 455.171 102.706C456.791 100.496 457.602 96.8829 457.602 91.8749V57.239H466.324V94.2781C466.324 100.345 464.425 105.336 460.631 109.26C456.365 113.629 451.129 115.818 444.917 115.818C438.702 115.818 433.473 113.629 429.233 109.26C425.439 105.336 423.544 100.345 423.544 94.2781V57.239H432.267Z" fill="white"/>
<path fill-rule="evenodd" clip-rule="evenodd" d="M481.319 114.777V53.3284L523.461 97.224V57.2398H532.179V118.281L490.037 74.4906V114.777H481.319Z" fill="white"/>
<path fill-rule="evenodd" clip-rule="evenodd" d="M547.186 114.778H555.904V57.2407H547.186V114.778Z" fill="white"/>
<path fill-rule="evenodd" clip-rule="evenodd" d="M573.853 57.239L589.833 97.114L606.037 57.239H615.582L589.647 119.1L564.308 57.239H573.853Z" fill="white"/>
<path fill-rule="evenodd" clip-rule="evenodd" d="M655.81 65.4005H632.644V79.2272H655.135V87.3904H632.644V106.616H655.81V114.779H623.921V57.2373H655.81V65.4005Z" fill="white"/>
<path fill-rule="evenodd" clip-rule="evenodd" d="M677.132 83.6609H679.9C688.158 83.6609 692.289 80.5183 692.289 74.2331C692.289 68.347 688.272 65.3976 680.238 65.3976H677.132V83.6609ZM687.985 90.2574L705.872 114.776H695.209L678.701 91.2237H677.131V114.776H668.414V57.239H678.629C686.263 57.239 691.778 58.6717 695.171 61.5286C698.914 64.7048 700.787 68.902 700.787 74.1242C700.787 78.1995 699.61 81.6993 697.264 84.6318C694.922 87.5601 691.829 89.4381 687.985 90.2574V90.2574Z" fill="white"/>
<path fill-rule="evenodd" clip-rule="evenodd" d="M748.381 65.7741L741.309 69.9502C739.984 67.6647 738.722 66.169 737.528 65.4758C736.279 64.6817 734.672 64.2826 732.701 64.2826C730.279 64.2826 728.27 64.9716 726.675 66.3371C725.076 67.6815 724.278 69.3704 724.278 71.4081C724.278 74.2146 726.371 76.4791 730.566 78.1933L736.33 80.546C741.018 82.4324 744.453 84.7348 746.622 87.4614C748.795 90.1797 749.879 93.5198 749.879 97.4733C749.879 102.767 748.107 107.145 744.563 110.598C740.993 114.077 736.566 115.816 731.275 115.816C726.262 115.816 722.118 114.337 718.852 111.363C715.632 108.401 713.624 104.229 712.826 98.8681L721.658 96.9271C722.059 100.305 722.755 102.637 723.755 103.935C725.553 106.418 728.169 107.657 731.612 107.657C734.334 107.657 736.591 106.754 738.389 104.939C740.182 103.128 741.081 100.83 741.081 98.053C741.081 96.9313 740.925 95.9104 740.617 94.9777C740.305 94.0492 739.815 93.1921 739.157 92.4106C738.495 91.6292 737.638 90.8981 736.591 90.2133C735.545 89.5327 734.296 88.8773 732.849 88.2597L727.27 85.9448C719.362 82.6215 715.409 77.7563 715.409 71.3535C715.409 67.0345 717.067 63.4213 720.384 60.514C723.705 57.5857 727.831 56.1194 732.777 56.1194C739.436 56.1194 744.638 59.3418 748.381 65.7741" fill="white"/>
<path fill-rule="evenodd" clip-rule="evenodd" d="M761.546 114.778H770.264V57.2407H761.546V114.778Z" fill="white"/>
<path fill-rule="evenodd" clip-rule="evenodd" d="M794.021 106.616H797.95C801.865 106.616 805.123 106.208 807.718 105.389C810.313 104.52 812.659 103.141 814.757 101.251C819.048 97.3478 821.192 92.2684 821.192 86.0084C821.192 79.698 819.073 74.5807 814.828 70.6567C811.014 67.1528 805.385 65.4008 797.95 65.4008H794.021V106.616ZM785.303 114.779V57.2373H797.426C803.236 57.2373 807.827 57.8129 811.199 58.9557C814.815 60.0774 818.098 61.9764 821.044 64.6569C827.006 70.0724 829.985 77.1895 829.985 86.0081C829.985 94.852 826.879 102.007 820.668 107.477C817.545 110.208 814.279 112.107 810.861 113.174C807.667 114.241 803.139 114.779 797.274 114.779H785.303Z" fill="white"/>
<path fill-rule="evenodd" clip-rule="evenodd" d="M869.643 92.6432L861.072 73.0775L852.089 92.6432H869.643ZM873.204 100.798H848.464L842.025 114.776H832.632L861.225 53.6257L888.804 114.776H879.26L873.204 100.798Z" fill="white"/>
<path fill-rule="evenodd" clip-rule="evenodd" d="M905.9 106.616H909.829C913.745 106.616 917.002 106.208 919.597 105.389C922.193 104.52 924.539 103.141 926.632 101.251C930.927 97.3478 933.071 92.2684 933.071 86.0084C933.071 79.698 930.953 74.5807 926.708 70.6567C922.893 67.1528 917.264 65.4008 909.829 65.4008H905.9V106.616ZM897.182 114.779V57.2373H909.305C915.116 57.2373 919.707 57.8129 923.078 58.9557C926.695 60.0774 929.978 61.9764 932.923 64.6569C938.885 70.0724 941.864 77.1895 941.864 86.0081C941.864 94.852 938.759 102.007 932.547 107.477C929.425 110.208 926.159 112.107 922.741 113.174C919.547 114.241 915.019 114.779 909.153 114.779H897.182Z" fill="white"/>
<path fill-rule="evenodd" clip-rule="evenodd" d="M432.266 193.11H436.194C440.11 193.11 443.368 192.698 445.963 191.883C448.554 191.013 450.9 189.631 452.997 187.745C457.289 183.842 459.436 178.762 459.436 172.498C459.436 166.192 457.318 161.07 453.073 157.146C449.254 153.647 443.625 151.895 436.194 151.895H432.266V193.11ZM423.544 201.273V143.731H435.672C441.482 143.731 446.073 144.307 449.445 145.445C453.061 146.563 456.344 148.462 459.285 151.147C465.248 156.566 468.231 163.679 468.231 172.498C468.231 181.346 465.125 188.501 458.91 193.967C455.791 196.702 452.525 198.601 449.107 199.668C445.913 200.735 441.381 201.273 435.52 201.273H423.544Z" fill="white"/>
<path fill-rule="evenodd" clip-rule="evenodd" d="M511.086 151.894H487.92V165.717H510.411V173.88H487.92V193.11H511.086V201.273H479.198V143.731H511.086V151.894Z" fill="white"/>
<path fill-rule="evenodd" clip-rule="evenodd" d="M548.155 143.733V193.111H565.148V201.27H539.438V143.733H548.155Z" fill="white"/>
<path fill-rule="evenodd" clip-rule="evenodd" d="M607.021 179.132L598.451 159.567L589.468 179.132H607.021ZM610.58 187.296H585.84L579.405 201.27H570.008L598.6 140.115L626.185 201.27H616.64L610.58 187.296Z" fill="white"/>
<path fill-rule="evenodd" clip-rule="evenodd" d="M655.417 170.151H658.185C666.443 170.151 670.574 167.013 670.574 160.723C670.574 154.837 666.557 151.896 658.523 151.896H655.417V170.151ZM666.27 176.747L684.157 201.27H673.494L656.986 177.718H655.417V201.27H646.699V143.733H656.915C664.548 143.733 670.063 145.161 673.456 148.018C677.199 151.195 679.072 155.396 679.072 160.614C679.072 164.689 677.895 168.189 675.549 171.121C673.207 174.05 670.114 175.928 666.27 176.747V176.747Z" fill="white"/>
<path fill-rule="evenodd" clip-rule="evenodd" d="M724.73 151.894H701.564V165.717H724.055V173.88H701.564V193.11H724.73V201.273H692.842V143.731H724.73V151.894Z" fill="white"/>
<path fill-rule="evenodd" clip-rule="evenodd" d="M744.901 169.852H748.154C756.163 169.852 760.168 166.785 760.168 160.651C760.168 154.715 756.041 151.74 747.783 151.74H744.901V169.852ZM744.901 177.902V201.27H736.183V143.733H746.061C750.901 143.733 754.555 144.069 757.024 144.733C759.522 145.405 761.716 146.674 763.611 148.539C766.932 151.766 768.59 155.841 768.59 160.761C768.59 166.025 766.818 170.201 763.273 173.285C759.733 176.369 754.952 177.902 748.943 177.902H744.901Z" fill="white"/>
<path fill-rule="evenodd" clip-rule="evenodd" d="M812.194 128.269L796.923 138.549L792.771 135.087L804.784 123.088L812.194 128.269ZM786.294 143.734V178.362C786.294 183.307 787.105 186.916 788.725 189.201C791.147 192.504 794.552 194.151 798.945 194.151C803.363 194.151 806.781 192.504 809.199 189.201C810.819 186.992 811.634 183.378 811.634 178.362V143.734H820.352V180.774C820.352 186.836 818.457 191.832 814.663 195.751C810.397 200.125 805.157 202.314 798.945 202.314C792.73 202.314 787.506 200.125 783.265 195.751C779.471 191.832 777.577 186.836 777.577 180.774V143.734H786.294Z" fill="white"/>
<path fill-rule="evenodd" clip-rule="evenodd" d="M842.922 193.11H848.31C852.251 193.11 855.146 192.337 856.994 190.795C858.94 189.136 859.914 187.027 859.914 184.464C859.914 181.981 858.978 179.893 857.108 178.204C855.285 176.54 852.028 175.704 847.34 175.704H842.922V193.11ZM842.922 168.439H845.656C848.897 168.439 851.272 167.721 852.783 166.297C854.29 164.864 855.045 162.759 855.045 159.978C855.045 157.268 854.273 155.214 852.724 153.81C851.18 152.407 848.935 151.705 845.989 151.705H842.922V168.439ZM834.203 201.273V143.731H842.883C846.752 143.731 849.833 144.029 852.128 144.626C854.449 145.218 856.407 146.227 858.006 147.643C859.627 149.109 860.91 150.937 861.859 153.121C862.83 155.331 863.319 157.566 863.319 159.831C863.319 163.956 861.732 167.439 858.568 170.301C861.631 171.347 864.053 173.17 865.825 175.779C867.623 178.367 868.518 181.367 868.518 184.799C868.518 189.295 866.923 193.097 863.728 196.206C861.808 198.113 859.652 199.441 857.255 200.193C854.635 200.907 851.352 201.273 847.411 201.273H834.203Z" fill="white"/>
<path fill-rule="evenodd" clip-rule="evenodd" d="M888.244 143.733V193.111H905.237V201.27H879.526V143.733H888.244Z" fill="white"/>
<path fill-rule="evenodd" clip-rule="evenodd" d="M913.509 201.272H922.227V143.734H913.509V201.272Z" fill="white"/>
<path fill-rule="evenodd" clip-rule="evenodd" d="M432.267 230.227V264.854C432.267 269.795 433.073 273.408 434.697 275.694C437.119 278.992 440.524 280.643 444.917 280.643C449.331 280.643 452.749 278.992 455.171 275.694C456.791 273.48 457.602 269.867 457.602 264.854V230.227H466.324V267.266C466.324 273.324 464.425 278.32 460.631 282.248C456.365 286.622 451.129 288.806 444.917 288.806C438.702 288.806 433.473 286.622 429.233 282.248C425.439 278.32 423.544 273.324 423.544 267.266V230.227H432.267Z" fill="white"/>
<path fill-rule="evenodd" clip-rule="evenodd" d="M491.189 256.645H493.961C502.219 256.645 506.346 253.507 506.346 247.217C506.346 241.331 502.329 238.39 494.299 238.39H491.189V256.645ZM502.042 263.241L519.933 287.76H509.266L492.758 264.212H491.189V287.76H482.471V230.227H492.687C500.32 230.227 505.835 231.655 509.228 234.512C512.971 237.688 514.844 241.89 514.844 247.108C514.844 251.183 513.671 254.683 511.325 257.615C508.979 260.548 505.886 262.422 502.042 263.241V263.241Z" fill="white"/>
<path fill-rule="evenodd" clip-rule="evenodd" d="M538.776 230.227V264.854C538.776 269.795 539.59 273.408 541.21 275.694C543.628 278.992 547.033 280.643 551.426 280.643C555.844 280.643 559.262 278.992 561.68 275.694C563.3 273.48 564.115 269.867 564.115 264.854V230.227H572.837V267.266C572.837 273.324 570.938 278.32 567.145 282.248C562.878 286.622 557.638 288.806 551.426 288.806C545.215 288.806 539.987 286.622 535.746 282.248C531.948 278.32 530.058 273.324 530.058 267.266V230.227H538.776Z" fill="white"/>
<path fill-rule="evenodd" clip-rule="evenodd" d="M618.696 257.801H642.576V259.7C642.576 264.024 642.061 267.851 641.04 271.178C640.04 274.262 638.356 277.14 635.989 279.825C630.621 285.837 623.798 288.841 615.515 288.841C607.43 288.841 600.505 285.938 594.745 280.123C588.981 274.283 586.099 267.28 586.099 259.108C586.099 250.756 589.032 243.681 594.893 237.866C600.754 232.026 607.89 229.11 616.299 229.11C620.815 229.11 625.03 230.022 628.95 231.85C632.693 233.686 636.373 236.656 639.993 240.773L633.782 246.697C629.039 240.408 623.262 237.269 616.451 237.269C610.337 237.269 605.21 239.37 601.071 243.567C596.927 247.689 594.855 252.856 594.855 259.066C594.855 265.477 597.163 270.758 601.78 274.905C606.096 278.753 610.772 280.682 615.814 280.682C620.106 280.682 623.958 279.245 627.376 276.371C630.794 273.468 632.706 269.998 633.107 265.965H618.696V257.801Z" fill="white"/>
<path fill-rule="evenodd" clip-rule="evenodd" d="M664.561 230.227V264.854C664.561 269.795 665.371 273.408 666.992 275.694C669.414 278.992 672.819 280.643 677.212 280.643C681.626 280.643 685.048 278.992 687.466 275.694C689.086 273.48 689.9 269.867 689.9 264.854V230.227H698.618V267.266C698.618 273.324 696.724 278.32 692.93 282.248C688.664 286.622 683.423 288.806 677.212 288.806C670.996 288.806 665.768 286.622 661.531 282.248C657.734 278.32 655.843 273.324 655.843 267.266V230.227H664.561Z" fill="white"/>
<path fill-rule="evenodd" clip-rule="evenodd" d="M742.683 265.627L734.113 246.065L725.129 265.627H742.683ZM746.242 273.79H721.502L715.067 287.759H705.669L734.262 226.609L761.846 287.759H752.301L746.242 273.79Z" fill="white"/>
<path fill-rule="evenodd" clip-rule="evenodd" d="M777.993 262.906L759.131 230.228H769.162L782.369 253.218L795.619 230.228H805.654L786.711 262.906V287.762H777.993V262.906Z" fill="white"/>
<path fill-rule="evenodd" clip-rule="evenodd" d="M310 191.598L309.907 0H0.156129V194.585C0.156129 195.951 0.0843939 196.947 0 197.85L0.320697 198.085C3.14367 280.768 71.2876 346.96 155.027 346.96C239.843 346.96 308.696 279.054 309.835 194.884L310.076 194.791C310.038 193.699 310 192.623 310 191.598V191.598ZM7.47792 208.311H50.4218V211.13H7.81128C7.75642 210.659 7.52856 208.781 7.47792 208.311V208.311ZM11.5478 230.137H48.293V225.209H10.3326L10.0161 223.793C9.45486 221.243 8.95694 218.663 8.53075 216.058H50.4197V223.793V225.209V226.608V230.137V232.246V272.36H48.293V232.246H12.1301C11.9318 231.54 11.7419 230.839 11.5478 230.137V230.137ZM22.855 259.45C19.5299 252.985 16.669 246.246 14.3102 239.284H22.855V259.45ZM28.509 269.445V239.284H41.2314V272.361H30.353C29.7285 271.399 29.1124 270.424 28.509 269.445V269.445ZM97.0687 316.719H75.3077C73.0333 315.362 68.898 312.476 68.898 312.476H97.0687V316.719ZM104.138 324.432V326.546H99.8975V323.731H104.138V324.432ZM104.138 318.106H99.8975V315.291H104.138V318.106ZM104.847 312.476H104.138H102.725H102.016H99.8975C99.8975 303.384 106.311 295.784 114.877 293.91L115.489 296.662L115.802 298.031L116.105 299.405C110.067 300.725 105.552 306.069 105.552 312.476H104.847ZM115.591 292.06H122.377L120.676 299.665L118.984 300.509L117.283 299.665L115.591 292.06ZM130.292 337.877C122.532 336.578 114.975 334.684 107.674 332.238V312.475C107.674 306.253 112.734 301.211 118.983 301.211C125.228 301.211 130.292 306.253 130.292 312.475V337.877ZM133.12 330.42C132.926 330.42 132.766 330.264 132.766 330.067C132.766 329.874 132.926 329.714 133.12 329.714C133.314 329.714 133.471 329.874 133.471 330.067C133.471 330.264 133.314 330.42 133.12 330.42V330.42ZM140.186 335.697H133.826V332.882H140.186V335.697ZM134.529 330.42C134.529 330.222 134.694 330.067 134.888 330.067C135.082 330.067 135.238 330.222 135.238 330.42C135.238 330.609 135.082 330.773 134.888 330.773C134.694 330.773 134.529 330.609 134.529 330.42V330.42ZM136.65 329.011C136.65 328.818 136.806 328.658 137.008 328.658C137.198 328.658 137.354 328.818 137.354 329.011C137.354 329.205 137.198 329.36 137.008 329.36C136.806 329.36 136.65 329.205 136.65 329.011V329.011ZM140.186 326.546H133.826V323.731H140.186V326.546ZM140.186 318.106H133.826V315.291H140.186V318.106ZM140.896 312.476H140.187H138.773H138.068H135.942H135.237H133.828H133.119H132.41C132.41 306.069 127.89 300.725 121.861 299.405L122.802 295.183L123.084 293.91C129.583 295.334 134.849 300.052 137.009 306.212C139.166 300.052 144.423 295.334 150.926 293.91L151.209 295.187L151.213 295.183L152.158 299.405H152.154C146.115 300.725 141.6 306.069 141.6 312.476H140.896ZM151.639 292.06H158.424L156.728 299.665L155.027 300.509L153.331 299.665L151.639 292.06ZM166.336 339.494C162.61 339.78 158.834 339.914 155.027 339.914C151.225 339.914 147.453 339.78 143.719 339.494V312.475C143.719 306.253 148.782 301.211 155.027 301.211C161.277 301.211 166.336 306.253 166.336 312.475V339.494ZM176.237 335.697H169.874V332.882H176.237V335.697ZM176.237 326.546H169.874V323.731H176.237V326.546ZM176.237 318.106H169.874V315.291H176.237V318.106ZM176.942 312.476H176.237H174.824H174.115H171.992H171.287H169.874H169.169H168.46C168.46 306.069 163.941 300.725 157.911 299.405L158.848 295.183L159.135 293.91C165.637 295.334 170.899 300.052 173.056 306.212C175.212 300.052 180.474 295.334 186.976 293.91L187.263 295.183L188.2 299.405C182.166 300.725 177.651 306.069 177.651 312.476H176.942ZM187.683 292.06H194.468L192.776 299.665L191.075 300.509L189.379 299.665L187.683 292.06ZM202.387 332.238C195.091 334.684 187.529 336.578 179.769 337.877V312.475C179.769 306.253 184.833 301.211 191.078 301.211C197.327 301.211 202.387 306.253 202.387 312.475V332.238ZM210.166 324.432V326.546H205.921V323.731H210.166V324.432ZM210.165 318.106H205.924V315.291H210.165V318.106ZM208.043 312.476H207.334H205.92H205.211H204.507C204.507 306.069 199.987 300.725 193.949 299.405L194.894 295.183L195.177 293.91C203.747 295.784 210.165 303.384 210.165 312.476H208.043ZM234.701 316.719H212.944V312.476H241.106C241.106 312.476 236.98 315.362 234.701 316.719V316.719ZM271.657 283.616C269.454 286.317 265.636 291.346 260.002 296.648C258.306 298.425 257.07 299.472 255.985 300.509H212.944V296.283H259.644V285.023H212.991H210.168V287.136H99.8985V285.023H97.0713H94.9488H50.4226V296.283H97.0713V296.989V300.509H54.0262C52.87 299.4 51.5408 298.287 49.663 296.283H49.6757C44.2534 291.115 40.5569 286.258 38.4049 283.616H38.4555C38.2699 283.38 38.0842 283.149 37.8985 282.918H50.4226V278.692H97.0713V279.574V280.805V281.507H212.991V278.692H259.644V282.918H272.168C271.978 283.149 271.792 283.38 271.611 283.616H271.657ZM155.028 163.974H210.167V168.133H155.028H99.8975V163.974H155.028ZM110.852 146.383C110.852 142.106 114.333 138.644 118.629 138.644C122.92 138.644 126.406 142.106 126.406 146.383C126.406 150.66 122.92 154.117 118.629 154.117C114.333 154.117 110.852 150.66 110.852 146.383V146.383ZM147.256 146.383C147.256 142.106 150.737 138.644 155.028 138.644C159.324 138.644 162.805 142.106 162.805 146.383C162.805 150.66 159.324 154.117 155.028 154.117C150.737 154.117 147.256 150.66 147.256 146.383V146.383ZM183.659 146.383C183.659 142.106 187.136 138.644 191.432 138.644C195.727 138.644 199.209 142.106 199.209 146.383C199.209 150.66 195.727 154.117 191.432 154.117C187.136 154.117 183.659 150.66 183.659 146.383V146.383ZM210.167 173.125V176.645H202.385V180.166H155.028H107.674V176.645H99.8975V173.125H210.167ZM202.386 187.905H107.674V185.09H202.386V187.905ZM215.815 193.536V190.019H255.4V193.536V196.35V198.464H210.165V203.392H99.8962V198.464H54.661V190.019H94.2418V193.536H215.815ZM210.867 187.905V185.094H211.289C217.121 178.204 225.856 173.831 235.612 173.831C245.363 173.831 254.094 178.204 259.925 185.094H260.347V186.498V187.905H210.867ZM246.205 258.987H255.396V260.399H246.205V258.987ZM255.402 269.542H246.212V268.13H255.402V269.542ZM246.205 249.838H255.396V251.249H246.205V249.838ZM246.205 240.686H255.396V242.102H246.205V240.686ZM246.205 231.54H255.396V232.943H246.205V231.54ZM246.205 222.391H255.396V223.794H246.205V222.391ZM244.093 211.13V217.462H242.498C240.953 219.596 238.442 220.982 235.611 220.982C232.771 220.982 230.26 219.596 228.72 217.462H227.125V211.13H215.816V205.504H255.401V211.13H244.093ZM242.674 269.542H228.543V231.54H242.674V269.542ZM215.816 258.987H225.003V260.399H215.816V258.987ZM225.006 269.542H215.82V268.13H225.006V269.542ZM215.816 249.838H225.003V251.249H215.816V249.838ZM215.816 240.686H225.003V242.102H215.816V240.686ZM215.816 231.54H225.003V232.943H215.816V231.54ZM215.816 222.391H225.003V223.794H215.816V222.391ZM197.195 217.461H202.385V225.208H196.735C195.444 226.914 193.389 228.023 191.077 228.023C188.764 228.023 186.714 226.914 185.422 225.208H179.768V217.461H184.958C185.258 216.944 185.621 216.482 186.034 216.058H165.197C163.366 212.31 159.501 209.722 155.028 209.722C150.559 209.722 146.698 212.31 144.858 216.058H124.03C124.439 216.482 124.802 216.944 125.102 217.461H130.292V225.208H124.638C123.346 226.914 121.296 228.023 118.983 228.023C116.667 228.023 114.616 226.914 113.325 225.208H107.674V217.461H112.86C113.16 216.944 113.523 216.482 113.936 216.058H99.8975V209.722H210.167V216.058H196.123C196.537 216.482 196.9 216.944 197.195 217.461V217.461ZM202.387 278.692H179.769V274.469H202.387V278.692ZM184.009 235.763H198.149V272.361H184.009V235.763ZM179.769 229.427H202.387V232.944H179.769V229.427ZM144.546 225.21H140.896V217.462H144.284C143.921 218.576 143.719 219.756 143.719 220.983C143.719 222.479 144.018 223.903 144.546 225.21V225.21ZM143.719 274.469H166.336V278.692H143.719V274.469ZM147.959 272.361V235.763H162.099V272.361H155.027H147.959ZM155.027 232.944H143.719V229.427H147.55C149.546 231.183 152.162 232.246 155.027 232.246C157.897 232.246 160.513 231.183 162.509 229.427H166.336V232.944H155.027ZM147.959 220.982C147.959 217.096 151.128 213.945 155.027 213.945C156.98 213.945 158.748 214.73 160.031 216.007C161.31 217.28 162.099 219.037 162.099 220.982C162.099 224.872 158.934 228.023 155.027 228.023C151.128 228.023 147.959 224.872 147.959 220.982V220.982ZM165.513 225.21C166.04 223.903 166.335 222.479 166.335 220.983C166.335 219.756 166.137 218.576 165.774 217.462H169.167V225.21H165.513ZM130.292 278.692H107.674V274.469H130.292V278.692ZM111.914 235.763H126.046V272.361H111.914V235.763ZM107.674 232.944V229.427H130.292V230.839V232.944H107.674ZM85.0562 258.987H94.2467V260.399H85.0562V258.987ZM94.2435 269.542H85.053V268.13H94.2435V269.542ZM85.0562 249.838H94.2467V251.249H85.0562V249.838ZM85.0562 240.686H94.2467V242.102H85.0562V240.686ZM85.0562 231.54H94.2467V232.943H85.0562V231.54ZM85.0562 222.391H94.2467V223.794H85.0562V222.391ZM82.933 211.13V217.462H81.3337C79.7978 219.596 77.287 220.982 74.4514 220.982C71.6115 220.982 69.1008 219.596 67.5606 217.462H65.9656V211.13H54.661V205.504H94.2418V211.13H82.933ZM81.52 269.542H67.384V231.54H81.52V269.542ZM54.661 249.838H63.8473V251.249H54.661V249.838ZM63.8537 260.399H54.6674V258.987H63.8537V260.399ZM54.661 240.686H63.8473V242.102H54.661V240.686ZM54.661 231.54H63.8473V232.943H54.661V231.54ZM54.661 222.391H63.8473V223.794H54.661V222.391ZM99.192 187.905H49.7118V185.094H50.1295C55.9654 178.204 64.6917 173.831 74.4519 173.831C84.2036 173.831 92.9341 178.204 98.77 185.094H99.192V187.905ZM54.661 268.135H63.8473V269.547H54.661V268.135ZM281.552 269.445C280.949 270.424 280.337 271.399 279.708 272.361H268.83V239.284H281.552V269.445ZM287.208 259.45V239.284H295.749C293.394 246.246 290.533 252.985 287.208 259.45V259.45ZM300.044 223.793L299.724 225.209H261.759V230.137H298.504C298.323 230.839 298.124 231.54 297.926 232.246H261.759V272.36H259.641V216.058H301.521C301.099 218.663 300.606 221.243 300.044 223.793V223.793ZM302.327 211.13H259.641V208.311H302.58C302.525 208.781 302.382 210.659 302.327 211.13V211.13ZM302.835 202.686H259.643V190.019H265.297V183.687H261.512C259.714 181.578 257.659 179.683 255.402 178.066V168.201H244.072C241.586 169.642 238.692 170.461 235.611 170.461C232.527 170.461 229.632 169.642 227.147 168.201H211.576V163.975H222.18V161.861H249.034V163.975H259.643V156.231H255.389C254.887 138.287 235.303 123.86 211.222 123.86C211.065 123.86 210.905 123.864 210.745 123.864C210.551 123.86 210.356 123.86 210.167 123.86H155.028H99.8975C99.7034 123.86 99.5093 123.86 99.3152 123.864C99.1548 123.864 98.9987 123.86 98.8341 123.86C74.7565 123.86 55.1729 138.287 54.6708 156.231H50.4215V156.937V163.975H61.0214V161.861H87.8798V163.975H98.4839V168.201H94.2431H82.9132C80.4278 169.642 77.5373 170.461 74.4527 170.461C71.3639 170.461 68.4776 169.642 65.988 168.201H54.6623V178.066C52.4006 179.683 50.3456 181.578 48.5522 183.687H44.7629V190.019H50.4215V202.686H7.22028V7.03739H302.835V202.686Z" fill="white"/>
<path fill-rule="evenodd" clip-rule="evenodd" d="M210.164 115.415L206.628 111.898V100.639H205.214V106.268H155.029H104.844V100.639H103.431V111.898L99.8945 115.415V119.637H210.164V115.415ZM109.818 112.6H104.847V107.651H109.818V112.6ZM116.173 112.6H111.202V107.651H116.173V112.6ZM122.537 112.6H117.567V107.651H122.537V112.6ZM128.902 112.6H123.931V107.651H128.902V112.6ZM135.263 112.6H130.293V107.651H135.263V112.6ZM141.622 112.6H136.651V107.651H141.622V112.6ZM147.983 112.6H143.012V107.651H147.983V112.6ZM154.349 112.6H149.374V107.651H154.349V112.6ZM160.684 112.6H155.713V107.651H160.684V112.6ZM167.042 112.6H162.071V107.651H167.042V112.6ZM173.411 112.6H168.436V107.651H173.411V112.6ZM179.768 112.6H174.798V107.651H179.768V112.6ZM186.131 112.6H181.156V107.651H186.131V112.6ZM192.491 112.6H187.521V107.651H192.491V112.6ZM198.85 112.6H193.879V107.651H198.85V112.6ZM205.212 112.6H200.237V107.651H205.212V112.6Z" fill="white"/>
<path fill-rule="evenodd" clip-rule="evenodd" d="M190.899 215.875C188.064 215.875 185.768 218.161 185.768 220.98C185.768 223.807 188.064 226.085 190.899 226.085C193.731 226.085 196.026 223.807 196.026 220.98C196.026 218.161 193.731 215.875 190.899 215.875" fill="white"/>
<path fill-rule="evenodd" clip-rule="evenodd" d="M118.978 226.086C121.814 226.086 124.11 223.805 124.11 220.982C124.11 218.162 121.814 215.877 118.978 215.877C116.147 215.877 113.852 218.162 113.852 220.982C113.852 223.805 116.147 226.086 118.978 226.086" fill="white"/>
<path fill-rule="evenodd" clip-rule="evenodd" d="M151.918 217.88L154.231 221.359C154.273 221.455 154.332 221.535 154.404 221.615C154.708 221.913 155.176 221.947 155.518 221.733C155.568 221.691 155.619 221.653 155.661 221.607C155.678 221.594 155.691 221.573 155.708 221.556L155.729 221.531C155.758 221.493 155.779 221.46 155.801 221.426L160.033 216.01L154.999 219.909L151.918 217.88Z" fill="white"/>
</svg>
