<svg width="900" height="634" viewBox="0 0 900 634" fill="none" xmlns="http://www.w3.org/2000/svg">
<g clip-path="url(#clip0_1404_7068)">
<path d="M256.216 298.531C249.126 298.531 243.38 304.284 243.38 311.367V445.282C243.38 452.372 249.126 458.11 256.216 458.11C263.29 458.11 269.052 452.372 269.052 445.282V311.367C269.052 304.284 263.29 298.531 256.216 298.531Z" fill="white"/>
<path d="M322.834 262.641H189.602C182.473 262.641 176.664 268.434 176.664 275.579C176.664 282.716 182.473 288.509 189.602 288.509H322.834C329.963 288.509 335.764 282.716 335.764 275.579C335.764 268.434 329.963 262.641 322.834 262.641Z" fill="white"/>
<path d="M483.473 262.641H401.349C394.212 262.641 388.419 268.434 388.419 275.579C388.419 282.716 394.212 288.509 401.349 288.509H483.473C490.618 288.509 496.411 282.716 496.411 275.579C496.411 268.434 490.618 262.641 483.473 262.641Z" fill="white"/>
<path d="M365.634 262.751C358.544 262.751 352.813 268.489 352.813 275.579V445.282C352.813 452.372 358.544 458.11 365.634 458.11C372.716 458.11 378.469 452.372 378.469 445.282V275.579C378.469 268.489 372.716 262.751 365.634 262.751Z" fill="white"/>
<path d="M613.083 258.704C562.982 258.704 519.2 295.002 513.391 341.354C512.503 348.389 517.502 354.795 524.521 355.676C525.072 355.746 525.598 355.778 526.125 355.778C532.515 355.778 538.025 351.038 538.835 344.546C543.072 310.794 575.668 284.36 613.083 284.36C635.249 284.36 656.259 293.996 670.722 310.786C675.352 316.154 683.448 316.752 688.809 312.13C694.185 307.5 694.79 299.404 690.161 294.035C670.817 271.579 642.708 258.704 613.083 258.704Z" fill="white"/>
<path d="M63.9039 429.971C41.7537 427.212 25.6638 405.533 25.6638 378.4V275.58C25.6638 268.49 19.9179 262.752 12.8358 262.752C5.74585 262.752 0 268.49 0 275.58V378.4C0 418.668 25.5616 451.052 60.7441 455.43C61.2865 455.501 61.8131 455.54 62.3476 455.54C68.7144 455.54 74.248 450.785 75.0576 444.292C75.9458 437.25 70.9467 430.843 63.9039 429.971Z" fill="white"/>
<path d="M881.047 76.8486C875.38 76.8486 870.781 81.4547 870.781 87.1063V159.091C870.781 164.758 875.38 169.348 881.047 169.348C886.714 169.348 891.312 164.758 891.312 159.091V87.1063C891.312 81.4547 886.714 76.8486 881.047 76.8486Z" fill="white"/>
<path d="M663.45 169.356C669.133 169.356 673.731 164.766 673.731 159.091V87.1141C673.731 81.4626 669.133 76.8564 663.45 76.8564C657.799 76.8564 653.185 81.4626 653.185 87.1141V159.091C653.185 164.766 657.799 169.356 663.45 169.356Z" fill="white"/>
<path d="M863 38.042L800.684 2.01843C795.763 -0.826988 789.483 0.855108 786.653 5.77563C783.816 10.6804 785.498 16.9608 790.402 19.7905L852.734 55.8062C854.338 56.7416 856.114 57.1896 857.844 57.1896C861.412 57.1896 864.839 55.3503 866.757 52.0569C869.587 47.1442 867.905 40.8717 863 38.042Z" fill="white"/>
<path d="M754.095 226.414L691.794 190.406C686.874 187.561 680.593 189.251 677.779 194.155C674.926 199.06 676.608 205.341 681.513 208.17L743.829 244.194C745.448 245.145 747.225 245.577 748.954 245.577C752.507 245.577 755.95 243.738 757.86 240.437C760.697 235.548 759.015 229.267 754.095 226.414Z" fill="white"/>
<path d="M686.68 57.1906C688.409 57.1906 690.185 56.7425 691.804 55.8072L754.121 19.7836C759.025 16.9539 760.707 10.6814 757.87 5.77661C755.024 0.856085 748.76 -0.826011 743.855 2.0194L681.523 38.043C676.618 40.8727 674.936 47.1452 677.782 52.0578C679.668 55.3513 683.127 57.1906 686.68 57.1906Z" fill="white"/>
<path d="M852.734 190.405L790.402 226.413C785.513 229.267 783.815 235.547 786.669 240.436C788.547 243.737 792.006 245.577 795.558 245.577C797.303 245.577 799.064 245.144 800.683 244.193L863 208.17C867.904 205.34 869.586 199.06 866.749 194.163C863.919 189.234 857.639 187.56 852.734 190.405Z" fill="white"/>
<path d="M772.258 14.0452C766.591 14.0452 761.993 18.6277 761.993 24.2949V96.2792C761.993 101.939 766.591 106.545 772.258 106.545C777.941 106.545 782.524 101.939 782.524 96.2792V24.2949C782.524 18.6277 777.941 14.0452 772.258 14.0452Z" fill="white"/>
<path d="M772.258 139.66C766.591 139.66 761.993 144.258 761.993 149.925V221.894C761.993 227.569 766.591 232.167 772.258 232.167C777.941 232.167 782.524 227.569 782.524 221.894V149.925C782.524 144.258 777.941 139.66 772.258 139.66Z" fill="white"/>
<path d="M795.496 119.97C797.256 119.97 799.001 119.546 800.62 118.618L862.984 82.6655C867.904 79.8358 869.586 73.5555 866.749 68.6507C863.919 63.738 857.655 62.0559 852.734 64.8777L790.371 100.823C785.466 103.652 783.768 109.925 786.598 114.838C788.5 118.131 791.958 119.97 795.496 119.97Z" fill="white"/>
<path d="M743.901 127.61L681.537 163.547C676.632 166.377 674.935 172.649 677.772 177.57C679.667 180.855 683.125 182.71 686.678 182.71C688.407 182.71 690.184 182.254 691.787 181.327L754.15 145.39C759.055 142.56 760.753 136.287 757.915 131.367C755.086 126.47 748.821 124.788 743.901 127.61Z" fill="white"/>
<path d="M754.15 100.814L691.787 64.8689C686.882 62.0471 680.602 63.7292 677.772 68.6419C674.935 73.5467 676.632 79.8349 681.537 82.6567L743.901 118.61C745.504 119.537 747.281 119.962 749.01 119.962C752.563 119.962 756.021 118.122 757.915 114.829C760.753 109.916 759.055 103.651 754.15 100.814Z" fill="white"/>
<path d="M790.367 145.391L852.73 181.32C854.334 182.255 856.11 182.711 857.831 182.711C861.4 182.711 864.827 180.856 866.745 177.563C869.583 172.65 867.9 166.378 862.98 163.54L800.617 127.611C795.704 124.789 789.431 126.471 786.594 131.368C783.764 136.288 785.462 142.553 790.367 145.391Z" fill="white"/>
<path d="M146.783 262.752C139.693 262.752 133.948 268.49 133.948 275.58V378.4C133.948 405.981 118.408 427.181 96.1633 429.971C89.1284 430.851 84.1449 437.257 85.0096 444.292C85.8349 450.785 91.3685 455.54 97.7353 455.54C98.2698 455.54 98.8122 455.501 99.3388 455.43C134.262 451.068 159.603 418.66 159.603 378.4V275.58C159.603 268.49 153.865 262.752 146.783 262.752Z" fill="white"/>
<path d="M613.083 462.339C562.982 462.339 519.2 426.041 513.391 379.689C512.503 372.654 517.502 366.256 524.521 365.359C525.072 365.297 525.598 365.265 526.125 365.265C532.515 365.265 538.025 370.013 538.835 376.513C543.072 410.242 575.668 436.691 613.083 436.691C635.249 436.691 656.259 427.055 670.722 410.249C675.352 404.881 683.448 404.291 688.809 408.905C694.185 413.543 694.79 421.647 690.161 427.015C670.817 449.456 642.708 462.339 613.083 462.339Z" fill="white"/>
<path d="M483.473 432.344H401.349C394.212 432.344 388.419 438.137 388.419 445.282C388.419 452.411 394.212 458.204 401.349 458.204H483.473C490.618 458.204 496.411 452.411 496.411 445.282C496.411 438.137 490.618 432.344 483.473 432.344Z" fill="white"/>
<path d="M462.879 345.339H401.341C394.212 345.339 388.419 351.14 388.419 358.269C388.419 365.414 394.212 371.199 401.341 371.199H462.879C470.032 371.199 475.825 365.414 475.825 358.269C475.825 351.14 470.032 345.339 462.879 345.339Z" fill="white"/>
<path d="M50.0985 593.888C50.0985 597.245 49.5248 600.279 48.3693 602.99C47.2138 605.687 45.6339 607.99 43.6453 609.884C41.6409 611.77 39.2828 613.225 36.5475 614.246C33.8199 615.276 30.8488 615.787 27.6575 615.787C24.4505 615.787 21.4793 615.276 18.744 614.246C16.0243 613.225 13.6348 611.77 11.6226 609.884C9.60248 607.99 8.02256 605.687 6.89068 602.99C5.76667 600.279 5.19287 597.245 5.19287 593.888V558.596H15.1282V593.574C15.1282 594.942 15.3326 596.372 15.7571 597.866C16.1737 599.367 16.8811 600.742 17.84 602C18.8147 603.258 20.1038 604.303 21.7073 605.113C23.3108 605.93 25.2916 606.331 27.6575 606.331C30.0156 606.331 32.0042 605.93 33.5999 605.113C35.2034 604.303 36.4846 603.258 37.4592 602C38.4339 600.742 39.1256 599.367 39.5501 597.866C39.9588 596.372 40.1789 594.942 40.1789 593.574V558.596H50.0985V593.888Z" fill="white"/>
<path d="M61.4507 576.557H70.4271V582.625H70.5843C71.4725 580.731 72.8402 579.096 74.6795 577.704C76.5188 576.305 79.0105 575.614 82.1625 575.614C84.6778 575.614 86.8315 576.038 88.5922 576.871C90.3529 577.712 91.7756 578.813 92.876 580.18C93.9764 581.548 94.7703 583.12 95.2419 584.904C95.7136 586.696 95.9494 588.559 95.9494 590.501V614.365H86.5013V595.225C86.5013 594.172 86.4385 593.008 86.3363 591.719C86.2419 590.438 85.959 589.227 85.5109 588.096C85.0708 586.972 84.3712 586.028 83.428 585.266C82.4847 584.496 81.1957 584.118 79.5607 584.118C77.9887 584.118 76.6603 584.386 75.5834 584.904C74.5066 585.431 73.6262 586.146 72.9031 587.034C72.2035 587.923 71.6926 588.952 71.3782 590.108C71.0638 591.263 70.8987 592.474 70.8987 593.731V614.365H61.4507V576.557Z" fill="white"/>
<path d="M105.465 563.721C105.465 562.196 106.031 560.876 107.163 559.744C108.295 558.62 109.725 558.046 111.462 558.046C113.191 558.046 114.646 558.588 115.825 559.665C117.004 560.742 117.601 562.094 117.601 563.721C117.601 565.348 117.004 566.7 115.825 567.777C114.646 568.854 113.191 569.396 111.462 569.396C109.725 569.396 108.295 568.83 107.163 567.698C106.031 566.574 105.465 565.246 105.465 563.721ZM106.801 576.557H116.257V614.365H106.801V576.557Z" fill="white"/>
<path d="M122.018 576.558H132.339L142.415 603.023H142.581L152.736 576.558H162.428L147.54 614.365H137.463L122.018 576.558Z" fill="white"/>
<path d="M175.581 598.77C175.903 601.607 176.996 603.808 178.89 605.388C180.777 606.96 183.064 607.754 185.744 607.754C188.102 607.754 190.091 607.267 191.694 606.292C193.29 605.325 194.697 604.099 195.9 602.629L202.675 607.754C200.466 610.482 197.998 612.423 195.271 613.579C192.543 614.734 189.682 615.316 186.687 615.316C183.85 615.316 181.17 614.836 178.654 613.893C176.131 612.95 173.954 611.614 172.115 609.876C170.275 608.139 168.813 606.056 167.736 603.62C166.667 601.175 166.125 598.455 166.125 595.461C166.125 592.466 166.667 589.754 167.736 587.31C168.813 584.873 170.275 582.774 172.115 581.053C173.954 579.316 176.131 577.972 178.654 577.028C181.17 576.085 183.85 575.614 186.687 575.614C189.313 575.614 191.71 576.077 193.887 576.989C196.073 577.909 197.935 579.237 199.484 580.966C201.04 582.703 202.235 584.841 203.108 587.388C203.98 589.935 204.412 592.867 204.412 596.176V598.77H175.581ZM194.956 591.68C194.901 588.897 194.037 586.704 192.363 585.101C190.68 583.505 188.346 582.703 185.343 582.703C182.514 582.703 180.258 583.521 178.607 585.148C176.956 586.775 175.95 588.952 175.581 591.68H194.956Z" fill="white"/>
<path d="M213.232 576.557H222.688V582.546H222.846C223.883 580.338 225.392 578.632 227.326 577.421C229.275 576.219 231.5 575.614 234.023 575.614C234.604 575.614 235.17 575.661 235.721 575.771C236.271 575.873 236.837 576.007 237.411 576.164V585.305C236.625 585.093 235.846 584.92 235.084 584.786C234.329 584.661 233.583 584.59 232.844 584.59C230.635 584.59 228.866 584.999 227.53 585.816C226.194 586.626 225.164 587.561 224.457 588.614C223.749 589.66 223.278 590.713 223.034 591.759C222.806 592.812 222.688 593.598 222.688 594.124V614.365H213.232V576.557Z" fill="white"/>
<path d="M271.515 603.187C271.515 605.388 271.067 607.259 270.148 608.776C269.228 610.309 268.01 611.535 266.516 612.478C265.023 613.429 263.341 614.121 261.478 614.569C259.615 615.017 257.728 615.269 255.85 615.324H254.899C253.476 615.324 252.187 615.237 251 615.08C249.821 614.923 248.689 614.687 247.612 614.372C246.535 614.058 245.474 613.634 244.421 613.115C243.368 612.588 242.22 611.936 240.955 611.142L244.9 604.681C246.583 605.734 248.265 606.591 249.939 607.243C251.621 607.903 253.586 608.226 255.85 608.226C256.534 608.226 257.233 608.147 257.972 607.99C258.703 607.833 259.371 607.573 259.984 607.204C260.582 606.842 261.077 606.379 261.478 605.828C261.871 605.278 262.067 604.634 262.067 603.895C262.067 602.582 261.564 601.615 260.566 600.986C259.568 600.35 258.31 599.839 256.785 599.446C255.268 599.053 253.625 598.683 251.865 598.345C250.104 598 248.461 597.449 246.944 596.687C245.419 595.932 244.169 594.863 243.171 593.496C242.165 592.136 241.67 590.241 241.67 587.828C241.67 585.777 242.079 583.993 242.888 582.475C243.698 580.951 244.79 579.685 246.158 578.695C247.526 577.689 249.09 576.942 250.851 576.447C252.603 575.944 254.427 575.668 256.314 575.621H257.107C259.725 575.724 262.044 576.077 264.04 576.682C266.029 577.288 268.025 578.247 270.022 579.559L266.241 585.942C265.4 585.517 264.614 585.148 263.883 584.834C263.144 584.519 262.39 584.244 261.596 584.008C260.81 583.772 259.984 583.576 259.12 583.411C258.247 583.262 257.265 583.183 256.156 583.183C254.954 583.285 253.806 583.639 252.729 584.244C251.66 584.849 251.118 585.832 251.118 587.2C251.118 588.355 251.621 589.196 252.611 589.715C253.61 590.241 254.875 590.689 256.392 591.059C257.917 591.42 259.56 591.806 261.321 592.199C263.073 592.592 264.724 593.197 266.241 594.006C267.758 594.824 269.024 595.94 270.022 597.355C271.02 598.778 271.515 600.719 271.515 603.187Z" fill="white"/>
<path d="M277.665 563.721C277.665 562.196 278.223 560.876 279.355 559.744C280.487 558.62 281.917 558.046 283.647 558.046C285.384 558.046 286.838 558.588 288.025 559.665C289.204 560.742 289.801 562.094 289.801 563.721C289.801 565.348 289.204 566.7 288.025 567.777C286.838 568.854 285.384 569.396 283.647 569.396C281.917 569.396 280.487 568.83 279.355 567.698C278.223 566.574 277.665 565.246 277.665 563.721ZM279.001 576.557H288.457V614.365H279.001V576.557Z" fill="white"/>
<path d="M329.253 608.697H329.096C327.736 611.008 325.897 612.69 323.578 613.735C321.275 614.789 318.776 615.315 316.103 615.315C313.156 615.315 310.538 614.804 308.267 613.775C305.979 612.753 304.014 611.354 302.395 609.562C300.76 607.777 299.534 605.679 298.685 603.258C297.852 600.845 297.427 598.243 297.427 595.468C297.427 592.686 297.875 590.084 298.763 587.663C299.66 585.25 300.909 583.151 302.513 581.359C304.108 579.583 306.042 578.176 308.298 577.154C310.554 576.124 313.038 575.613 315.702 575.613C317.487 575.613 319.059 575.802 320.434 576.163C321.802 576.533 323.005 577.004 324.058 577.586C325.103 578.16 325.999 578.781 326.738 579.433C327.469 580.093 328.082 580.73 328.546 581.359H328.782V558.604H338.23V614.372H329.253V608.697ZM306.883 595.468C306.883 596.93 307.135 598.353 307.63 599.721C308.125 601.08 308.864 602.291 309.839 603.336C310.805 604.39 311.977 605.231 313.344 605.859C314.704 606.496 316.26 606.81 317.982 606.81C319.719 606.81 321.275 606.496 322.643 605.859C323.995 605.231 325.166 604.39 326.149 603.336C327.115 602.291 327.846 601.08 328.342 599.721C328.845 598.353 329.096 596.93 329.096 595.468C329.096 593.998 328.845 592.576 328.342 591.208C327.846 589.848 327.115 588.638 326.149 587.584C325.166 586.539 323.995 585.698 322.643 585.069C321.275 584.44 319.719 584.118 317.982 584.118C316.26 584.118 314.704 584.44 313.344 585.069C311.977 585.698 310.805 586.539 309.839 587.584C308.864 588.638 308.125 589.848 307.63 591.208C307.135 592.576 306.883 593.998 306.883 595.468Z" fill="white"/>
<path d="M378.553 608.697H378.396C377.036 611.008 375.196 612.69 372.885 613.735C370.575 614.788 368.075 615.315 365.41 615.315C362.463 615.315 359.845 614.804 357.566 613.774C355.286 612.753 353.321 611.353 351.702 609.561C350.067 607.777 348.833 605.678 347.992 603.257C347.151 600.844 346.734 598.242 346.734 595.468C346.734 592.685 347.182 590.084 348.071 587.663C348.959 585.249 350.209 583.151 351.812 581.359C353.416 579.582 355.349 578.175 357.605 577.153C359.861 576.124 362.329 575.613 365.009 575.613C366.794 575.613 368.366 575.801 369.733 576.163C371.101 576.532 372.304 577.004 373.357 577.586C374.41 578.16 375.299 578.78 376.037 579.433C376.768 580.093 377.374 580.73 377.853 581.359H378.081V575.613H387.537V614.372H378.553V608.697ZM356.19 595.468C356.19 596.93 356.434 598.353 356.937 599.72C357.432 601.08 358.163 602.291 359.138 603.336C360.113 604.389 361.276 605.23 362.651 605.859C364.003 606.496 365.56 606.81 367.289 606.81C369.018 606.81 370.575 606.496 371.942 605.859C373.302 605.23 374.473 604.389 375.448 603.336C376.423 602.291 377.154 601.08 377.649 599.72C378.144 598.353 378.396 596.93 378.396 595.468C378.396 593.998 378.144 592.575 377.649 591.208C377.154 589.848 376.423 588.637 375.448 587.584C374.473 586.539 373.302 585.698 371.942 585.069C370.575 584.44 369.018 584.118 367.289 584.118C365.56 584.118 364.003 584.44 362.651 585.069C361.276 585.698 360.113 586.539 359.138 587.584C358.163 588.637 357.432 589.848 356.937 591.208C356.434 592.575 356.19 593.998 356.19 595.468Z" fill="white"/>
<path d="M427.557 608.697H427.399C426.032 611.008 424.192 612.69 421.889 613.735C419.578 614.789 417.079 615.315 414.406 615.315C411.459 615.315 408.849 614.804 406.562 613.775C404.282 612.753 402.325 611.354 400.698 609.562C399.071 607.777 397.837 605.679 396.996 603.258C396.155 600.845 395.738 598.243 395.738 595.468C395.738 592.686 396.178 590.084 397.075 587.663C397.963 585.25 399.213 583.151 400.816 581.359C402.42 579.583 404.353 578.176 406.609 577.154C408.865 576.124 411.325 575.613 414.006 575.613C415.798 575.613 417.37 575.802 418.73 576.163C420.097 576.533 421.316 577.004 422.353 577.586C423.406 578.16 424.302 578.781 425.033 579.433C425.764 580.093 426.37 580.73 426.849 581.359H427.093V558.604H436.533V614.372H427.557V608.697ZM405.194 595.468C405.194 596.93 405.438 598.353 405.941 599.721C406.436 601.08 407.167 602.291 408.134 603.336C409.116 604.39 410.28 605.231 411.647 605.859C413.007 606.496 414.556 606.81 416.293 606.81C418.022 606.81 419.578 606.496 420.938 605.859C422.306 605.231 423.477 604.39 424.444 603.336C425.419 602.291 426.157 601.08 426.653 599.721C427.148 598.353 427.399 596.93 427.399 595.468C427.399 593.998 427.148 592.576 426.653 591.208C426.157 589.848 425.419 588.638 424.444 587.584C423.477 586.539 422.306 585.698 420.938 585.069C419.578 584.44 418.022 584.118 416.293 584.118C414.556 584.118 413.007 584.44 411.647 585.069C410.28 585.698 409.116 586.539 408.134 587.584C407.167 588.638 406.436 589.848 405.941 591.208C405.438 592.576 405.194 593.998 405.194 595.468Z" fill="white"/>
<path d="M482.843 567.581H465.755V558.604H509.867V567.581H492.763V614.373H482.843V567.581Z" fill="white"/>
<path d="M514.589 598.77C514.911 601.607 516.004 603.808 517.898 605.388C519.785 606.96 522.072 607.754 524.753 607.754C527.111 607.754 529.099 607.267 530.703 606.292C532.298 605.325 533.705 604.099 534.908 602.629L541.684 607.754C539.475 610.482 537.007 612.423 534.287 613.579C531.552 614.734 528.691 615.316 525.696 615.316C522.858 615.316 520.178 614.836 517.663 613.893C515.139 612.95 512.962 611.614 511.123 609.876C509.284 608.139 507.822 606.056 506.745 603.62C505.668 601.175 505.133 598.455 505.133 595.461C505.133 592.466 505.668 589.754 506.745 587.31C507.822 584.873 509.284 582.774 511.123 581.053C512.962 579.316 515.139 577.972 517.663 577.028C520.178 576.085 522.858 575.614 525.696 575.614C528.321 575.614 530.718 576.077 532.896 576.989C535.081 577.909 536.944 579.237 538.492 580.966C540.049 582.703 541.243 584.841 542.116 587.388C542.988 589.935 543.421 592.867 543.421 596.176V598.77H514.589ZM533.965 591.68C533.91 588.897 533.045 586.704 531.371 585.101C529.689 583.505 527.354 582.703 524.352 582.703C521.522 582.703 519.266 583.521 517.615 585.148C515.965 586.775 514.959 588.952 514.589 591.68H533.965Z" fill="white"/>
<path d="M578.08 587.907C576.979 586.751 575.824 585.832 574.613 585.148C573.411 584.464 572.169 584.118 570.911 584.118C569.182 584.118 567.625 584.441 566.266 585.069C564.898 585.698 563.727 586.539 562.76 587.585C561.785 588.638 561.046 589.848 560.551 591.216C560.056 592.576 559.805 593.999 559.805 595.468C559.805 596.938 560.056 598.361 560.551 599.721C561.046 601.089 561.785 602.291 562.76 603.344C563.727 604.39 564.898 605.231 566.266 605.868C567.625 606.496 569.182 606.811 570.911 606.811C572.389 606.811 573.741 606.504 575.006 605.907C576.264 605.302 577.341 604.421 578.237 603.266L584.533 610.041C583.59 610.985 582.505 611.802 581.263 612.478C580.037 613.162 578.787 613.712 577.529 614.137C576.264 614.553 575.061 614.852 573.906 615.041C572.743 615.221 571.752 615.316 570.911 615.316C568.074 615.316 565.393 614.844 562.878 613.901C560.355 612.95 558.185 611.613 556.346 609.884C554.499 608.147 553.045 606.056 551.968 603.62C550.891 601.175 550.349 598.455 550.349 595.468C550.349 592.474 550.891 589.754 551.968 587.317C553.045 584.873 554.499 582.782 556.346 581.053C558.185 579.316 560.355 577.979 562.878 577.036C565.393 576.093 568.074 575.621 570.911 575.621C573.324 575.621 575.753 576.077 578.198 576.997C580.642 577.917 582.772 579.371 584.612 581.367L578.08 587.907Z" fill="white"/>
<path d="M590.218 576.557H599.195V582.625H599.352C600.24 580.731 601.608 579.096 603.447 577.704C605.286 576.305 607.778 575.614 610.93 575.614C613.445 575.614 615.599 576.038 617.36 576.871C619.12 577.712 620.543 578.813 621.644 580.18C622.744 581.548 623.538 583.12 624.01 584.904C624.481 586.696 624.717 588.559 624.717 590.501V614.365H615.269V595.225C615.269 594.172 615.206 593.008 615.104 591.719C615.002 590.438 614.727 589.227 614.279 588.096C613.838 586.972 613.139 586.028 612.196 585.266C611.252 584.496 609.955 584.118 608.328 584.118C606.756 584.118 605.428 584.386 604.351 584.904C603.274 585.431 602.386 586.146 601.671 587.034C600.971 587.923 600.46 588.952 600.146 590.108C599.824 591.263 599.666 592.474 599.666 593.731V614.365H590.218V576.557Z" fill="white"/>
<path d="M633.534 595.468C633.534 592.474 634.069 589.754 635.153 587.317C636.23 584.873 637.677 582.782 639.524 581.053C641.363 579.316 643.532 577.979 646.056 577.036C648.579 576.093 651.259 575.621 654.097 575.621C656.926 575.621 659.607 576.093 662.13 577.036C664.653 577.979 666.83 579.316 668.67 581.053C670.509 582.782 671.955 584.873 673.032 587.317C674.117 589.754 674.651 592.474 674.651 595.468C674.651 598.455 674.117 601.175 673.032 603.62C671.955 606.056 670.509 608.147 668.67 609.884C666.83 611.613 664.653 612.95 662.13 613.893C659.607 614.844 656.926 615.316 654.097 615.316C651.259 615.316 648.579 614.844 646.056 613.893C643.532 612.95 641.363 611.613 639.524 609.884C637.677 608.147 636.23 606.056 635.153 603.62C634.069 601.175 633.534 598.455 633.534 595.468ZM642.99 595.468C642.99 596.938 643.242 598.361 643.737 599.721C644.232 601.089 644.971 602.291 645.938 603.344C646.912 604.39 648.084 605.231 649.451 605.868C650.811 606.496 652.367 606.811 654.097 606.811C655.826 606.811 657.382 606.496 658.742 605.868C660.11 605.231 661.273 604.39 662.248 603.344C663.222 602.291 663.953 601.089 664.449 599.721C664.952 598.361 665.195 596.938 665.195 595.468C665.195 593.999 664.952 592.576 664.449 591.208C663.953 589.848 663.222 588.638 662.248 587.585C661.273 586.539 660.11 585.698 658.742 585.069C657.382 584.441 655.826 584.118 654.097 584.118C652.367 584.118 650.811 584.441 649.451 585.069C648.084 585.698 646.912 586.539 645.938 587.585C644.971 588.638 644.232 589.848 643.737 591.208C643.242 592.576 642.99 593.999 642.99 595.468Z" fill="white"/>
<path d="M693.084 558.596H683.628V614.364H693.084V558.596Z" fill="white"/>
<path d="M702.062 595.469C702.062 592.474 702.589 589.755 703.673 587.318C704.75 584.873 706.204 582.783 708.044 581.053C709.883 579.316 712.06 577.98 714.583 577.037C717.107 576.094 719.787 575.622 722.624 575.622C725.454 575.622 728.134 576.094 730.658 577.037C733.173 577.98 735.342 579.316 737.19 581.053C739.029 582.783 740.483 584.873 741.56 587.318C742.637 589.755 743.179 592.474 743.179 595.469C743.179 598.456 742.637 601.176 741.56 603.62C740.483 606.057 739.029 608.148 737.19 609.885C735.342 611.614 733.173 612.95 730.658 613.894C728.134 614.845 725.454 615.316 722.624 615.316C719.787 615.316 717.107 614.845 714.583 613.894C712.06 612.95 709.883 611.614 708.044 609.885C706.204 608.148 704.75 606.057 703.673 603.62C702.589 601.176 702.062 598.456 702.062 595.469ZM711.518 595.469C711.518 596.939 711.769 598.362 712.265 599.722C712.76 601.089 713.491 602.292 714.458 603.345C715.44 604.391 716.611 605.232 717.971 605.868C719.339 606.497 720.887 606.811 722.624 606.811C724.346 606.811 725.902 606.497 727.262 605.868C728.63 605.232 729.801 604.391 730.768 603.345C731.742 602.292 732.481 601.089 732.976 599.722C733.479 598.362 733.723 596.939 733.723 595.469C733.723 593.999 733.479 592.577 732.976 591.209C732.481 589.849 731.742 588.639 730.768 587.585C729.801 586.54 728.63 585.699 727.262 585.07C725.902 584.441 724.346 584.119 722.624 584.119C720.887 584.119 719.339 584.441 717.971 585.07C716.611 585.699 715.44 586.54 714.458 587.585C713.491 588.639 712.76 589.849 712.265 591.209C711.769 592.577 711.518 593.999 711.518 595.469ZM726.72 558.604H737.425L726.319 569.947H718.914L726.72 558.604Z" fill="white"/>
<path d="M790.913 576.557V610.985C790.913 614.396 790.489 617.477 789.647 620.236C788.814 622.995 787.509 625.33 785.749 627.248C783.988 629.158 781.779 630.643 779.099 631.696C776.419 632.75 773.243 633.269 769.564 633.269C766.043 633.269 762.71 632.828 759.566 631.932C756.406 631.036 753.498 629.417 750.818 627.051L756.493 619.332C758.387 621.062 760.344 622.398 762.404 623.349C764.44 624.292 766.813 624.764 769.486 624.764C771.75 624.764 773.644 624.449 775.192 623.821C776.749 623.184 777.975 622.327 778.895 621.219C779.814 620.118 780.475 618.79 780.875 617.241C781.261 615.693 781.465 613.972 781.465 612.085V609.326H781.3C779.94 611.165 778.124 612.541 775.868 613.461C773.613 614.38 771.294 614.836 768.936 614.836C766.106 614.836 763.52 614.333 761.217 613.303C758.906 612.282 756.917 610.906 755.267 609.169C753.616 607.432 752.343 605.388 751.454 603.022C750.558 600.664 750.11 598.141 750.11 595.469C750.11 592.678 750.535 590.076 751.376 587.663C752.209 585.25 753.443 583.152 755.07 581.359C756.705 579.575 758.654 578.176 760.942 577.146C763.229 576.124 765.839 575.614 768.778 575.614C771.451 575.614 773.951 576.14 776.261 577.186C778.572 578.239 780.404 579.921 781.779 582.232H781.937V576.557H790.913ZM770.751 584.118C769.069 584.118 767.544 584.393 766.177 584.952C764.817 585.494 763.646 586.256 762.671 587.231C761.704 588.206 760.942 589.385 760.392 590.776C759.833 592.167 759.566 593.708 759.566 595.382C759.566 596.907 759.833 598.33 760.392 599.642C760.942 600.947 761.72 602.11 762.71 603.101C763.709 604.099 764.896 604.885 766.255 605.467C767.623 606.041 769.101 606.331 770.673 606.331C772.402 606.331 773.958 606.041 775.358 605.467C776.749 604.885 777.928 604.115 778.895 603.14C779.877 602.173 780.624 601.002 781.151 599.642C781.669 598.275 781.937 596.805 781.937 595.225C781.937 591.916 780.938 589.243 778.942 587.192C776.945 585.148 774.21 584.118 770.751 584.118Z" fill="white"/>
<path d="M800.446 563.721C800.446 562.196 801.012 560.876 802.136 559.744C803.275 558.62 804.706 558.046 806.435 558.046C808.165 558.046 809.627 558.588 810.806 559.665C811.985 560.742 812.574 562.094 812.574 563.721C812.574 565.348 811.985 566.7 810.806 567.777C809.627 568.854 808.165 569.396 806.435 569.396C804.706 569.396 803.275 568.83 802.136 567.698C801.012 566.574 800.446 565.246 800.446 563.721ZM801.782 576.557H811.238V614.365H801.782V576.557Z" fill="white"/>
<path d="M847.938 587.907C846.83 586.751 845.683 585.832 844.472 585.148C843.269 584.464 842.035 584.118 840.77 584.118C839.033 584.118 837.484 584.441 836.125 585.069C834.757 585.698 833.593 586.539 832.611 587.585C831.644 588.638 830.913 589.848 830.418 591.216C829.915 592.576 829.671 593.999 829.671 595.468C829.671 596.938 829.915 598.361 830.418 599.721C830.913 601.089 831.644 602.291 832.611 603.344C833.593 604.39 834.757 605.231 836.125 605.868C837.484 606.496 839.033 606.811 840.77 606.811C842.24 606.811 843.607 606.504 844.873 605.907C846.131 605.302 847.207 604.421 848.096 603.266L854.4 610.041C853.449 610.985 852.364 611.802 851.13 612.478C849.896 613.162 848.646 613.712 847.38 614.137C846.131 614.553 844.912 614.852 843.765 615.041C842.609 615.221 841.611 615.316 840.77 615.316C837.94 615.316 835.26 614.844 832.737 613.901C830.214 612.95 828.036 611.613 826.197 609.884C824.358 608.147 822.904 606.056 821.827 603.62C820.742 601.175 820.215 598.455 820.215 595.468C820.215 592.474 820.742 589.754 821.827 587.317C822.904 584.873 824.358 582.782 826.197 581.053C828.036 579.316 830.214 577.979 832.737 577.036C835.26 576.093 837.94 575.621 840.77 575.621C843.191 575.621 845.62 576.077 848.056 576.997C850.493 577.917 852.639 579.371 854.478 581.367L847.938 587.907Z" fill="white"/>
<path d="M889.685 608.697H889.527C888.168 611.008 886.328 612.69 884.009 613.735C881.699 614.788 879.207 615.315 876.534 615.315C873.587 615.315 870.969 614.804 868.698 613.774C866.41 612.753 864.453 611.353 862.826 609.561C861.191 607.777 859.957 605.678 859.116 603.257C858.275 600.844 857.858 598.242 857.858 595.468C857.858 592.685 858.306 590.084 859.195 587.663C860.091 585.249 861.34 583.151 862.944 581.359C864.54 579.582 866.473 578.175 868.729 577.153C870.985 576.124 873.461 575.613 876.141 575.613C877.918 575.613 879.49 575.801 880.858 576.163C882.233 576.532 883.428 577.004 884.489 577.586C885.534 578.16 886.43 578.78 887.169 579.433C887.9 580.093 888.506 580.73 888.977 581.359H889.205V575.613H898.661V614.372H889.685V608.697ZM867.314 595.468C867.314 596.93 867.558 598.353 868.061 599.72C868.556 601.08 869.295 602.291 870.27 603.336C871.237 604.389 872.408 605.23 873.775 605.859C875.135 606.496 876.684 606.81 878.413 606.81C880.15 606.81 881.699 606.496 883.074 605.859C884.426 605.23 885.597 604.389 886.58 603.336C887.547 602.291 888.278 601.08 888.773 599.72C889.276 598.353 889.527 596.93 889.527 595.468C889.527 593.998 889.276 592.575 888.773 591.208C888.278 589.848 887.547 588.637 886.58 587.584C885.597 586.539 884.426 585.698 883.074 585.069C881.699 584.44 880.15 584.118 878.413 584.118C876.684 584.118 875.135 584.44 873.775 585.069C872.408 585.698 871.237 586.539 870.27 587.584C869.295 588.637 868.556 589.848 868.061 591.208C867.558 592.575 867.314 593.998 867.314 595.468Z" fill="white"/>
</g>
<defs>
<clipPath id="clip0_1404_7068">
<rect width="900" height="632.634" fill="white" transform="translate(0 0.634277)"/>
</clipPath>
</defs>
</svg>
