<svg xmlns="http://www.w3.org/2000/svg" width="90" height="95" viewBox="0 0 90 95">
    <g fill="none" fill-rule="evenodd">
        <path fill="#E3ECF6" d="M60.5 4.153l14 8.083A31 31 0 0 1 90 39.083v16.166a31 31 0 0 1-15.5 26.846l-14 8.083a31 31 0 0 1-31 0l-14-8.083A31 31 0 0 1 0 55.25V39.083a31 31 0 0 1 15.5-26.847l14-8.083a31 31 0 0 1 31 0z"/>
        <circle cx="10" cy="10" r="10" fill="#FFF" transform="translate(28 25)"/>
        <path fill="#FFF" d="M12 69.908c3.333 5.333 8.333 9.333 15 12 10 4 7.5 6 15.5 6s13.5 1 27-9 14-13.5 14-15.5-12.5-10.5-31-4C40.167 63.74 26.667 67.24 12 69.908zM70.5 41a2.5 2.5 0 1 1 1.508 3.952V45H55.5a3.5 3.5 0 1 1 1.74-6.537 5.002 5.002 0 0 1 9.733 2.057A2.496 2.496 0 0 1 70.5 41z"/>
    </g>
</svg>
