<svg xmlns="http://www.w3.org/2000/svg" width="19" height="19" viewBox="0 0 19 19">
    <g fill="#4A90E2" fill-rule="nonzero" stroke="#4A90E2" stroke-width=".5">
        <path d="M11.88 2.582H17.2l-.783-.783V7.12c0 .409.36.802.783.783.425-.02.783-.345.783-.783V5.326 2.454 1.8a.794.794 0 0 0-.783-.783H11.88c-.409 0-.802.36-.783.783.018.422.343.783.783.783z"/>
        <path d="M8.923 11.185l.88-.88 2.11-2.11 2.552-2.552 2.206-2.206c.358-.358.72-.71 1.073-1.073l.015-.015c.29-.29.311-.822 0-1.108-.313-.288-.798-.31-1.108 0l-.879.879-2.11 2.11-2.552 2.554L8.904 8.99c-.358.358-.72.71-1.073 1.073l-.016.016c-.29.29-.31.822 0 1.108.314.283.8.307 1.108-.002z"/>
        <path d="M16.42 10.646v4.551c0 .245.02.501-.013.746.01-.068.02-.139.027-.207a1.49 1.49 0 0 1-.09.328l.078-.187a1.497 1.497 0 0 1-.18.31l.124-.158a1.54 1.54 0 0 1-.253.253l.159-.124c-.096.073-.2.134-.312.18.063-.025.126-.052.188-.078a1.461 1.461 0 0 1-.329.09c.069-.01.14-.02.208-.027-.16.021-.327.014-.49.014H4.746c-.498 0-.995.003-1.49 0a1.37 1.37 0 0 1-.2-.014c.068.01.139.02.207.027a1.49 1.49 0 0 1-.328-.09l.187.079a1.497 1.497 0 0 1-.31-.18l.158.123a1.54 1.54 0 0 1-.253-.253l.124.159a1.449 1.449 0 0 1-.18-.311l.078.187a1.461 1.461 0 0 1-.09-.328c.01.068.02.139.027.207-.021-.16-.014-.327-.014-.49v-.907-3.03V7.83v-3.17c0-.498-.003-.995 0-1.49 0-.067.004-.133.014-.2-.01.069-.02.14-.027.208a1.49 1.49 0 0 1 .09-.33l-.078.189c.046-.112.107-.214.18-.312l-.124.159a1.54 1.54 0 0 1 .253-.252l-.159.123c.096-.073.2-.133.311-.18l-.187.078c.105-.043.215-.072.328-.09-.068.01-.139.02-.207.027.207-.027.423-.013.63-.013H8.352c.409 0 .802-.36.783-.783-.02-.425-.345-.783-.783-.783H3.319c-.6 0-1.184.21-1.607.648-.397.413-.61.959-.61 1.53v11.878c0 .37-.016.74.044 1.106.069.413.304.822.603 1.11.153.147.333.284.527.376.272.127.51.194.808.225.112.012.221.01.333.01H15.812c.587-.002 1.176-.231 1.58-.666.14-.153.275-.329.363-.519a2.418 2.418 0 0 0 .231-1.049v-2.073-2.513-.43c0-.41-.36-.803-.783-.784-.424.02-.783.345-.783.785z"/>
    </g>
</svg>
